STARTFONT 2.1
FONT -Adobe-Utopia-Regular-I-Normal--25-240-75-75-P-133-ISO10646-1
SIZE 24 75 75
FONTBOUNDINGBOX 33 39 -6 -12
COMMENT $Xorg: $
COMMENT ISO10646-1 extension by Markus Kuhn <mkuhn@acm.org>, 2001-03-20
STARTPROPERTIES 28
FOUNDRY "Adobe"
FAMILY_NAME "Utopia"
WEIGHT_NAME "Regular"
SLANT "I"
SETWIDTH_NAME "Normal"
ADD_STYLE_NAME ""
PIXEL_SIZE 25
POINT_SIZE 240
RESOLUTION_X 75
RESOLUTION_Y 75
SPACING "P"
AVERAGE_WIDTH 133
CHARSET_REGISTRY "ISO10646"
CHARSET_ENCODING "1"
CAP_HEIGHT 17
X_HEIGHT 12
RELATIVE_SETWIDTH 50
RELATIVE_WEIGHT 50
WEIGHT 130
FACE_NAME "Utopia Italic"
COPYRIGHT "Copyright (c) 1989, 1991 Adobe Systems Incorporated.  All rights reserved."
NOTICE "Utopia is a registered trademark of Adobe Systems Incorporated."
DESTINATION 0
FONT_ASCENT 21
FONT_DESCENT 5
DEFAULT_CHAR 0
_ADOBE_PSFONT "Utopia-Italic"
_DEC_DEVICE_FONTNAMES "PS=Utopia-Italic"
ENDPROPERTIES
CHARS 723
STARTCHAR char0
ENCODING 0
SWIDTH 775 0
DWIDTH 19 0
BBX 21 17 -1 0
BITMAP
AAAAA8
000000
800008
000000
800008
000000
800008
000000
800008
000000
800008
000000
800008
000000
800008
000000
AAAAA8
ENDCHAR
STARTCHAR space
ENCODING 32
SWIDTH 225 0
DWIDTH 5 0
BBX 0 0 0 0
BITMAP
ENDCHAR
STARTCHAR exclam
ENCODING 33
SWIDTH 240 0
DWIDTH 6 0
BBX 6 17 0 0
BITMAP
1C
1C
1C
18
18
38
30
30
30
20
20
00
00
00
60
F0
60
ENDCHAR
STARTCHAR quotedbl
ENCODING 34
SWIDTH 402 0
DWIDTH 9 0
BBX 7 7 1 10
BITMAP
66
66
66
CC
CC
88
88
ENDCHAR
STARTCHAR numbersign
ENCODING 35
SWIDTH 530 0
DWIDTH 13 0
BBX 13 17 0 0
BITMAP
0630
0630
0630
0C60
0C60
3FF8
0C60
18C0
18C0
18C0
3180
FFE0
3180
3180
6300
6300
6300
ENDCHAR
STARTCHAR dollar
ENCODING 36
SWIDTH 530 0
DWIDTH 13 0
BBX 12 21 0 -2
BITMAP
0080
0080
07E0
0D70
1930
3900
3A00
3A00
3E00
1E00
0F00
0780
07C0
05C0
05C0
09C0
C980
EB00
7E00
1000
1000
ENDCHAR
STARTCHAR percent
ENCODING 37
SWIDTH 826 0
DWIDTH 20 0
BBX 16 17 1 0
BITMAP
1E06
23FC
6308
4310
C330
C220
C640
4480
799E
0122
0263
0443
0CC3
08C2
10C6
2044
6078
ENDCHAR
STARTCHAR ampersand
ENCODING 38
SWIDTH 725 0
DWIDTH 19 0
BBX 17 17 1 0
BITMAP
01E000
063000
0C3000
0C3000
0C6000
06C000
070000
0F0180
3B8380
718380
E0C300
E0E600
E07C00
E03800
E03C00
70CE00
1F0780
ENDCHAR
STARTCHAR quotesingle
ENCODING 39
SWIDTH 216 0
DWIDTH 5 0
BBX 3 7 1 10
BITMAP
60
60
60
C0
C0
80
80
ENDCHAR
STARTCHAR parenleft
ENCODING 40
SWIDTH 350 0
DWIDTH 9 0
BBX 8 20 2 -3
BITMAP
03
0C
18
18
30
30
60
60
60
60
C0
C0
C0
C0
C0
C0
C0
C0
40
30
ENDCHAR
STARTCHAR parenright
ENCODING 41
SWIDTH 350 0
DWIDTH 9 0
BBX 8 20 -1 -3
BITMAP
0C
02
03
03
03
03
03
03
03
03
06
06
06
06
0C
0C
18
18
30
C0
ENDCHAR
STARTCHAR asterisk
ENCODING 42
SWIDTH 412 0
DWIDTH 10 0
BBX 8 8 1 9
BITMAP
0C
6C
6B
1F
F8
D6
36
30
ENDCHAR
STARTCHAR plus
ENCODING 43
SWIDTH 570 0
DWIDTH 14 0
BBX 12 12 1 0
BITMAP
0600
0600
0600
0600
0600
FFF0
FFF0
0600
0600
0600
0600
0600
ENDCHAR
STARTCHAR comma
ENCODING 44
SWIDTH 265 0
DWIDTH 6 0
BBX 5 6 -1 -3
BITMAP
30
78
30
20
40
80
ENDCHAR
STARTCHAR hyphen
ENCODING 45
SWIDTH 392 0
DWIDTH 10 0
BBX 7 2 1 5
BITMAP
7E
FC
ENDCHAR
STARTCHAR period
ENCODING 46
SWIDTH 265 0
DWIDTH 6 0
BBX 4 3 0 0
BITMAP
60
F0
60
ENDCHAR
STARTCHAR slash
ENCODING 47
SWIDTH 270 0
DWIDTH 11 0
BBX 8 17 1 0
BITMAP
03
03
06
06
06
0C
0C
18
18
18
30
30
60
60
60
C0
C0
ENDCHAR
STARTCHAR zero
ENCODING 48
SWIDTH 530 0
DWIDTH 13 0
BBX 12 17 0 0
BITMAP
03C0
0CE0
1870
3870
3870
7070
7070
7070
E070
E0E0
E0E0
E0E0
E1C0
E1C0
E180
7300
3E00
ENDCHAR
STARTCHAR one
ENCODING 49
SWIDTH 530 0
DWIDTH 13 0
BBX 9 17 0 0
BITMAP
0380
0F80
0380
0380
0700
0700
0700
0700
0E00
0E00
0E00
0E00
1C00
1C00
1C00
3C00
FF00
ENDCHAR
STARTCHAR two
ENCODING 50
SWIDTH 530 0
DWIDTH 13 0
BBX 12 17 0 0
BITMAP
07C0
1CE0
3870
3070
0070
0070
0060
00C0
0180
0300
0C00
1800
3000
6020
E060
FFC0
FFC0
ENDCHAR
STARTCHAR three
ENCODING 51
SWIDTH 530 0
DWIDTH 13 0
BBX 12 17 0 0
BITMAP
07C0
1CE0
3870
3070
0070
00E0
01C0
0F80
01C0
00E0
00E0
00E0
00E0
01C0
C1C0
E380
7F00
ENDCHAR
STARTCHAR four
ENCODING 52
SWIDTH 530 0
DWIDTH 13 0
BBX 11 17 0 0
BITMAP
01C0
03C0
0380
0700
0640
0CC0
1DC0
39C0
31C0
6380
C380
C380
FFE0
0700
0700
0F00
3FC0
ENDCHAR
STARTCHAR five
ENCODING 53
SWIDTH 530 0
DWIDTH 13 0
BBX 12 17 0 0
BITMAP
0FF0
0FE0
0800
1800
1000
3000
3F00
2180
00C0
00E0
00E0
00E0
00E0
01C0
C1C0
E380
7F00
ENDCHAR
STARTCHAR six
ENCODING 54
SWIDTH 530 0
DWIDTH 13 0
BBX 12 17 0 0
BITMAP
03E0
0C70
1830
3800
3800
7000
7000
7F80
F1C0
E0E0
E0E0
E0E0
E0E0
E1C0
E1C0
7380
3E00
ENDCHAR
STARTCHAR seven
ENCODING 55
SWIDTH 530 0
DWIDTH 13 0
BBX 12 17 1 0
BITMAP
7FF0
7FF0
C060
8040
0080
0180
0100
0300
0600
0600
0E00
0E00
1C00
1C00
1C00
1C00
0800
ENDCHAR
STARTCHAR eight
ENCODING 56
SWIDTH 530 0
DWIDTH 13 0
BBX 12 17 0 0
BITMAP
03C0
0C60
1830
3830
3830
3830
1C60
0FC0
1F80
31C0
60E0
E0E0
E0E0
E0E0
E0C0
7180
3E00
ENDCHAR
STARTCHAR nine
ENCODING 57
SWIDTH 530 0
DWIDTH 13 0
BBX 12 17 0 0
BITMAP
07C0
1CE0
3870
3870
7070
7070
7070
7070
38F0
1FE0
00E0
00E0
01C0
01C0
C180
E300
7C00
ENDCHAR
STARTCHAR colon
ENCODING 58
SWIDTH 265 0
DWIDTH 6 0
BBX 6 13 0 0
BITMAP
18
3C
18
00
00
00
00
00
00
00
60
F0
60
ENDCHAR
STARTCHAR semicolon
ENCODING 59
SWIDTH 265 0
DWIDTH 6 0
BBX 7 16 -1 -3
BITMAP
0C
1E
0C
00
00
00
00
00
00
00
30
78
30
20
40
80
ENDCHAR
STARTCHAR less
ENCODING 60
SWIDTH 570 0
DWIDTH 14 0
BBX 12 12 1 0
BITMAP
0030
00F0
03C0
0F00
3C00
F000
F000
3C00
0F00
03C0
00F0
0030
ENDCHAR
STARTCHAR equal
ENCODING 61
SWIDTH 570 0
DWIDTH 14 0
BBX 12 7 1 2
BITMAP
FFF0
FFF0
0000
0000
0000
FFF0
FFF0
ENDCHAR
STARTCHAR greater
ENCODING 62
SWIDTH 570 0
DWIDTH 14 0
BBX 12 12 1 0
BITMAP
C000
F000
3C00
0F00
03C0
00F0
00F0
03C0
0F00
3C00
F000
C000
ENDCHAR
STARTCHAR question
ENCODING 63
SWIDTH 425 0
DWIDTH 11 0
BBX 8 17 1 0
BITMAP
3E
67
C3
C3
03
06
0C
30
60
C0
C8
70
00
00
60
F0
60
ENDCHAR
STARTCHAR at
ENCODING 64
SWIDTH 794 0
DWIDTH 19 0
BBX 17 17 1 0
BITMAP
03F800
0E0E00
180300
300100
60F980
431880
C61880
C61880
CC3180
CC3100
CC7300
CCB600
471C00
600000
300000
1C0C00
07F800
ENDCHAR
STARTCHAR A
ENCODING 65
SWIDTH 624 0
DWIDTH 16 0
BBX 17 17 -2 0
BITMAP
001800
003800
003800
007800
007800
00B800
009C00
011C00
011C00
021C00
07FC00
041C00
080E00
080E00
100E00
300E00
FC3F80
ENDCHAR
STARTCHAR B
ENCODING 66
SWIDTH 632 0
DWIDTH 16 0
BBX 16 17 -1 0
BITMAP
1FFC
078E
0707
0707
0707
0E07
0E0E
0E1C
0FF0
0E1C
0E0E
1C0E
1C0E
1C0E
1C1E
3C3C
FFF0
ENDCHAR
STARTCHAR C
ENCODING 67
SWIDTH 661 0
DWIDTH 17 0
BBX 16 17 1 0
BITMAP
03FE
0F07
1C03
3802
7002
7000
7000
E000
E000
E000
E000
E000
E002
7006
700C
381C
0FE0
ENDCHAR
STARTCHAR D
ENCODING 68
SWIDTH 763 0
DWIDTH 19 0
BBX 19 17 -1 0
BITMAP
1FFE00
078380
0701C0
0701C0
0700E0
0E00E0
0E00E0
0E00E0
0E00E0
0E00E0
0E01C0
1C01C0
1C01C0
1C0380
1C0700
3C1E00
FFF800
ENDCHAR
STARTCHAR E
ENCODING 69
SWIDTH 596 0
DWIDTH 15 0
BBX 15 17 -1 0
BITMAP
1FFE
0786
0704
0704
0700
0E00
0E08
0E08
0FF8
0E10
0E10
1C00
1C00
1C04
1C0C
3C18
FFF8
ENDCHAR
STARTCHAR F
ENCODING 70
SWIDTH 571 0
DWIDTH 14 0
BBX 15 17 -1 0
BITMAP
1FFE
0786
0704
0704
0700
0E00
0E08
0E08
0FF8
0E10
0E10
1C00
1C00
1C00
1C00
3C00
FF00
ENDCHAR
STARTCHAR G
ENCODING 71
SWIDTH 709 0
DWIDTH 18 0
BBX 17 17 1 0
BITMAP
03FE00
0F0700
1C0300
380200
700200
700000
700000
E00000
E00000
E00000
E03F80
E00E00
E00E00
701C00
701C00
383C00
0FF000
ENDCHAR
STARTCHAR H
ENCODING 72
SWIDTH 775 0
DWIDTH 19 0
BBX 21 17 -1 0
BITMAP
1FE7F8
0781E0
0701C0
0701C0
0701C0
0E0380
0E0380
0E0380
0FFF80
0E0380
0E0380
1C0700
1C0700
1C0700
1C0700
3C0F00
FE3FC0
ENDCHAR
STARTCHAR I
ENCODING 73
SWIDTH 345 0
DWIDTH 9 0
BBX 11 17 -1 0
BITMAP
1FE0
0780
0700
0700
0700
0E00
0E00
0E00
0E00
0E00
0E00
1C00
1C00
1C00
1C00
3C00
FF00
ENDCHAR
STARTCHAR J
ENCODING 74
SWIDTH 352 0
DWIDTH 8 0
BBX 12 21 -3 -4
BITMAP
0FF0
03C0
0380
0380
0380
0700
0700
0700
0700
0700
0700
0E00
0E00
0E00
0E00
0E00
1C00
1C00
1C00
3800
E000
ENDCHAR
STARTCHAR K
ENCODING 75
SWIDTH 650 0
DWIDTH 16 0
BBX 18 17 -1 0
BITMAP
1FE7C0
078300
070200
070400
070800
0E1000
0E2000
0E4000
0EC000
0FE000
0EF000
1C7800
1C3C00
1C1C00
1C1E00
3C0F00
FF07C0
ENDCHAR
STARTCHAR L
ENCODING 76
SWIDTH 565 0
DWIDTH 14 0
BBX 14 17 -1 0
BITMAP
1FE0
0780
0700
0700
0700
0E00
0E00
0E00
0E00
0E00
0E00
1C00
1C00
1C04
1C0C
3C18
FFF8
ENDCHAR
STARTCHAR M
ENCODING 77
SWIDTH 920 0
DWIDTH 23 0
BBX 25 17 -1 0
BITMAP
1F800F80
07801E00
07801C00
07803C00
05C07C00
05C05C00
0DC09C00
09C1B800
08E13800
08E23800
08E63800
18E43800
10787000
10787000
10707000
3070F000
FC23FC00
ENDCHAR
STARTCHAR N
ENCODING 78
SWIDTH 763 0
DWIDTH 19 0
BBX 21 17 -1 0
BITMAP
1F81F8
078060
07C040
05C040
05E040
04E040
0CF0C0
087080
087880
083880
083C80
181D80
101F00
100F00
100F00
300700
FC0700
ENDCHAR
STARTCHAR O
ENCODING 79
SWIDTH 753 0
DWIDTH 19 0
BBX 17 17 1 0
BITMAP
03F800
0F0E00
1C0700
380700
700380
700380
700380
E00380
E00380
E00380
E00700
E00700
E00700
700E00
701C00
387800
0FE000
ENDCHAR
STARTCHAR P
ENCODING 80
SWIDTH 614 0
DWIDTH 15 0
BBX 16 17 -1 0
BITMAP
1FFC
078E
0707
0707
0707
0E07
0E0E
0E1C
0FF0
0E00
0E00
1C00
1C00
1C00
1C00
3C00
FF00
ENDCHAR
STARTCHAR Q
ENCODING 81
SWIDTH 753 0
DWIDTH 19 0
BBX 17 22 1 -5
BITMAP
03F800
0F0E00
1C0700
380700
700380
700380
700380
E00380
E00380
E00380
E00700
E00700
E00700
700E00
701C00
387800
0FE000
01C000
00E000
00F000
007800
001E00
ENDCHAR
STARTCHAR R
ENCODING 82
SWIDTH 640 0
DWIDTH 16 0
BBX 17 17 -1 0
BITMAP
1FFC00
078E00
070700
070700
070700
0E0700
0E0E00
0E1C00
0FF000
0E3800
0E3C00
1C1C00
1C1C00
1C1C00
1C1E00
3C0E00
FF0F80
ENDCHAR
STARTCHAR S
ENCODING 83
SWIDTH 533 0
DWIDTH 13 0
BBX 13 17 0 0
BITMAP
07F0
1C38
1818
3810
3810
3800
3C00
1F00
0F80
03C0
01E0
00E0
40E0
40E0
C0C0
E1C0
7F00
ENDCHAR
STARTCHAR T
ENCODING 84
SWIDTH 606 0
DWIDTH 15 0
BBX 14 17 1 0
BITMAP
FFFC
C78C
8704
0700
0700
0E00
0E00
0E00
0E00
0E00
0E00
1C00
1C00
1C00
1C00
3C00
FF00
ENDCHAR
STARTCHAR U
ENCODING 85
SWIDTH 794 0
DWIDTH 20 0
BBX 18 17 2 0
BITMAP
FF3FC0
3C0F00
380E00
380E00
380E00
700E00
701C00
701C00
701C00
701C00
E01C00
E03800
E03800
E03800
E07000
70E000
3FC000
ENDCHAR
STARTCHAR V
ENCODING 86
SWIDTH 637 0
DWIDTH 16 0
BBX 17 17 1 0
BITMAP
FE1F80
380600
380400
380800
380800
381000
1C1000
1C2000
1C4000
1C4000
1C8000
1C8000
0F0000
0F0000
0E0000
0E0000
0C0000
ENDCHAR
STARTCHAR W
ENCODING 87
SWIDTH 946 0
DWIDTH 23 0
BBX 24 17 1 0
BITMAP
FE1C3F
381C0C
381C08
383C10
383C10
385C20
385C20
389C40
1C8E40
1D0E80
1D0E80
1E0F00
1E0F00
1C0E00
1C0E00
180C00
180C00
ENDCHAR
STARTCHAR X
ENCODING 88
SWIDTH 632 0
DWIDTH 16 0
BBX 18 17 -1 0
BITMAP
1F8FC0
070700
070600
038C00
038800
01D800
01F000
00E000
00E000
01F000
037000
023800
043800
0C1C00
181C00
380E00
FC3F80
ENDCHAR
STARTCHAR Y
ENCODING 89
SWIDTH 591 0
DWIDTH 15 0
BBX 17 17 0 0
BITMAP
FF1F80
3C0600
1C0C00
1C0800
1C1000
0E3000
0E6000
0E4000
0F8000
078000
070000
070000
0E0000
0E0000
0E0000
1E0000
7F8000
ENDCHAR
STARTCHAR Z
ENCODING 90
SWIDTH 622 0
DWIDTH 16 0
BBX 16 17 0 0
BITMAP
1FFF
180F
101E
103C
0078
0070
00E0
01E0
03C0
0780
0700
0E00
1C00
3C04
780C
F018
FFF8
ENDCHAR
STARTCHAR bracketleft
ENCODING 91
SWIDTH 330 0
DWIDTH 8 0
BBX 8 20 0 -3
BITMAP
0F
0C
0C
08
18
18
18
10
30
30
30
20
60
60
60
40
C0
C0
C0
F0
ENDCHAR
STARTCHAR backslash
ENCODING 92
SWIDTH 390 0
DWIDTH 10 0
BBX 8 17 1 0
BITMAP
C0
C0
60
60
60
30
30
18
18
18
0C
0C
06
06
06
03
03
ENDCHAR
STARTCHAR bracketright
ENCODING 93
SWIDTH 330 0
DWIDTH 8 0
BBX 8 20 0 -3
BITMAP
0F
03
03
03
02
06
06
06
04
0C
0C
0C
08
18
18
18
10
30
30
F0
ENDCHAR
STARTCHAR asciicircum
ENCODING 94
SWIDTH 570 0
DWIDTH 14 0
BBX 10 10 2 7
BITMAP
0C00
0C00
1E00
1E00
3300
3300
6180
6180
C0C0
C0C0
ENDCHAR
STARTCHAR underscore
ENCODING 95
SWIDTH 500 0
DWIDTH 12 0
BBX 12 1 0 -4
BITMAP
FFF0
ENDCHAR
STARTCHAR grave
ENCODING 96
SWIDTH 400 0
DWIDTH 10 0
BBX 6 5 2 14
BITMAP
40
E0
70
18
04
ENDCHAR
STARTCHAR a
ENCODING 97
SWIDTH 561 0
DWIDTH 14 0
BBX 13 13 1 0
BITMAP
0770
1CF0
3870
7870
70E0
F0E0
E0E0
E0E0
E1C0
E1C0
E3C8
65D0
38E0
ENDCHAR
STARTCHAR b
ENCODING 98
SWIDTH 559 0
DWIDTH 14 0
BBX 12 19 1 0
BITMAP
1C00
7C00
1C00
1C00
3800
3800
39C0
3A60
3C70
7870
7070
7070
7070
70F0
60E0
E1E0
E1C0
F380
EE00
ENDCHAR
STARTCHAR c
ENCODING 99
SWIDTH 441 0
DWIDTH 12 0
BBX 11 13 1 0
BITMAP
07C0
1CE0
3860
7840
7000
F000
E000
E000
E000
E000
E080
7100
3E00
ENDCHAR
STARTCHAR d
ENCODING 100
SWIDTH 587 0
DWIDTH 14 0
BBX 13 19 1 0
BITMAP
0038
00F8
0038
0038
0038
0070
07F0
1C70
3870
7870
70E0
F0E0
E0E0
E0E0
E1C0
E1C0
E3C8
65D0
38E0
ENDCHAR
STARTCHAR e
ENCODING 101
SWIDTH 453 0
DWIDTH 12 0
BBX 11 13 1 0
BITMAP
07C0
1CE0
38E0
78E0
71C0
F180
E600
F800
E000
E000
E080
7100
3E00
ENDCHAR
STARTCHAR f
ENCODING 102
SWIDTH 315 0
DWIDTH 8 0
BBX 14 24 -3 -5
BITMAP
0038
005C
00C8
01C0
01C0
01C0
07F0
0380
0380
0380
0380
0700
0700
0700
0700
0700
0E00
0E00
0E00
0E00
0E00
4C00
E800
7000
ENDCHAR
STARTCHAR g
ENCODING 103
SWIDTH 499 0
DWIDTH 13 0
BBX 14 18 -1 -5
BITMAP
03EC
0678
0C38
1C38
1C38
1C30
0E60
07C0
0C00
1C00
1F00
1FE0
31F0
6070
E070
E060
F0C0
3F00
ENDCHAR
STARTCHAR h
ENCODING 104
SWIDTH 607 0
DWIDTH 15 0
BBX 14 19 1 0
BITMAP
1C00
7C00
1C00
1C00
1C00
3800
3870
38B8
3938
3A38
7438
7870
7070
7070
7070
E0E0
E0E4
E0E8
E070
ENDCHAR
STARTCHAR i
ENCODING 105
SWIDTH 317 0
DWIDTH 7 0
BBX 6 18 1 0
BITMAP
18
3C
18
00
00
38
F8
38
38
70
70
70
70
E0
E0
E4
E8
70
ENDCHAR
STARTCHAR j
ENCODING 106
SWIDTH 309 0
DWIDTH 7 0
BBX 10 23 -3 -5
BITMAP
0180
03C0
0180
0000
0000
0380
0F80
0380
0380
0380
0700
0700
0700
0700
0700
0E00
0E00
0E00
0E00
0E00
4C00
E800
7000
ENDCHAR
STARTCHAR k
ENCODING 107
SWIDTH 545 0
DWIDTH 14 0
BBX 13 19 1 0
BITMAP
1C00
7C00
1C00
1C00
1C00
3800
3810
3838
3870
3880
7100
7300
7F00
7780
7380
E1C0
E1E8
E0F0
E060
ENDCHAR
STARTCHAR l
ENCODING 108
SWIDTH 306 0
DWIDTH 7 0
BBX 6 19 1 0
BITMAP
1C
7C
1C
1C
38
38
38
38
38
70
70
70
70
70
E0
E0
E4
E8
70
ENDCHAR
STARTCHAR m
ENCODING 109
SWIDTH 912 0
DWIDTH 23 0
BBX 22 13 1 0
BITMAP
387070
F8B8B8
393938
3A3A38
743C38
783870
707070
707070
707070
E0E0E0
E0E0E4
E0E0E8
E0E070
ENDCHAR
STARTCHAR n
ENCODING 110
SWIDTH 618 0
DWIDTH 15 0
BBX 14 13 1 0
BITMAP
3870
F8B8
3938
3A38
7438
7870
7070
7070
7070
E0E0
E0E4
E0E8
E070
ENDCHAR
STARTCHAR o
ENCODING 111
SWIDTH 537 0
DWIDTH 14 0
BBX 12 13 1 0
BITMAP
07C0
1CE0
3870
7870
7070
F070
E070
E0F0
E0E0
E1E0
E1C0
7380
3E00
ENDCHAR
STARTCHAR p
ENCODING 112
SWIDTH 590 0
DWIDTH 14 0
BBX 13 18 0 -5
BITMAP
1CE0
7D30
1E38
1C38
3838
3838
3838
3878
3870
70F0
70E0
79C0
7700
7000
E000
E000
E000
E000
ENDCHAR
STARTCHAR q
ENCODING 113
SWIDTH 559 0
DWIDTH 14 0
BBX 12 19 1 -5
BITMAP
0010
0730
1CF0
3870
7870
70E0
F0E0
E0E0
E0E0
E0E0
E1C0
E3C0
65C0
39C0
01C0
0380
0380
0380
0380
ENDCHAR
STARTCHAR r
ENCODING 114
SWIDTH 402 0
DWIDTH 10 0
BBX 10 13 1 0
BITMAP
3980
FBC0
3F80
3800
3800
7000
7000
7000
7000
E000
E000
E000
E000
ENDCHAR
STARTCHAR s
ENCODING 115
SWIDTH 389 0
DWIDTH 10 0
BBX 10 13 0 0
BITMAP
0F80
19C0
30C0
3000
3800
3C00
1E00
0F00
0700
0300
C300
E600
7C00
ENDCHAR
STARTCHAR t
ENCODING 116
SWIDTH 341 0
DWIDTH 9 0
BBX 8 16 2 0
BITMAP
08
18
38
FF
38
38
70
70
70
70
70
E0
E2
E4
E8
70
ENDCHAR
STARTCHAR u
ENCODING 117
SWIDTH 618 0
DWIDTH 15 0
BBX 14 13 1 0
BITMAP
3838
F838
3838
3838
7070
7070
7070
70F0
E170
E2E4
E4E4
E8E8
7070
ENDCHAR
STARTCHAR v
ENCODING 118
SWIDTH 510 0
DWIDTH 13 0
BBX 12 13 1 0
BITMAP
3830
F870
3830
3830
7060
7060
7060
70C0
E080
E100
E200
E400
7800
ENDCHAR
STARTCHAR w
ENCODING 119
SWIDTH 785 0
DWIDTH 20 0
BBX 19 13 1 0
BITMAP
387060
F870E0
387060
387060
70E0C0
70E0C0
70E0C0
70E180
E0C100
E1C200
E2C400
E4C800
787000
ENDCHAR
STARTCHAR x
ENCODING 120
SWIDTH 516 0
DWIDTH 13 0
BBX 13 13 0 0
BITMAP
0E18
3E38
0E68
0EC0
0780
0700
0700
0700
0F00
1B80
B390
E3A0
C1C0
ENDCHAR
STARTCHAR y
ENCODING 121
SWIDTH 468 0
DWIDTH 12 0
BBX 14 18 -2 -5
BITMAP
0E0C
3E0C
0E08
0E10
0E10
0720
0720
0740
0740
0780
0780
0700
0700
0600
0600
4400
E800
7000
ENDCHAR
STARTCHAR z
ENCODING 122
SWIDTH 468 0
DWIDTH 12 0
BBX 12 13 0 0
BITMAP
1FF0
1FE0
3040
2080
0100
0200
0400
0800
1000
3C20
7F20
CFC0
C380
ENDCHAR
STARTCHAR braceleft
ENCODING 123
SWIDTH 340 0
DWIDTH 8 0
BBX 8 20 0 -3
BITMAP
07
0C
0C
0C
18
18
18
18
30
E0
20
30
30
30
60
60
60
60
60
38
ENDCHAR
STARTCHAR bar
ENCODING 124
SWIDTH 270 0
DWIDTH 7 0
BBX 2 17 2 0
BITMAP
C0
C0
C0
C0
C0
C0
C0
C0
C0
C0
C0
C0
C0
C0
C0
C0
C0
ENDCHAR
STARTCHAR braceright
ENCODING 125
SWIDTH 340 0
DWIDTH 8 0
BBX 8 20 0 -3
BITMAP
1C
06
06
06
06
0C
0C
0C
04
07
0C
18
18
18
18
30
30
30
30
E0
ENDCHAR
STARTCHAR asciitilde
ENCODING 126
SWIDTH 570 0
DWIDTH 15 0
BBX 11 3 3 5
BITMAP
3820
7FC0
8380
ENDCHAR
STARTCHAR space
ENCODING 160
SWIDTH 225 0
DWIDTH 5 0
BBX 0 0 0 0
BITMAP
ENDCHAR
STARTCHAR exclamdown
ENCODING 161
SWIDTH 240 0
DWIDTH 6 0
BBX 6 17 0 -4
BITMAP
18
3C
18
00
00
00
10
10
30
30
30
70
60
60
E0
E0
E0
ENDCHAR
STARTCHAR cent
ENCODING 162
SWIDTH 530 0
DWIDTH 13 0
BBX 12 17 0 0
BITMAP
0080
0080
07E0
1D70
3930
7100
7200
E200
E200
E200
E400
E420
E440
7580
3E00
0800
0800
ENDCHAR
STARTCHAR sterling
ENCODING 163
SWIDTH 530 0
DWIDTH 13 0
BBX 12 17 0 0
BITMAP
01E0
0670
0C30
1C00
1C00
1C00
1C00
0E00
0E00
3FC0
0E00
0E00
0C00
1810
3030
7FE0
FFE0
ENDCHAR
STARTCHAR currency
ENCODING 164
SWIDTH 530 0
DWIDTH 13 0
BBX 11 13 1 2
BITMAP
8020
DF60
71C0
60C0
C060
C060
C060
C060
C060
60C0
71C0
DF60
8020
ENDCHAR
STARTCHAR yen
ENCODING 165
SWIDTH 530 0
DWIDTH 13 0
BBX 14 17 0 0
BITMAP
FE7C
3830
3820
3840
1CC0
1C80
1D00
1F00
7FE0
0E00
0E00
7FC0
1C00
1C00
1C00
3C00
FF00
ENDCHAR
STARTCHAR brokenbar
ENCODING 166
SWIDTH 270 0
DWIDTH 7 0
BBX 2 17 2 0
BITMAP
C0
C0
C0
C0
C0
C0
C0
00
00
00
C0
C0
C0
C0
C0
C0
C0
ENDCHAR
STARTCHAR section
ENCODING 167
SWIDTH 530 0
DWIDTH 13 0
BBX 12 21 0 -4
BITMAP
03E0
0C70
1830
1800
1800
1C00
2E00
4700
41C0
40E0
6060
7020
3820
0E20
0740
0380
0180
0100
C100
E200
7C00
ENDCHAR
STARTCHAR dieresis
ENCODING 168
SWIDTH 400 0
DWIDTH 10 0
BBX 6 2 2 14
BITMAP
CC
CC
ENDCHAR
STARTCHAR copyright
ENCODING 169
SWIDTH 836 0
DWIDTH 21 0
BBX 19 18 1 0
BITMAP
03F800
0E0E00
180300
300180
21F880
630CC0
460440
C60060
C60060
C60060
C60060
460440
630CC0
21F880
300180
180300
0E0E00
03F800
ENDCHAR
STARTCHAR ordfeminine
ENCODING 170
SWIDTH 425 0
DWIDTH 10 0
BBX 9 8 1 8
BITMAP
0F00
3300
6300
6300
C600
CE00
D680
6700
ENDCHAR
STARTCHAR guillemotleft
ENCODING 171
SWIDTH 462 0
DWIDTH 11 0
BBX 10 9 0 2
BITMAP
0840
18C0
3180
6300
C600
C600
6300
3180
1080
ENDCHAR
STARTCHAR logicalnot
ENCODING 172
SWIDTH 570 0
DWIDTH 14 0
BBX 12 7 1 2
BITMAP
FFF0
FFF0
0030
0030
0030
0030
0030
ENDCHAR
STARTCHAR hyphen
ENCODING 173
SWIDTH 392 0
DWIDTH 10 0
BBX 7 2 1 5
BITMAP
7E
FC
ENDCHAR
STARTCHAR registered
ENCODING 174
SWIDTH 836 0
DWIDTH 21 0
BBX 19 18 1 0
BITMAP
03F800
0E0E00
180300
300180
27F080
6318C0
431840
C31860
C33060
C3E060
C33060
431840
6318C0
278C80
300180
180300
0E0E00
03F800
ENDCHAR
STARTCHAR macron
ENCODING 175
SWIDTH 400 0
DWIDTH 10 0
BBX 7 2 1 14
BITMAP
FE
FE
ENDCHAR
STARTCHAR degree
ENCODING 176
SWIDTH 400 0
DWIDTH 10 0
BBX 6 6 2 11
BITMAP
78
CC
84
84
CC
78
ENDCHAR
STARTCHAR plusminus
ENCODING 177
SWIDTH 570 0
DWIDTH 14 0
BBX 12 13 1 0
BITMAP
0600
0600
0600
0600
FFF0
FFF0
0600
0600
0600
0600
0000
FFF0
FFF0
ENDCHAR
STARTCHAR twosuperior
ENCODING 178
SWIDTH 370 0
DWIDTH 10 0
BBX 8 10 1 7
BITMAP
1E
33
63
03
06
1C
30
60
C2
FE
ENDCHAR
STARTCHAR threesuperior
ENCODING 179
SWIDTH 370 0
DWIDTH 10 0
BBX 8 10 1 7
BITMAP
1E
33
03
06
3C
06
06
86
CC
78
ENDCHAR
STARTCHAR acute
ENCODING 180
SWIDTH 400 0
DWIDTH 10 0
BBX 6 5 2 14
BITMAP
08
1C
38
60
80
ENDCHAR
STARTCHAR mu
ENCODING 181
SWIDTH 618 0
DWIDTH 15 0
BBX 15 18 0 -5
BITMAP
1C1C
7C1C
1C1C
1C1C
3838
3838
3838
3878
70B8
7172
7272
7474
7838
6000
E000
E000
E000
4000
ENDCHAR
STARTCHAR paragraph
ENCODING 182
SWIDTH 560 0
DWIDTH 14 0
BBX 13 21 0 -4
BITMAP
0E78
3E60
7E60
7E60
FCC0
FCC0
FCC0
FCC0
F980
7980
3980
0180
0180
0300
0300
0300
0300
0600
0600
0600
1E00
ENDCHAR
STARTCHAR periodcentered
ENCODING 183
SWIDTH 265 0
DWIDTH 7 0
BBX 4 3 1 5
BITMAP
60
F0
60
ENDCHAR
STARTCHAR cedilla
ENCODING 184
SWIDTH 400 0
DWIDTH 10 0
BBX 4 5 2 -5
BITMAP
20
60
30
30
E0
ENDCHAR
STARTCHAR onesuperior
ENCODING 185
SWIDTH 370 0
DWIDTH 10 0
BBX 6 10 2 7
BITMAP
78
18
18
18
18
30
30
30
30
FC
ENDCHAR
STARTCHAR ordmasculine
ENCODING 186
SWIDTH 389 0
DWIDTH 10 0
BBX 8 8 1 8
BITMAP
1C
62
63
C3
C3
C6
46
38
ENDCHAR
STARTCHAR guillemotright
ENCODING 187
SWIDTH 462 0
DWIDTH 11 0
BBX 10 9 0 2
BITMAP
4200
6300
3180
18C0
18C0
3180
6300
C600
8400
ENDCHAR
STARTCHAR onequarter
ENCODING 188
SWIDTH 890 0
DWIDTH 20 0
BBX 17 17 1 0
BITMAP
780300
180200
180400
180800
301800
301000
302000
304600
30C600
FC8D00
011B00
021300
062300
044600
087F80
100600
301F80
ENDCHAR
STARTCHAR onehalf
ENCODING 189
SWIDTH 890 0
DWIDTH 19 0
BBX 17 17 1 0
BITMAP
780300
180200
180400
180800
301800
301000
302000
304F00
30D980
FCB180
010180
020300
060E00
041800
083000
106100
307F00
ENDCHAR
STARTCHAR threequarters
ENCODING 190
SWIDTH 890 0
DWIDTH 20 0
BBX 17 17 1 0
BITMAP
1E0300
330200
030400
060800
3C1800
061000
062000
864600
CCC600
788D00
011B00
021300
062300
044600
087F80
100600
301F80
ENDCHAR
STARTCHAR questiondown
ENCODING 191
SWIDTH 425 0
DWIDTH 11 0
BBX 8 17 1 -4
BITMAP
06
0F
06
00
00
0E
13
03
06
0C
30
60
C0
C3
C3
E6
7C
ENDCHAR
STARTCHAR Agrave
ENCODING 192
SWIDTH 624 0
DWIDTH 16 0
BBX 17 21 -2 0
BITMAP
004000
00E000
007000
001800
000400
000000
001800
001800
003800
007800
007800
009C00
011C00
011C00
021C00
07FC00
040E00
080E00
100E00
300E00
FC3F80
ENDCHAR
STARTCHAR Aacute
ENCODING 193
SWIDTH 624 0
DWIDTH 16 0
BBX 17 21 -2 0
BITMAP
000200
000700
000E00
001800
002000
000000
001800
001800
003800
007800
007800
009C00
011C00
011C00
021C00
07FC00
040E00
080E00
100E00
300E00
FC3F80
ENDCHAR
STARTCHAR Acircumflex
ENCODING 194
SWIDTH 624 0
DWIDTH 16 0
BBX 17 20 -2 0
BITMAP
001000
003800
006C00
00C600
000000
001800
001800
003800
007800
007800
009C00
011C00
011C00
021C00
07FC00
040E00
080E00
100E00
300E00
FC3F80
ENDCHAR
STARTCHAR Atilde
ENCODING 195
SWIDTH 624 0
DWIDTH 16 0
BBX 17 19 -2 0
BITMAP
006100
00FE00
010C00
000000
001800
001800
003800
007800
007800
009C00
011C00
011C00
021C00
07FC00
040E00
080E00
100E00
300E00
FC3F80
ENDCHAR
STARTCHAR Adieresis
ENCODING 196
SWIDTH 624 0
DWIDTH 16 0
BBX 17 18 -2 0
BITMAP
006600
006600
000000
001800
001800
003800
007800
007800
009C00
011C00
011C00
021C00
07FC00
040E00
080E00
100E00
300E00
FC3F80
ENDCHAR
STARTCHAR Aring
ENCODING 197
SWIDTH 624 0
DWIDTH 16 0
BBX 17 21 -2 0
BITMAP
001C00
003200
002200
002600
001C00
000000
001800
001800
003800
007800
007800
009C00
011C00
011C00
021C00
07FC00
040E00
080E00
100E00
300E00
FC3F80
ENDCHAR
STARTCHAR AE
ENCODING 198
SWIDTH 880 0
DWIDTH 22 0
BBX 23 17 -2 0
BITMAP
003FFE
000F86
001704
003704
002700
004E00
00CE08
008E08
010FF8
030E10
03FE10
041C00
0C1C00
081C04
101C0C
303C18
FCFFF8
ENDCHAR
STARTCHAR Ccedilla
ENCODING 199
SWIDTH 661 0
DWIDTH 17 0
BBX 16 22 1 -5
BITMAP
03FE
0F07
1C03
3802
7002
7000
7000
E000
E000
E000
E000
E000
E002
7006
700C
381C
0FE0
0200
0600
0300
0300
0E00
ENDCHAR
STARTCHAR Egrave
ENCODING 200
SWIDTH 596 0
DWIDTH 15 0
BBX 15 21 -1 0
BITMAP
0100
0380
01C0
0060
0010
0000
1FFE
0786
0704
0704
0E00
0E08
0E08
0FF8
0E10
0E10
1C00
1C04
1C0C
3C18
FFF8
ENDCHAR
STARTCHAR Eacute
ENCODING 201
SWIDTH 596 0
DWIDTH 15 0
BBX 15 21 -1 0
BITMAP
0008
001C
0038
0060
0080
0000
1FFE
0786
0704
0704
0E00
0E08
0E08
0FF8
0E10
0E10
1C00
1C04
1C0C
3C18
FFF8
ENDCHAR
STARTCHAR Ecircumflex
ENCODING 202
SWIDTH 596 0
DWIDTH 15 0
BBX 15 20 -1 0
BITMAP
0040
00E0
01B0
0318
0000
1FFE
0786
0704
0704
0E00
0E08
0E08
0FF8
0E10
0E10
1C00
1C04
1C0C
3C18
FFF8
ENDCHAR
STARTCHAR Edieresis
ENCODING 203
SWIDTH 596 0
DWIDTH 15 0
BBX 15 18 -1 0
BITMAP
0330
0330
0000
1FFE
0786
0704
0704
0E00
0E08
0E08
0FF8
0E10
0E10
1C00
1C04
1C0C
3C18
FFF8
ENDCHAR
STARTCHAR Igrave
ENCODING 204
SWIDTH 345 0
DWIDTH 9 0
BBX 11 21 -1 0
BITMAP
0800
1C00
0E00
0300
0080
0000
1FE0
0780
0700
0700
0E00
0E00
0E00
0E00
0E00
0E00
1C00
1C00
1C00
3C00
FF00
ENDCHAR
STARTCHAR Iacute
ENCODING 205
SWIDTH 345 0
DWIDTH 9 0
BBX 12 21 -1 0
BITMAP
0020
0070
00E0
0180
0200
0000
1FE0
0780
0700
0700
0E00
0E00
0E00
0E00
0E00
0E00
1C00
1C00
1C00
3C00
FF00
ENDCHAR
STARTCHAR Icircumflex
ENCODING 206
SWIDTH 345 0
DWIDTH 9 0
BBX 11 20 -1 0
BITMAP
0100
0380
06C0
0C60
0000
1FE0
0780
0700
0700
0E00
0E00
0E00
0E00
0E00
0E00
1C00
1C00
1C00
3C00
FF00
ENDCHAR
STARTCHAR Idieresis
ENCODING 207
SWIDTH 345 0
DWIDTH 9 0
BBX 11 18 -1 0
BITMAP
0660
0660
0000
1FE0
0780
0700
0700
0E00
0E00
0E00
0E00
0E00
0E00
1C00
1C00
1C00
3C00
FF00
ENDCHAR
STARTCHAR Eth
ENCODING 208
SWIDTH 770 0
DWIDTH 19 0
BBX 19 17 -1 0
BITMAP
1FFE00
078380
0701C0
0701C0
0700E0
0E00E0
0E00E0
3FC0E0
0E00E0
0E00E0
0E01C0
1C01C0
1C01C0
1C0380
1C0700
3C1E00
FFF800
ENDCHAR
STARTCHAR Ntilde
ENCODING 209
SWIDTH 763 0
DWIDTH 19 0
BBX 21 19 -1 0
BITMAP
003080
007F00
008600
000000
1F01F8
078060
078040
05C040
05C040
0CE0C0
087080
087080
083880
183980
101D00
100F00
100F00
300700
FC0700
ENDCHAR
STARTCHAR Ograve
ENCODING 210
SWIDTH 753 0
DWIDTH 19 0
BBX 17 21 1 0
BITMAP
008000
01C000
00E000
003000
000800
000000
03F800
0F0E00
1C0700
380700
700380
700380
700380
E00380
E00700
E00700
E00700
700E00
701C00
387800
0FE000
ENDCHAR
STARTCHAR Oacute
ENCODING 211
SWIDTH 753 0
DWIDTH 19 0
BBX 17 21 1 0
BITMAP
001000
003800
007000
00C000
010000
000000
03F800
0F0E00
1C0700
380700
700380
700380
700380
E00380
E00700
E00700
E00700
700E00
701C00
387800
0FE000
ENDCHAR
STARTCHAR Ocircumflex
ENCODING 212
SWIDTH 753 0
DWIDTH 19 0
BBX 17 20 1 0
BITMAP
004000
00E000
01B000
031800
000000
03F800
0F0E00
1C0700
380700
700380
700380
700380
E00380
E00700
E00700
E00700
700E00
701C00
387800
0FE000
ENDCHAR
STARTCHAR Otilde
ENCODING 213
SWIDTH 753 0
DWIDTH 19 0
BBX 17 19 1 0
BITMAP
018400
03F800
043000
000000
03F800
0F0E00
1C0700
380700
700380
700380
700380
E00380
E00700
E00700
E00700
700E00
701C00
387800
0FE000
ENDCHAR
STARTCHAR Odieresis
ENCODING 214
SWIDTH 753 0
DWIDTH 19 0
BBX 17 18 1 0
BITMAP
019800
019800
000000
03F800
0F0E00
1C0700
380700
700380
700380
700380
E00380
E00700
E00700
E00700
700E00
701C00
387800
0FE000
ENDCHAR
STARTCHAR multiply
ENCODING 215
SWIDTH 570 0
DWIDTH 14 0
BBX 12 12 1 1
BITMAP
4020
E070
70E0
39C0
1F80
0E00
0700
1F80
39C0
70E0
E070
4020
ENDCHAR
STARTCHAR Oslash
ENCODING 216
SWIDTH 753 0
DWIDTH 19 0
BBX 17 17 1 0
BITMAP
03F900
0F0E00
1C0700
380F00
701380
702380
702380
E04380
E08380
E10380
E20700
E20700
E40700
780E00
701C00
387800
4FE000
ENDCHAR
STARTCHAR Ugrave
ENCODING 217
SWIDTH 794 0
DWIDTH 20 0
BBX 18 21 2 0
BITMAP
020000
070000
038000
00C000
002000
000000
FF3FC0
3C0F00
380E00
380E00
700E00
701C00
701C00
701C00
701C00
E01C00
E03800
E03800
E07000
70E000
3FC000
ENDCHAR
STARTCHAR Uacute
ENCODING 218
SWIDTH 794 0
DWIDTH 20 0
BBX 18 21 2 0
BITMAP
000800
001C00
003800
006000
008000
000000
FF3FC0
3C0F00
380E00
380E00
700E00
701C00
701C00
701C00
701C00
E01C00
E03800
E03800
E07000
70E000
3FC000
ENDCHAR
STARTCHAR Ucircumflex
ENCODING 219
SWIDTH 794 0
DWIDTH 20 0
BBX 18 20 2 0
BITMAP
004000
00E000
01B000
031800
000000
FF3FC0
3C0F00
380E00
380E00
700E00
701C00
701C00
701C00
701C00
E01C00
E03800
E03800
E07000
70E000
3FC000
ENDCHAR
STARTCHAR Udieresis
ENCODING 220
SWIDTH 794 0
DWIDTH 20 0
BBX 18 18 2 0
BITMAP
019800
019800
000000
FF3FC0
3C0F00
380E00
380E00
700E00
701C00
701C00
701C00
701C00
E01C00
E03800
E03800
E07000
70E000
3FC000
ENDCHAR
STARTCHAR Yacute
ENCODING 221
SWIDTH 591 0
DWIDTH 15 0
BBX 16 21 1 0
BITMAP
0010
0038
0070
00C0
0100
0000
FC3F
300C
3018
1830
1860
18C0
0D80
0F00
0E00
0C00
0C00
1800
1800
3800
FE00
ENDCHAR
STARTCHAR Thorn
ENCODING 222
SWIDTH 604 0
DWIDTH 15 0
BBX 15 17 -1 0
BITMAP
1FE0
0780
0700
07F8
071C
0E0E
0E0E
0E0E
0E0E
0E1C
0E38
1FE0
1C00
1C00
1C00
3C00
FF00
ENDCHAR
STARTCHAR germandbls
ENCODING 223
SWIDTH 577 0
DWIDTH 15 0
BBX 18 24 -3 -5
BITMAP
001F00
006180
00C0C0
01C0C0
01C0C0
01C180
078300
038C00
039800
039800
039C00
071C00
070E00
070E00
070700
070700
0E2700
0E7600
0E3C00
0E0000
0E0000
4C0000
E80000
700000
ENDCHAR
STARTCHAR agrave
ENCODING 224
SWIDTH 561 0
DWIDTH 14 0
BBX 13 19 1 0
BITMAP
0400
0E00
0700
0180
0040
0000
0770
1CF0
3870
7870
70E0
F0E0
E0E0
E0E0
E1C0
E1C0
E3C8
65D0
38E0
ENDCHAR
STARTCHAR aacute
ENCODING 225
SWIDTH 561 0
DWIDTH 14 0
BBX 13 19 1 0
BITMAP
0010
0038
0070
00C0
0100
0000
0770
1CF0
3870
7870
70E0
F0E0
E0E0
E0E0
E1C0
E1C0
E3C8
65D0
38E0
ENDCHAR
STARTCHAR acircumflex
ENCODING 226
SWIDTH 561 0
DWIDTH 14 0
BBX 13 18 1 0
BITMAP
0100
0380
06C0
0C60
0000
0770
1CF0
3870
7870
70E0
F0E0
E0E0
E0E0
E1C0
E1C0
E3C8
65D0
38E0
ENDCHAR
STARTCHAR atilde
ENCODING 227
SWIDTH 561 0
DWIDTH 14 0
BBX 13 17 1 0
BITMAP
0610
0FE0
10C0
0000
0770
1CF0
3870
7870
70E0
F0E0
E0E0
E0E0
E1C0
E1C0
E3C8
65D0
38E0
ENDCHAR
STARTCHAR adieresis
ENCODING 228
SWIDTH 561 0
DWIDTH 14 0
BBX 13 16 1 0
BITMAP
0660
0660
0000
0770
1CF0
3870
7870
70E0
F0E0
E0E0
E0E0
E1C0
E1C0
E3C8
65D0
38E0
ENDCHAR
STARTCHAR aring
ENCODING 229
SWIDTH 561 0
DWIDTH 14 0
BBX 13 19 1 0
BITMAP
01C0
0320
0220
0260
01C0
0000
0770
1CF0
3870
7870
70E0
F0E0
E0E0
E0E0
E1C0
E1C0
E3C8
65D0
38E0
ENDCHAR
STARTCHAR ae
ENCODING 230
SWIDTH 779 0
DWIDTH 20 0
BBX 19 14 1 0
BITMAP
001000
0737C0
1CFCE0
3878E0
7878E0
70F1C0
F0F180
E0E600
E0F800
E1E000
E1E040
E2E080
647100
383E00
ENDCHAR
STARTCHAR ccedilla
ENCODING 231
SWIDTH 441 0
DWIDTH 12 0
BBX 11 18 1 -5
BITMAP
07C0
1CE0
3860
7840
7000
F000
E000
E000
E000
E000
E080
7100
3E00
0800
1800
0C00
0C00
3800
ENDCHAR
STARTCHAR egrave
ENCODING 232
SWIDTH 453 0
DWIDTH 12 0
BBX 11 19 1 0
BITMAP
0800
1C00
0E00
0300
0080
0000
07C0
1CE0
38E0
78E0
71C0
F180
E600
F800
E000
E000
E080
7100
3E00
ENDCHAR
STARTCHAR eacute
ENCODING 233
SWIDTH 453 0
DWIDTH 12 0
BBX 11 19 1 0
BITMAP
0040
00E0
01C0
0300
0400
0000
07C0
1CE0
38E0
78E0
71C0
F180
E600
F800
E000
E000
E080
7100
3E00
ENDCHAR
STARTCHAR ecircumflex
ENCODING 234
SWIDTH 453 0
DWIDTH 12 0
BBX 11 18 1 0
BITMAP
0200
0700
0D80
18C0
0000
07C0
1CE0
38E0
78E0
71C0
F180
E600
F800
E000
E000
E080
7100
3E00
ENDCHAR
STARTCHAR edieresis
ENCODING 235
SWIDTH 453 0
DWIDTH 12 0
BBX 11 16 1 0
BITMAP
0CC0
0CC0
0000
07C0
1CE0
38E0
78E0
71C0
F180
E600
F800
E000
E000
E080
7100
3E00
ENDCHAR
STARTCHAR igrave
ENCODING 236
SWIDTH 317 0
DWIDTH 7 0
BBX 6 19 1 0
BITMAP
40
E0
70
18
04
00
38
F8
38
38
70
70
70
70
E0
E0
E4
E8
70
ENDCHAR
STARTCHAR iacute
ENCODING 237
SWIDTH 317 0
DWIDTH 7 0
BBX 8 19 1 0
BITMAP
02
07
0E
18
20
00
38
F8
38
38
70
70
70
70
E0
E0
E4
E8
70
ENDCHAR
STARTCHAR icircumflex
ENCODING 238
SWIDTH 317 0
DWIDTH 7 0
BBX 7 18 1 0
BITMAP
10
38
6C
C6
00
38
F8
38
38
70
70
70
70
E0
E0
E4
E8
70
ENDCHAR
STARTCHAR idieresis
ENCODING 239
SWIDTH 317 0
DWIDTH 7 0
BBX 7 16 1 0
BITMAP
66
66
00
38
F8
38
38
70
70
70
70
E0
E0
E4
E8
70
ENDCHAR
STARTCHAR eth
ENCODING 240
SWIDTH 537 0
DWIDTH 14 0
BBX 12 19 1 0
BITMAP
0C30
0EC0
0700
1B80
61C0
00E0
07E0
1CF0
3870
7870
7070
F070
E070
E0F0
E0E0
E1E0
E1C0
7380
3E00
ENDCHAR
STARTCHAR ntilde
ENCODING 241
SWIDTH 618 0
DWIDTH 15 0
BBX 14 17 1 0
BITMAP
0610
0FE0
10C0
0000
3870
F8B8
3938
3A38
7438
7870
7070
7070
7070
E0E0
E0E4
E0E8
E070
ENDCHAR
STARTCHAR ograve
ENCODING 242
SWIDTH 537 0
DWIDTH 14 0
BBX 12 19 1 0
BITMAP
0800
1C00
0E00
0300
0080
0000
07C0
1CE0
3870
7870
7070
F070
E070
E0F0
E0E0
E1E0
E1C0
7380
3E00
ENDCHAR
STARTCHAR oacute
ENCODING 243
SWIDTH 537 0
DWIDTH 14 0
BBX 12 19 1 0
BITMAP
0020
0070
00E0
0180
0200
0000
07C0
1CE0
3870
7870
7070
F070
E070
E0F0
E0E0
E1E0
E1C0
7380
3E00
ENDCHAR
STARTCHAR ocircumflex
ENCODING 244
SWIDTH 537 0
DWIDTH 14 0
BBX 12 18 1 0
BITMAP
0100
0380
06C0
0C60
0000
07C0
1CE0
3870
7870
7070
F070
E070
E0F0
E0E0
E1E0
E1C0
7380
3E00
ENDCHAR
STARTCHAR otilde
ENCODING 245
SWIDTH 537 0
DWIDTH 14 0
BBX 12 17 1 0
BITMAP
0610
0FE0
10C0
0000
07C0
1CE0
3870
7870
7070
F070
E070
E0F0
E0E0
E1E0
E1C0
7380
3E00
ENDCHAR
STARTCHAR odieresis
ENCODING 246
SWIDTH 537 0
DWIDTH 14 0
BBX 12 16 1 0
BITMAP
0660
0660
0000
07C0
1CE0
3870
7870
7070
F070
E070
E0F0
E0E0
E1E0
E1C0
7380
3E00
ENDCHAR
STARTCHAR divide
ENCODING 247
SWIDTH 570 0
DWIDTH 14 0
BBX 12 12 1 0
BITMAP
0600
0F00
0600
0000
0000
FFF0
FFF0
0000
0000
0600
0F00
0600
ENDCHAR
STARTCHAR oslash
ENCODING 248
SWIDTH 537 0
DWIDTH 14 0
BBX 14 13 0 0
BITMAP
03E4
0E78
1C38
3C78
38B8
7938
7238
7478
7870
70F0
70E0
79C0
9F00
ENDCHAR
STARTCHAR ugrave
ENCODING 249
SWIDTH 618 0
DWIDTH 15 0
BBX 14 19 1 0
BITMAP
0400
0E00
0700
0180
0040
0000
3838
F838
3838
3838
7070
7070
7070
70F0
E170
E2E4
E4E4
E8E8
7070
ENDCHAR
STARTCHAR uacute
ENCODING 250
SWIDTH 618 0
DWIDTH 15 0
BBX 14 19 1 0
BITMAP
0020
0070
00E0
0180
0200
0000
3838
F838
3838
3838
7070
7070
7070
70F0
E170
E2E4
E4E4
E8E8
7070
ENDCHAR
STARTCHAR ucircumflex
ENCODING 251
SWIDTH 618 0
DWIDTH 15 0
BBX 14 18 1 0
BITMAP
0100
0380
06C0
0C60
0000
3838
F838
3838
3838
7070
7070
7070
70F0
E170
E2E4
E4E4
E8E8
7070
ENDCHAR
STARTCHAR udieresis
ENCODING 252
SWIDTH 618 0
DWIDTH 15 0
BBX 14 16 1 0
BITMAP
0660
0660
0000
3838
F838
3838
3838
7070
7070
7070
70F0
E170
E2E4
E4E4
E8E8
7070
ENDCHAR
STARTCHAR yacute
ENCODING 253
SWIDTH 468 0
DWIDTH 12 0
BBX 15 24 -2 -5
BITMAP
0004
000E
001C
0030
0040
0000
0E0C
3E0C
0E08
0E10
0E10
0720
0720
0740
0740
0780
0780
0700
0700
0600
0600
4400
E800
7000
ENDCHAR
STARTCHAR thorn
ENCODING 254
SWIDTH 584 0
DWIDTH 14 0
BBX 13 24 0 -5
BITMAP
0E00
3E00
0E00
0E00
0E00
1C00
1CE0
1D30
1E38
1C38
3838
3838
3838
3878
3870
70F0
70E0
79C0
7700
7000
E000
E000
E000
E000
ENDCHAR
STARTCHAR ydieresis
ENCODING 255
SWIDTH 468 0
DWIDTH 12 0
BBX 14 21 -2 -5
BITMAP
0330
0330
0000
0E0C
3E0C
0E08
0E10
0E10
0720
0720
0740
0740
0780
0780
0700
0700
0600
0600
4400
E800
7000
ENDCHAR
STARTCHAR Amacron
ENCODING 256
SWIDTH 624 0
DWIDTH 16 0
BBX 17 20 -2 0
BITMAP
01FC00
01FC00
000000
001800
003800
003800
007800
007800
00B800
009C00
011C00
011C00
021C00
07FC00
041C00
080E00
080E00
100E00
300E00
FC3F80
ENDCHAR
STARTCHAR amacron
ENCODING 257
SWIDTH 561 0
DWIDTH 14 0
BBX 13 16 1 0
BITMAP
0FE0
0FE0
0000
0770
1CF0
3870
7870
70E0
F0E0
E0E0
E0E0
E1C0
E1C0
E3C8
65D0
38E0
ENDCHAR
STARTCHAR Abreve
ENCODING 258
SWIDTH 624 0
DWIDTH 16 0
BBX 17 21 -2 0
BITMAP
010400
01FC00
00F800
000000
001800
003800
003800
007800
007800
00B800
009C00
011C00
011C00
021C00
07FC00
041C00
080E00
080E00
100E00
300E00
FC3F80
ENDCHAR
STARTCHAR abreve
ENCODING 259
SWIDTH 561 0
DWIDTH 14 0
BBX 13 17 1 0
BITMAP
0820
0FE0
07C0
0000
0770
1CF0
3870
7870
70E0
F0E0
E0E0
E0E0
E1C0
E1C0
E3C8
65D0
38E0
ENDCHAR
STARTCHAR Aogonek
ENCODING 260
SWIDTH 624 0
DWIDTH 16 0
BBX 17 22 -2 -5
BITMAP
001800
003800
003800
007800
007800
00B800
009C00
011C00
011C00
021C00
07FC00
041C00
080E00
080E00
100E00
300E00
FC3F80
006000
00C000
018000
019000
00E000
ENDCHAR
STARTCHAR aogonek
ENCODING 261
SWIDTH 561 0
DWIDTH 14 0
BBX 13 18 1 -5
BITMAP
0770
1CF0
3870
7870
70E0
F0E0
E0E0
E0E0
E1C0
E1C0
E3C8
65D0
38E0
0300
0600
0C00
0C80
0700
ENDCHAR
STARTCHAR Cacute
ENCODING 262
SWIDTH 661 0
DWIDTH 17 0
BBX 16 23 1 0
BITMAP
0020
0070
00E0
0180
0200
0000
03FE
0F07
1C03
3802
7002
7000
7000
E000
E000
E000
E000
E000
E002
7006
700C
381C
0FE0
ENDCHAR
STARTCHAR cacute
ENCODING 263
SWIDTH 441 0
DWIDTH 12 0
BBX 11 19 1 0
BITMAP
0080
01C0
0380
0600
0800
0000
07C0
1CE0
3860
7840
7000
F000
E000
E000
E000
E000
E080
7100
3E00
ENDCHAR
STARTCHAR Ccircumflex
ENCODING 264
SWIDTH 661 0
DWIDTH 17 0
BBX 16 22 1 0
BITMAP
0080
01C0
0360
0630
0000
03FE
0F07
1C03
3802
7002
7000
7000
E000
E000
E000
E000
E000
E002
7006
700C
381C
0FE0
ENDCHAR
STARTCHAR ccircumflex
ENCODING 265
SWIDTH 441 0
DWIDTH 12 0
BBX 11 18 1 0
BITMAP
0200
0700
0D80
18C0
0000
07C0
1CE0
3860
7840
7000
F000
E000
E000
E000
E000
E080
7100
3E00
ENDCHAR
STARTCHAR Cdotaccent
ENCODING 266
SWIDTH 661 0
DWIDTH 17 0
BBX 16 20 1 0
BITMAP
0180
0180
0000
03FE
0F07
1C03
3802
7002
7000
7000
E000
E000
E000
E000
E000
E002
7006
700C
381C
0FE0
ENDCHAR
STARTCHAR cdotaccent
ENCODING 267
SWIDTH 441 0
DWIDTH 12 0
BBX 11 16 1 0
BITMAP
0600
0600
0000
07C0
1CE0
3860
7840
7000
F000
E000
E000
E000
E000
E080
7100
3E00
ENDCHAR
STARTCHAR Ccaron
ENCODING 268
SWIDTH 661 0
DWIDTH 17 0
BBX 16 22 1 0
BITMAP
0630
0360
01C0
0080
0000
03FE
0F07
1C03
3802
7002
7000
7000
E000
E000
E000
E000
E000
E002
7006
700C
381C
0FE0
ENDCHAR
STARTCHAR ccaron
ENCODING 269
SWIDTH 441 0
DWIDTH 12 0
BBX 11 18 1 0
BITMAP
18C0
0D80
0700
0200
0000
07C0
1CE0
3860
7840
7000
F000
E000
E000
E000
E000
E080
7100
3E00
ENDCHAR
STARTCHAR Dcaron
ENCODING 270
SWIDTH 763 0
DWIDTH 19 0
BBX 19 22 -1 0
BITMAP
018C00
00D800
007000
002000
000000
1FFE00
078380
0701C0
0701C0
0700E0
0E00E0
0E00E0
0E00E0
0E00E0
0E00E0
0E01C0
1C01C0
1C01C0
1C0380
1C0700
3C1E00
FFF800
ENDCHAR
STARTCHAR dcaron
ENCODING 271
SWIDTH 774 0
DWIDTH 18 0
BBX 17 19 1 0
BITMAP
003800
00F800
003B00
003F80
003B00
007200
07F400
1C7800
387000
787000
70E000
F0E000
E0E000
E0E000
E1C000
E1C000
E3C800
65D000
38E000
ENDCHAR
STARTCHAR Dcroat
ENCODING 272
SWIDTH 770 0
DWIDTH 19 0
BBX 19 17 -1 0
BITMAP
1FFE00
078380
0701C0
0701C0
0700E0
0E00E0
0E00E0
3FC0E0
0E00E0
0E00E0
0E01C0
1C01C0
1C01C0
1C0380
1C0700
3C1E00
FFF800
ENDCHAR
STARTCHAR dcroat
ENCODING 273
SWIDTH 587 0
DWIDTH 14 0
BBX 15 19 1 0
BITMAP
0038
00F8
0038
0038
0038
0FFE
07F0
1C70
3870
7870
70E0
F0E0
E0E0
E0E0
E1C0
E1C0
E3C8
65D0
38E0
ENDCHAR
STARTCHAR Emacron
ENCODING 274
SWIDTH 596 0
DWIDTH 15 0
BBX 15 20 -1 0
BITMAP
07F0
07F0
0000
1FFE
0786
0704
0704
0700
0E00
0E08
0E08
0FF8
0E10
0E10
1C00
1C00
1C04
1C0C
3C18
FFF8
ENDCHAR
STARTCHAR emacron
ENCODING 275
SWIDTH 453 0
DWIDTH 12 0
BBX 11 16 1 0
BITMAP
1FC0
1FC0
0000
07C0
1CE0
38E0
78E0
71C0
F180
E600
F800
E000
E000
E080
7100
3E00
ENDCHAR
STARTCHAR Ebreve
ENCODING 276
SWIDTH 596 0
DWIDTH 15 0
BBX 15 21 -1 0
BITMAP
0410
07F0
03E0
0000
1FFE
0786
0704
0704
0700
0E00
0E08
0E08
0FF8
0E10
0E10
1C00
1C00
1C04
1C0C
3C18
FFF8
ENDCHAR
STARTCHAR ebreve
ENCODING 277
SWIDTH 453 0
DWIDTH 12 0
BBX 11 17 1 0
BITMAP
1040
1FC0
0F80
0000
07C0
1CE0
38E0
78E0
71C0
F180
E600
F800
E000
E000
E080
7100
3E00
ENDCHAR
STARTCHAR Edotaccent
ENCODING 278
SWIDTH 596 0
DWIDTH 15 0
BBX 15 20 -1 0
BITMAP
0180
0180
0000
1FFE
0786
0704
0704
0700
0E00
0E08
0E08
0FF8
0E10
0E10
1C00
1C00
1C04
1C0C
3C18
FFF8
ENDCHAR
STARTCHAR edotaccent
ENCODING 279
SWIDTH 453 0
DWIDTH 12 0
BBX 11 16 1 0
BITMAP
0600
0600
0000
07C0
1CE0
38E0
78E0
71C0
F180
E600
F800
E000
E000
E080
7100
3E00
ENDCHAR
STARTCHAR Eogonek
ENCODING 280
SWIDTH 596 0
DWIDTH 15 0
BBX 15 22 -1 -5
BITMAP
1FFE
0786
0704
0704
0700
0E00
0E08
0E08
0FF8
0E10
0E10
1C00
1C00
1C04
1C0C
3C18
FFF8
0300
0600
0C00
0C80
0700
ENDCHAR
STARTCHAR eogonek
ENCODING 281
SWIDTH 453 0
DWIDTH 12 0
BBX 11 18 1 -5
BITMAP
07C0
1CE0
38E0
78E0
71C0
F180
E600
F800
E000
E000
E080
7100
3E00
0C00
1800
3000
3200
1C00
ENDCHAR
STARTCHAR Ecaron
ENCODING 282
SWIDTH 596 0
DWIDTH 15 0
BBX 15 22 -1 0
BITMAP
0630
0360
01C0
0080
0000
1FFE
0786
0704
0704
0700
0E00
0E08
0E08
0FF8
0E10
0E10
1C00
1C00
1C04
1C0C
3C18
FFF8
ENDCHAR
STARTCHAR ecaron
ENCODING 283
SWIDTH 453 0
DWIDTH 12 0
BBX 11 18 1 0
BITMAP
18C0
0D80
0700
0200
0000
07C0
1CE0
38E0
78E0
71C0
F180
E600
F800
E000
E000
E080
7100
3E00
ENDCHAR
STARTCHAR Gcircumflex
ENCODING 284
SWIDTH 709 0
DWIDTH 18 0
BBX 17 22 1 0
BITMAP
008000
01C000
036000
063000
000000
03FE00
0F0700
1C0300
380200
700200
700000
700000
E00000
E00000
E00000
E03F80
E00E00
E00E00
701C00
701C00
383C00
0FF000
ENDCHAR
STARTCHAR gcircumflex
ENCODING 285
SWIDTH 499 0
DWIDTH 13 0
BBX 14 23 -1 -5
BITMAP
0080
01C0
0360
0630
0000
03EC
0678
0C38
1C38
1C38
1C30
0E60
07C0
0C00
1C00
1F00
1FE0
31F0
6070
E070
E060
F0C0
3F00
ENDCHAR
STARTCHAR Gbreve
ENCODING 286
SWIDTH 709 0
DWIDTH 18 0
BBX 17 21 1 0
BITMAP
041000
07F000
03E000
000000
03FE00
0F0700
1C0300
380200
700200
700000
700000
E00000
E00000
E00000
E03F80
E00E00
E00E00
701C00
701C00
383C00
0FF000
ENDCHAR
STARTCHAR gbreve
ENCODING 287
SWIDTH 499 0
DWIDTH 13 0
BBX 14 22 -1 -5
BITMAP
0410
07F0
03E0
0000
03EC
0678
0C38
1C38
1C38
1C30
0E60
07C0
0C00
1C00
1F00
1FE0
31F0
6070
E070
E060
F0C0
3F00
ENDCHAR
STARTCHAR Gdotaccent
ENCODING 288
SWIDTH 709 0
DWIDTH 18 0
BBX 17 20 1 0
BITMAP
00C000
00C000
000000
03FE00
0F0700
1C0300
380200
700200
700000
700000
E00000
E00000
E00000
E03F80
E00E00
E00E00
701C00
701C00
383C00
0FF000
ENDCHAR
STARTCHAR gdotaccent
ENCODING 289
SWIDTH 499 0
DWIDTH 13 0
BBX 14 21 -1 -5
BITMAP
0180
0180
0000
03EC
0678
0C38
1C38
1C38
1C30
0E60
07C0
0C00
1C00
1F00
1FE0
31F0
6070
E070
E060
F0C0
3F00
ENDCHAR
STARTCHAR Gcommaaccent
ENCODING 290
SWIDTH 709 0
DWIDTH 18 0
BBX 17 24 1 -7
BITMAP
03FE00
0F0700
1C0300
380200
700200
700000
700000
E00000
E00000
E00000
E03F80
E00E00
E00E00
701C00
701C00
383C00
0FF000
000000
018000
03C000
018000
010000
020000
040000
ENDCHAR
STARTCHAR gcommaaccent
ENCODING 291
SWIDTH 499 0
DWIDTH 13 0
BBX 14 25 -1 -5
BITMAP
0020
0040
0080
0180
03C0
0180
0000
03EC
0678
0C38
1C38
1C38
1C30
0E60
07C0
0C00
1C00
1F00
1FE0
31F0
6070
E070
E060
F0C0
3F00
ENDCHAR
STARTCHAR Hcircumflex
ENCODING 292
SWIDTH 775 0
DWIDTH 19 0
BBX 21 22 -1 0
BITMAP
001000
003800
006C00
00C600
000000
1FE7F8
0781E0
0701C0
0701C0
0701C0
0E0380
0E0380
0E0380
0FFF80
0E0380
0E0380
1C0700
1C0700
1C0700
1C0700
3C0F00
FE3FC0
ENDCHAR
STARTCHAR hcircumflex
ENCODING 293
SWIDTH 607 0
DWIDTH 15 0
BBX 14 24 1 0
BITMAP
0400
0E00
1B00
3180
0000
1C00
7C00
1C00
1C00
1C00
3800
3870
38B8
3938
3A38
7438
7870
7070
7070
7070
E0E0
E0E4
E0E8
E070
ENDCHAR
STARTCHAR Hbar
ENCODING 294
SWIDTH 775 0
DWIDTH 19 0
BBX 21 17 -1 0
BITMAP
1FE7F8
0781E0
0701C0
0701C0
FFFFF8
0E0380
0E0380
0E0380
0FFF80
0E0380
0E0380
1C0700
1C0700
1C0700
1C0700
3C0F00
FE3FC0
ENDCHAR
STARTCHAR hbar
ENCODING 295
SWIDTH 607 0
DWIDTH 15 0
BBX 15 19 0 0
BITMAP
0E00
3E00
0E00
0E00
0E00
FFE0
1C38
1C5C
1C9C
1D1C
3A1C
3C38
3838
3838
3838
7070
7072
7074
7038
ENDCHAR
STARTCHAR Itilde
ENCODING 296
SWIDTH 345 0
DWIDTH 9 0
BBX 11 21 -1 0
BITMAP
0C20
1FC0
2180
0000
1FE0
0780
0700
0700
0700
0E00
0E00
0E00
0E00
0E00
0E00
1C00
1C00
1C00
1C00
3C00
FF00
ENDCHAR
STARTCHAR itilde
ENCODING 297
SWIDTH 317 0
DWIDTH 7 0
BBX 9 17 0 0
BITMAP
3080
7F00
8600
0000
1C00
7C00
1C00
1C00
3800
3800
3800
3800
7000
7000
7200
7400
3800
ENDCHAR
STARTCHAR Imacron
ENCODING 298
SWIDTH 345 0
DWIDTH 9 0
BBX 11 20 -1 0
BITMAP
1FC0
1FC0
0000
1FE0
0780
0700
0700
0700
0E00
0E00
0E00
0E00
0E00
0E00
1C00
1C00
1C00
1C00
3C00
FF00
ENDCHAR
STARTCHAR imacron
ENCODING 299
SWIDTH 317 0
DWIDTH 7 0
BBX 7 16 1 0
BITMAP
FE
FE
00
38
F8
38
38
70
70
70
70
E0
E0
E4
E8
70
ENDCHAR
STARTCHAR Ibreve
ENCODING 300
SWIDTH 345 0
DWIDTH 9 0
BBX 11 21 -1 0
BITMAP
1040
1FC0
0F80
0000
1FE0
0780
0700
0700
0700
0E00
0E00
0E00
0E00
0E00
0E00
1C00
1C00
1C00
1C00
3C00
FF00
ENDCHAR
STARTCHAR ibreve
ENCODING 301
SWIDTH 317 0
DWIDTH 7 0
BBX 7 17 1 0
BITMAP
82
FE
7C
00
38
F8
38
38
70
70
70
70
E0
E0
E4
E8
70
ENDCHAR
STARTCHAR Iogonek
ENCODING 302
SWIDTH 345 0
DWIDTH 9 0
BBX 11 22 -1 -5
BITMAP
1FE0
0780
0700
0700
0700
0E00
0E00
0E00
0E00
0E00
0E00
1C00
1C00
1C00
1C00
3C00
FF00
0C00
1800
3000
3200
1C00
ENDCHAR
STARTCHAR iogonek
ENCODING 303
SWIDTH 317 0
DWIDTH 7 0
BBX 6 23 1 -5
BITMAP
18
3C
18
00
00
38
F8
38
38
70
70
70
70
E0
E0
E4
E8
70
30
60
C0
C8
70
ENDCHAR
STARTCHAR Idotaccent
ENCODING 304
SWIDTH 345 0
DWIDTH 9 0
BBX 11 20 -1 0
BITMAP
0600
0600
0000
1FE0
0780
0700
0700
0700
0E00
0E00
0E00
0E00
0E00
0E00
1C00
1C00
1C00
1C00
3C00
FF00
ENDCHAR
STARTCHAR dotlessi
ENCODING 305
SWIDTH 317 0
DWIDTH 7 0
BBX 6 13 1 0
BITMAP
38
F8
38
38
70
70
70
70
E0
E0
E4
E8
70
ENDCHAR
STARTCHAR IJ
ENCODING 306
SWIDTH 680 0
DWIDTH 17 0
BBX 19 21 -1 -4
BITMAP
1FFFE0
078780
070700
070700
070700
0E0E00
0E0E00
0E0E00
0E0E00
0E0E00
0E0E00
1C1C00
1C1C00
1C1C00
1C1C00
3C1C00
FF3800
003800
003800
007000
01C000
ENDCHAR
STARTCHAR ij
ENCODING 307
SWIDTH 610 0
DWIDTH 14 0
BBX 13 23 1 -5
BITMAP
1830
3C78
1830
0000
0000
3870
F9F0
3870
3870
7070
70E0
70E0
70E0
E0E0
E0E0
E5C0
E9C0
71C0
01C0
01C0
0980
1D00
0E00
ENDCHAR
STARTCHAR Jcircumflex
ENCODING 308
SWIDTH 352 0
DWIDTH 8 0
BBX 12 26 -3 -4
BITMAP
0100
0380
06C0
0C60
0000
0FF0
03C0
0380
0380
0380
0700
0700
0700
0700
0700
0700
0E00
0E00
0E00
0E00
0E00
1C00
1C00
1C00
3800
E000
ENDCHAR
STARTCHAR jcircumflex
ENCODING 309
SWIDTH 309 0
DWIDTH 7 0
BBX 10 23 -3 -5
BITMAP
0200
0700
0D80
18C0
0000
0380
0F80
0380
0380
0380
0700
0700
0700
0700
0700
0E00
0E00
0E00
0E00
0E00
4C00
E800
7000
ENDCHAR
STARTCHAR Kcommaaccent
ENCODING 310
SWIDTH 650 0
DWIDTH 16 0
BBX 18 24 -1 -7
BITMAP
1FE7C0
078300
070200
070400
070800
0E1000
0E2000
0E4000
0EC000
0FE000
0EF000
1C7800
1C3C00
1C1C00
1C1E00
3C0F00
FF07C0
000000
00C000
01E000
00C000
008000
010000
020000
ENDCHAR
STARTCHAR kcommaaccent
ENCODING 311
SWIDTH 545 0
DWIDTH 14 0
BBX 13 26 1 -7
BITMAP
1C00
7C00
1C00
1C00
1C00
3800
3810
3838
3870
3880
7100
7300
7F00
7780
7380
E1C0
E1E8
E0F0
E060
0000
0600
0F00
0600
0400
0800
1000
ENDCHAR
STARTCHAR kgreenlandic
ENCODING 312
SWIDTH 545 0
DWIDTH 14 0
BBX 13 12 1 0
BITMAP
3838
3870
3880
7100
7300
7F00
7780
7380
E1C0
E1E8
E0F0
E060
ENDCHAR
STARTCHAR Lacute
ENCODING 313
SWIDTH 565 0
DWIDTH 14 0
BBX 14 23 -1 0
BITMAP
0040
00E0
01C0
0300
0400
0000
1FE0
0780
0700
0700
0700
0E00
0E00
0E00
0E00
0E00
0E00
1C00
1C00
1C04
1C0C
3C18
FFF8
ENDCHAR
STARTCHAR lacute
ENCODING 314
SWIDTH 306 0
DWIDTH 7 0
BBX 8 25 1 0
BITMAP
02
07
0E
18
20
00
1C
7C
1C
1C
38
38
38
38
38
70
70
70
70
70
E0
E0
E4
E8
70
ENDCHAR
STARTCHAR Lcommaaccent
ENCODING 315
SWIDTH 565 0
DWIDTH 14 0
BBX 14 24 -1 -7
BITMAP
1FE0
0780
0700
0700
0700
0E00
0E00
0E00
0E00
0E00
0E00
1C00
1C00
1C04
1C0C
3C18
FFF8
0000
0300
0780
0300
0200
0400
0800
ENDCHAR
STARTCHAR lcommaaccent
ENCODING 316
SWIDTH 306 0
DWIDTH 7 0
BBX 6 26 1 -7
BITMAP
1C
7C
1C
1C
38
38
38
38
38
70
70
70
70
70
E0
E0
E4
E8
70
00
30
78
30
20
40
80
ENDCHAR
STARTCHAR Lcaron
ENCODING 317
SWIDTH 753 0
DWIDTH 18 0
BBX 19 17 -1 0
BITMAP
1FE0C0
0781E0
0700C0
070080
070100
0E0200
0E0000
0E0000
0E0000
0E0000
0E0000
1C0000
1C0000
1C0400
1C0C00
3C1800
FFF800
ENDCHAR
STARTCHAR lcaron
ENCODING 318
SWIDTH 507 0
DWIDTH 12 0
BBX 11 19 1 0
BITMAP
1C00
7C00
1CC0
1DE0
38C0
3880
3900
3A00
3800
7000
7000
7000
7000
7000
E000
E000
E400
E800
7000
ENDCHAR
STARTCHAR Ldot
ENCODING 319
SWIDTH 802 0
DWIDTH 20 0
BBX 19 17 -1 0
BITMAP
1FE000
078000
070000
070000
070000
0E0000
0E0000
0E0000
0E0000
0E00C0
0E01E0
1C00C0
1C0000
1C0400
1C0C00
3C1800
FFF800
ENDCHAR
STARTCHAR ldot
ENCODING 320
SWIDTH 556 0
DWIDTH 14 0
BBX 11 19 1 0
BITMAP
1C00
7C00
1C00
1C00
3800
3800
3800
3800
3800
7000
7000
70C0
71E0
70C0
E000
E000
E400
E800
7000
ENDCHAR
STARTCHAR Lslash
ENCODING 321
SWIDTH 571 0
DWIDTH 14 0
BBX 14 17 -1 0
BITMAP
1FE0
0780
0700
0700
0760
0780
0E00
0E00
1E00
6E00
0E00
1C00
1C00
1C04
1C0C
3C18
FFF8
ENDCHAR
STARTCHAR lslash
ENCODING 322
SWIDTH 318 0
DWIDTH 7 0
BBX 8 19 0 0
BITMAP
0E
3E
0E
0E
1C
1D
1E
1C
1C
38
78
B8
38
38
70
70
72
74
38
ENDCHAR
STARTCHAR Nacute
ENCODING 323
SWIDTH 763 0
DWIDTH 19 0
BBX 21 23 -1 0
BITMAP
000400
000E00
001C00
003000
004000
000000
1F81F8
078060
07C040
05C040
05E040
04E040
0CF0C0
087080
087880
083880
083C80
181D80
101F00
100F00
100F00
300700
FC0700
ENDCHAR
STARTCHAR nacute
ENCODING 324
SWIDTH 618 0
DWIDTH 15 0
BBX 14 19 1 0
BITMAP
0040
00E0
01C0
0300
0400
0000
3870
F8B8
3938
3A38
7438
7870
7070
7070
7070
E0E0
E0E4
E0E8
E070
ENDCHAR
STARTCHAR Ncommaaccent
ENCODING 325
SWIDTH 763 0
DWIDTH 19 0
BBX 21 24 -1 -7
BITMAP
1F81F8
078060
07C040
05C040
05E040
04E040
0CF0C0
087080
087880
083880
083C80
181D80
101F00
100F00
100F00
300700
FC0700
000000
006000
00F000
006000
004000
008000
010000
ENDCHAR
STARTCHAR ncommaaccent
ENCODING 326
SWIDTH 618 0
DWIDTH 15 0
BBX 14 20 1 -7
BITMAP
3870
F8B8
3938
3A38
7438
7870
7070
7070
7070
E0E0
E0E4
E0E8
E070
0000
0300
0780
0300
0200
0400
0800
ENDCHAR
STARTCHAR Ncaron
ENCODING 327
SWIDTH 763 0
DWIDTH 19 0
BBX 21 22 -1 0
BITMAP
018C00
00D800
007000
002000
000000
1F81F8
078060
07C040
05C040
05E040
04E040
0CF0C0
087080
087880
083880
083C80
181D80
101F00
100F00
100F00
300700
FC0700
ENDCHAR
STARTCHAR ncaron
ENCODING 328
SWIDTH 618 0
DWIDTH 15 0
BBX 14 18 1 0
BITMAP
18C0
0D80
0700
0200
0000
3870
F8B8
3938
3A38
7438
7870
7070
7070
7070
E0E0
E0E4
E0E8
E070
ENDCHAR
STARTCHAR napostrophe
ENCODING 329
SWIDTH 823 0
DWIDTH 20 0
BBX 20 17 0 0
BITMAP
300000
780000
300000
200000
40E1C0
83E2E0
00E4E0
00E8E0
01D0E0
01E1C0
01C1C0
01C1C0
01C1C0
038380
038390
0383A0
0381C0
ENDCHAR
STARTCHAR Eng
ENCODING 330
SWIDTH 763 0
DWIDTH 19 0
BBX 21 22 -1 -5
BITMAP
1F81F8
078060
07C040
05C040
05E040
04E040
0CF0C0
087080
087880
083880
083C80
181D80
101F00
100F00
100F00
300F00
FC0F00
000E00
000E00
004C00
00E800
007000
ENDCHAR
STARTCHAR eng
ENCODING 331
SWIDTH 618 0
DWIDTH 15 0
BBX 13 18 1 -5
BITMAP
3870
F8B8
3938
3A38
7438
7870
7070
7070
7070
E070
E0E0
E0E0
E0E0
00E0
00E0
04C0
0E80
0700
ENDCHAR
STARTCHAR Omacron
ENCODING 332
SWIDTH 753 0
DWIDTH 19 0
BBX 17 20 1 0
BITMAP
03F800
03F800
000000
03F800
0F0E00
1C0700
380700
700380
700380
700380
E00380
E00380
E00380
E00700
E00700
E00700
700E00
701C00
387800
0FE000
ENDCHAR
STARTCHAR omacron
ENCODING 333
SWIDTH 537 0
DWIDTH 14 0
BBX 12 16 1 0
BITMAP
1FC0
1FC0
0000
07C0
1CE0
3870
7870
7070
F070
E070
E0F0
E0E0
E1E0
E1C0
7380
3E00
ENDCHAR
STARTCHAR Obreve
ENCODING 334
SWIDTH 753 0
DWIDTH 19 0
BBX 17 21 1 0
BITMAP
020800
03F800
01F000
000000
03F800
0F0E00
1C0700
380700
700380
700380
700380
E00380
E00380
E00380
E00700
E00700
E00700
700E00
701C00
387800
0FE000
ENDCHAR
STARTCHAR obreve
ENCODING 335
SWIDTH 537 0
DWIDTH 14 0
BBX 12 17 1 0
BITMAP
1040
1FC0
0F80
0000
07C0
1CE0
3870
7870
7070
F070
E070
E0F0
E0E0
E1E0
E1C0
7380
3E00
ENDCHAR
STARTCHAR Ohungarumlaut
ENCODING 336
SWIDTH 753 0
DWIDTH 19 0
BBX 17 23 1 0
BITMAP
019800
019800
033000
033000
022000
000000
03F800
0F0E00
1C0700
380700
700380
700380
700380
E00380
E00380
E00380
E00700
E00700
E00700
700E00
701C00
387800
0FE000
ENDCHAR
STARTCHAR ohungarumlaut
ENCODING 337
SWIDTH 537 0
DWIDTH 14 0
BBX 12 19 1 0
BITMAP
0660
0660
0CC0
0CC0
0880
0000
07C0
1CE0
3870
7870
7070
F070
E070
E0F0
E0E0
E1E0
E1C0
7380
3E00
ENDCHAR
STARTCHAR OE
ENCODING 338
SWIDTH 1020 0
DWIDTH 25 0
BBX 23 17 1 0
BITMAP
03FFFE
0F0786
1C0704
380704
700700
700E00
700E08
E00E08
E00FF8
E00E10
E00E10
E01C00
E01C00
701C04
701C0C
383C18
0FFFF8
ENDCHAR
STARTCHAR oe
ENCODING 339
SWIDTH 806 0
DWIDTH 20 0
BBX 19 13 1 0
BITMAP
07C7C0
1CFCE0
3878E0
7878E0
7071C0
F0F180
E0E600
E0F800
E0E000
E1E040
E1E080
73F100
3E3E00
ENDCHAR
STARTCHAR Racute
ENCODING 340
SWIDTH 640 0
DWIDTH 16 0
BBX 17 23 -1 0
BITMAP
001000
003800
007000
00C000
010000
000000
1FFC00
078E00
070700
070700
070700
0E0700
0E0E00
0E1C00
0FF000
0E3800
0E3C00
1C1C00
1C1C00
1C1C00
1C1E00
3C0E00
FF0F80
ENDCHAR
STARTCHAR racute
ENCODING 341
SWIDTH 402 0
DWIDTH 10 0
BBX 10 19 1 0
BITMAP
0100
0380
0700
0C00
1000
0000
3980
FBC0
3F80
3800
3800
7000
7000
7000
7000
E000
E000
E000
E000
ENDCHAR
STARTCHAR Rcommaaccent
ENCODING 342
SWIDTH 640 0
DWIDTH 16 0
BBX 17 24 -1 -7
BITMAP
1FFC00
078E00
070700
070700
070700
0E0700
0E0E00
0E1C00
0FF000
0E3800
0E3C00
1C1C00
1C1C00
1C1C00
1C1E00
3C0E00
FF0F80
000000
00C000
01E000
00C000
008000
010000
020000
ENDCHAR
STARTCHAR rcommaaccent
ENCODING 343
SWIDTH 402 0
DWIDTH 10 0
BBX 10 20 1 -7
BITMAP
3980
FBC0
3F80
3800
3800
7000
7000
7000
7000
E000
E000
E000
E000
0000
3000
7800
3000
2000
4000
8000
ENDCHAR
STARTCHAR Rcaron
ENCODING 344
SWIDTH 640 0
DWIDTH 16 0
BBX 17 22 -1 0
BITMAP
031800
01B000
00E000
004000
000000
1FFC00
078E00
070700
070700
070700
0E0700
0E0E00
0E1C00
0FF000
0E3800
0E3C00
1C1C00
1C1C00
1C1C00
1C1E00
3C0E00
FF0F80
ENDCHAR
STARTCHAR rcaron
ENCODING 345
SWIDTH 402 0
DWIDTH 10 0
BBX 10 18 1 0
BITMAP
3180
1B00
0E00
0400
0000
3980
FBC0
3F80
3800
3800
7000
7000
7000
7000
E000
E000
E000
E000
ENDCHAR
STARTCHAR Sacute
ENCODING 346
SWIDTH 533 0
DWIDTH 13 0
BBX 13 23 0 0
BITMAP
0040
00E0
01C0
0300
0400
0000
07F0
1C38
1818
3810
3810
3800
3C00
1F00
0F80
03C0
01E0
00E0
40E0
40E0
C0C0
E1C0
7F00
ENDCHAR
STARTCHAR sacute
ENCODING 347
SWIDTH 389 0
DWIDTH 10 0
BBX 10 19 0 0
BITMAP
0080
01C0
0380
0600
0800
0000
0F80
19C0
30C0
3000
3800
3C00
1E00
0F00
0700
0300
C300
E600
7C00
ENDCHAR
STARTCHAR Scircumflex
ENCODING 348
SWIDTH 533 0
DWIDTH 13 0
BBX 13 22 0 0
BITMAP
0100
0380
06C0
0C60
0000
07F0
1C38
1818
3810
3810
3800
3C00
1F00
0F80
03C0
01E0
00E0
40E0
40E0
C0C0
E1C0
7F00
ENDCHAR
STARTCHAR scircumflex
ENCODING 349
SWIDTH 389 0
DWIDTH 10 0
BBX 10 18 0 0
BITMAP
0400
0E00
1B00
3180
0000
0F80
19C0
30C0
3000
3800
3C00
1E00
0F00
0700
0300
C300
E600
7C00
ENDCHAR
STARTCHAR Scedilla
ENCODING 350
SWIDTH 533 0
DWIDTH 13 0
BBX 13 22 0 -5
BITMAP
07F0
1C38
1818
3810
3810
3800
3C00
1F00
0F80
03C0
01E0
00E0
40E0
40E0
C0C0
E1C0
7F00
0200
0600
0300
0300
0E00
ENDCHAR
STARTCHAR scedilla
ENCODING 351
SWIDTH 389 0
DWIDTH 10 0
BBX 10 18 0 -5
BITMAP
0F80
19C0
30C0
3000
3800
3C00
1E00
0F00
0700
0300
C300
E600
7C00
0800
1800
0C00
0C00
3800
ENDCHAR
STARTCHAR Scaron
ENCODING 352
SWIDTH 533 0
DWIDTH 13 0
BBX 13 20 0 0
BITMAP
0630
0360
01C0
0080
0000
07F0
1C38
1818
3810
3810
3C00
1F00
0F80
03C0
01E0
40E0
40E0
C0C0
E1C0
7F00
ENDCHAR
STARTCHAR scaron
ENCODING 353
SWIDTH 389 0
DWIDTH 10 0
BBX 10 18 0 0
BITMAP
18C0
0D80
0700
0200
0000
0F80
19C0
30C0
3000
3800
3C00
1E00
0F00
0700
0300
C300
E600
7C00
ENDCHAR
STARTCHAR Tcommaaccent
ENCODING 354
SWIDTH 606 0
DWIDTH 15 0
BBX 14 22 1 -5
BITMAP
FFFC
C78C
8704
0700
0700
0E00
0E00
0E00
0E00
0E00
0E00
1C00
1C00
1C00
1C00
3C00
FF00
0400
0C00
0600
0600
1C00
ENDCHAR
STARTCHAR tcommaaccent
ENCODING 355
SWIDTH 341 0
DWIDTH 9 0
BBX 8 21 2 -5
BITMAP
08
18
38
FF
38
38
70
70
70
70
70
E0
E2
E4
E8
70
10
30
18
18
70
ENDCHAR
STARTCHAR Tcaron
ENCODING 356
SWIDTH 606 0
DWIDTH 15 0
BBX 14 22 1 0
BITMAP
18C0
0D80
0700
0200
0000
FFFC
C78C
8704
0700
0700
0E00
0E00
0E00
0E00
0E00
0E00
1C00
1C00
1C00
1C00
3C00
FF00
ENDCHAR
STARTCHAR tcaron
ENCODING 357
SWIDTH 540 0
DWIDTH 14 0
BBX 12 17 2 0
BITMAP
0060
08F0
1860
3840
FF80
3900
3800
7000
7000
7000
7000
7000
E000
E200
E400
E800
7000
ENDCHAR
STARTCHAR Tbar
ENCODING 358
SWIDTH 606 0
DWIDTH 15 0
BBX 14 17 1 0
BITMAP
FFFC
C78C
8704
0700
0700
0E00
0E00
0E00
3FF8
0E00
0E00
1C00
1C00
1C00
1C00
3C00
FF00
ENDCHAR
STARTCHAR tbar
ENCODING 359
SWIDTH 341 0
DWIDTH 9 0
BBX 11 16 1 0
BITMAP
0400
0C00
1C00
7F80
1C00
1C00
3800
3800
3800
FFE0
3800
7000
7100
7200
7400
3800
ENDCHAR
STARTCHAR Utilde
ENCODING 360
SWIDTH 794 0
DWIDTH 20 0
BBX 18 21 2 0
BITMAP
018400
03F800
043000
000000
FF3FC0
3C0F00
380E00
380E00
380E00
700E00
701C00
701C00
701C00
701C00
E01C00
E03800
E03800
E03800
E07000
70E000
3FC000
ENDCHAR
STARTCHAR utilde
ENCODING 361
SWIDTH 618 0
DWIDTH 15 0
BBX 14 17 1 0
BITMAP
0610
0FE0
10C0
0000
3838
F838
3838
3838
7070
7070
7070
70F0
E170
E2E4
E4E4
E8E8
7070
ENDCHAR
STARTCHAR Umacron
ENCODING 362
SWIDTH 794 0
DWIDTH 20 0
BBX 18 20 2 0
BITMAP
07F000
07F000
000000
FF3FC0
3C0F00
380E00
380E00
380E00
700E00
701C00
701C00
701C00
701C00
E01C00
E03800
E03800
E03800
E07000
70E000
3FC000
ENDCHAR
STARTCHAR umacron
ENCODING 363
SWIDTH 618 0
DWIDTH 15 0
BBX 14 16 1 0
BITMAP
0FE0
0FE0
0000
3838
F838
3838
3838
7070
7070
7070
70F0
E170
E2E4
E4E4
E8E8
7070
ENDCHAR
STARTCHAR Ubreve
ENCODING 364
SWIDTH 794 0
DWIDTH 20 0
BBX 18 21 2 0
BITMAP
041000
07F000
03E000
000000
FF3FC0
3C0F00
380E00
380E00
380E00
700E00
701C00
701C00
701C00
701C00
E01C00
E03800
E03800
E03800
E07000
70E000
3FC000
ENDCHAR
STARTCHAR ubreve
ENCODING 365
SWIDTH 618 0
DWIDTH 15 0
BBX 14 17 1 0
BITMAP
0820
0FE0
07C0
0000
3838
F838
3838
3838
7070
7070
7070
70F0
E170
E2E4
E4E4
E8E8
7070
ENDCHAR
STARTCHAR Uring
ENCODING 366
SWIDTH 794 0
DWIDTH 20 0
BBX 18 23 2 0
BITMAP
01C000
032000
022000
026000
01C000
000000
FF3FC0
3C0F00
380E00
380E00
380E00
700E00
701C00
701C00
701C00
701C00
E01C00
E03800
E03800
E03800
E07000
70E000
3FC000
ENDCHAR
STARTCHAR uring
ENCODING 367
SWIDTH 618 0
DWIDTH 15 0
BBX 14 19 1 0
BITMAP
0700
0C80
0880
0980
0700
0000
3838
F838
3838
3838
7070
7070
7070
70F0
E170
E2E4
E4E4
E8E8
7070
ENDCHAR
STARTCHAR Uhungarumlaut
ENCODING 368
SWIDTH 794 0
DWIDTH 20 0
BBX 18 23 2 0
BITMAP
019800
019800
033000
033000
022000
000000
FF3FC0
3C0F00
380E00
380E00
380E00
700E00
701C00
701C00
701C00
701C00
E01C00
E03800
E03800
E03800
E07000
70E000
3FC000
ENDCHAR
STARTCHAR uhungarumlaut
ENCODING 369
SWIDTH 618 0
DWIDTH 15 0
BBX 14 19 1 0
BITMAP
0660
0660
0CC0
0CC0
0880
0000
3838
F838
3838
3838
7070
7070
7070
70F0
E170
E2E4
E4E4
E8E8
7070
ENDCHAR
STARTCHAR Uogonek
ENCODING 370
SWIDTH 794 0
DWIDTH 20 0
BBX 18 22 2 -5
BITMAP
FF3FC0
3C0F00
380E00
380E00
380E00
700E00
701C00
701C00
701C00
701C00
E01C00
E03800
E03800
E03800
E07000
70E000
3FC000
018000
030000
060000
064000
038000
ENDCHAR
STARTCHAR uogonek
ENCODING 371
SWIDTH 618 0
DWIDTH 15 0
BBX 14 18 1 -5
BITMAP
3838
F838
3838
3838
7070
7070
7070
70F0
E170
E2E4
E4E4
E8E8
7070
0300
0600
0C00
0C80
0700
ENDCHAR
STARTCHAR Wcircumflex
ENCODING 372
SWIDTH 946 0
DWIDTH 23 0
BBX 24 22 1 0
BITMAP
001000
003800
006C00
00C600
000000
FE1C3F
381C0C
381C08
383C10
383C10
385C20
385C20
389C40
1C8E40
1D0E80
1D0E80
1E0F00
1E0F00
1C0E00
1C0E00
180C00
180C00
ENDCHAR
STARTCHAR wcircumflex
ENCODING 373
SWIDTH 785 0
DWIDTH 20 0
BBX 19 18 1 0
BITMAP
004000
00E000
01B000
031800
000000
387060
F870E0
387060
387060
70E0C0
70E0C0
70E0C0
70E180
E0C100
E1C200
E2C400
E4C800
787000
ENDCHAR
STARTCHAR Ycircumflex
ENCODING 374
SWIDTH 591 0
DWIDTH 15 0
BBX 17 22 0 0
BITMAP
010000
038000
06C000
0C6000
000000
FF1F80
3C0600
1C0C00
1C0800
1C1000
0E3000
0E6000
0E4000
0F8000
078000
070000
070000
0E0000
0E0000
0E0000
1E0000
7F8000
ENDCHAR
STARTCHAR ycircumflex
ENCODING 375
SWIDTH 468 0
DWIDTH 12 0
BBX 14 23 -2 -5
BITMAP
0100
0380
06C0
0C60
0000
0E0C
3E0C
0E08
0E10
0E10
0720
0720
0740
0740
0780
0780
0700
0700
0600
0600
4400
E800
7000
ENDCHAR
STARTCHAR Ydieresis
ENCODING 376
SWIDTH 591 0
DWIDTH 15 0
BBX 17 18 0 0
BITMAP
033000
033000
000000
FF1F80
3C0600
1C0C00
1C1800
0E3000
0E6000
0EC000
078000
070000
070000
0E0000
0E0000
0E0000
1E0000
7F8000
ENDCHAR
STARTCHAR Zacute
ENCODING 377
SWIDTH 622 0
DWIDTH 16 0
BBX 16 23 0 0
BITMAP
0008
001C
0038
0060
0080
0000
1FFF
180F
101E
103C
0078
0070
00E0
01E0
03C0
0780
0700
0E00
1C00
3C04
780C
F018
FFF8
ENDCHAR
STARTCHAR zacute
ENCODING 378
SWIDTH 468 0
DWIDTH 12 0
BBX 12 19 0 0
BITMAP
0040
00E0
01C0
0300
0400
0000
1FF0
1FE0
3040
2080
0100
0200
0400
0800
1000
3C20
7F20
CFC0
C380
ENDCHAR
STARTCHAR Zdotaccent
ENCODING 379
SWIDTH 622 0
DWIDTH 16 0
BBX 16 20 0 0
BITMAP
0060
0060
0000
1FFF
180F
101E
103C
0078
0070
00E0
01E0
03C0
0780
0700
0E00
1C00
3C04
780C
F018
FFF8
ENDCHAR
STARTCHAR zdotaccent
ENCODING 380
SWIDTH 468 0
DWIDTH 12 0
BBX 12 16 0 0
BITMAP
0300
0300
0000
1FF0
1FE0
3040
2080
0100
0200
0400
0800
1000
3C20
7F20
CFC0
C380
ENDCHAR
STARTCHAR Zcaron
ENCODING 381
SWIDTH 622 0
DWIDTH 16 0
BBX 16 20 0 0
BITMAP
0318
01B0
00E0
0040
0000
1FFF
180F
101E
103C
0078
00F0
01E0
03C0
0780
0F00
1E00
3C04
780C
F018
FFF8
ENDCHAR
STARTCHAR zcaron
ENCODING 382
SWIDTH 468 0
DWIDTH 12 0
BBX 12 18 0 0
BITMAP
0C60
06C0
0380
0100
0000
1FF0
1FE0
3040
2080
0100
0200
0400
0800
1000
3C20
7F20
CFC0
C380
ENDCHAR
STARTCHAR uni0186
ENCODING 390
SWIDTH 661 0
DWIDTH 17 0
BBX 16 17 1 0
BITMAP
07F0
381C
300E
600E
4007
0007
0007
0007
0007
0007
000E
000E
400E
401C
C038
E0F0
7FC0
ENDCHAR
STARTCHAR uni0189
ENCODING 393
SWIDTH 770 0
DWIDTH 19 0
BBX 19 17 -1 0
BITMAP
1FFE00
078380
0701C0
0701C0
0700E0
0E00E0
0E00E0
3FC0E0
0E00E0
0E00E0
0E01C0
1C01C0
1C01C0
1C0380
1C0700
3C1E00
FFF800
ENDCHAR
STARTCHAR uni018E
ENCODING 398
SWIDTH 596 0
DWIDTH 15 0
BBX 15 17 -1 0
BITMAP
3FFE
3078
6070
4070
0070
0070
10E0
10E0
3FE0
20E0
20E0
00E0
01C0
41C0
41C0
C3C0
FFF0
ENDCHAR
STARTCHAR florin
ENCODING 402
SWIDTH 530 0
DWIDTH 13 0
BBX 14 21 -1 -4
BITMAP
0078
00DC
01C8
01C0
0380
0380
0380
1FF0
0380
0380
0700
0700
0700
0700
0700
0E00
0E00
0E00
4E00
EC00
7800
ENDCHAR
STARTCHAR uni0197
ENCODING 407
SWIDTH 345 0
DWIDTH 9 0
BBX 11 17 -1 0
BITMAP
1FE0
0780
0700
0700
0700
0E00
0E00
0E00
FFE0
0E00
0E00
1C00
1C00
1C00
1C00
3C00
FF00
ENDCHAR
STARTCHAR uni019A
ENCODING 410
SWIDTH 306 0
DWIDTH 7 0
BBX 11 19 -1 0
BITMAP
0700
1F00
0700
0700
0E00
0E00
0E00
0E00
0E00
FFE0
1C00
1C00
1C00
1C00
3800
3800
3900
3A00
1C00
ENDCHAR
STARTCHAR uni019D
ENCODING 413
SWIDTH 763 0
DWIDTH 19 0
BBX 23 22 -3 -5
BITMAP
07E07E
01E018
01F010
017010
017810
013810
033C30
021C20
021E20
020E20
020F20
060760
0707C0
0703C0
0E03C0
0E01C0
0E01C0
0E0000
0E0000
4C0000
E80000
700000
ENDCHAR
STARTCHAR uni019F
ENCODING 415
SWIDTH 753 0
DWIDTH 19 0
BBX 17 17 1 0
BITMAP
03F800
0F0E00
1C0700
380700
700380
700380
700380
E00380
FFFF80
E00380
E00700
E00700
E00700
700E00
701C00
387800
0FE000
ENDCHAR
STARTCHAR Ohorn
ENCODING 416
SWIDTH 753 0
DWIDTH 19 0
BBX 20 17 1 0
BITMAP
03F860
0F0EF0
1C0760
380740
700380
700380
700380
E00380
E00380
E00380
E00700
E00700
E00700
700E00
701C00
387800
0FE000
ENDCHAR
STARTCHAR ohorn
ENCODING 417
SWIDTH 537 0
DWIDTH 14 0
BBX 16 13 1 0
BITMAP
07C6
1CEF
3876
7874
7078
F070
E070
E0F0
E0E0
E1E0
E1C0
7380
3E00
ENDCHAR
STARTCHAR Uhorn
ENCODING 431
SWIDTH 794 0
DWIDTH 20 0
BBX 21 17 2 0
BITMAP
FF3FF0
3C0F78
380E30
380E20
380E40
700E80
701C00
701C00
701C00
701C00
E01C00
E03800
E03800
E03800
E07000
70E000
3FC000
ENDCHAR
STARTCHAR uhorn
ENCODING 432
SWIDTH 618 0
DWIDTH 15 0
BBX 18 13 1 0
BITMAP
383980
F83BC0
383980
383900
707200
707400
707000
70F000
E17000
E2E400
E4E400
E8E800
707000
ENDCHAR
STARTCHAR uni01B5
ENCODING 437
SWIDTH 622 0
DWIDTH 16 0
BBX 16 17 0 0
BITMAP
1FFF
180F
101E
103C
0078
0070
00E0
01E0
1FFC
0780
0700
0E00
1C00
3C04
780C
F018
FFF8
ENDCHAR
STARTCHAR uni01B6
ENCODING 438
SWIDTH 468 0
DWIDTH 12 0
BBX 12 13 0 0
BITMAP
1FF0
1FE0
3040
2080
0100
0200
7FF0
0800
1000
3C20
7F20
CFC0
C380
ENDCHAR
STARTCHAR uni01BB
ENCODING 443
SWIDTH 530 0
DWIDTH 13 0
BBX 12 17 0 0
BITMAP
07C0
1CE0
3870
3070
0070
0070
0060
00C0
FFF0
0300
0C00
1800
3000
6020
E060
FFC0
FFC0
ENDCHAR
STARTCHAR uni01BC
ENCODING 444
SWIDTH 530 0
DWIDTH 13 0
BBX 12 17 0 0
BITMAP
0FF0
0FE0
0800
1800
1000
3000
3F00
2180
00C0
00E0
00E0
00E0
00E0
01C0
C1C0
E380
7F00
ENDCHAR
STARTCHAR uni01C0
ENCODING 448
SWIDTH 270 0
DWIDTH 7 0
BBX 2 17 2 0
BITMAP
C0
C0
C0
C0
C0
C0
C0
C0
C0
C0
C0
C0
C0
C0
C0
C0
C0
ENDCHAR
STARTCHAR uni01C2
ENCODING 450
SWIDTH 570 0
DWIDTH 14 0
BBX 12 17 1 -3
BITMAP
0600
0600
0600
0600
0600
FFF0
FFF0
0600
0600
0600
FFF0
FFF0
0600
0600
0600
0600
0600
ENDCHAR
STARTCHAR uni01C3
ENCODING 451
SWIDTH 240 0
DWIDTH 6 0
BBX 6 17 0 0
BITMAP
1C
1C
1C
18
18
38
30
30
30
20
20
00
00
00
60
F0
60
ENDCHAR
STARTCHAR uni01CD
ENCODING 461
SWIDTH 624 0
DWIDTH 16 0
BBX 17 22 -2 0
BITMAP
018C00
00D800
007000
002000
000000
001800
003800
003800
007800
007800
00B800
009C00
011C00
011C00
021C00
07FC00
041C00
080E00
080E00
100E00
300E00
FC3F80
ENDCHAR
STARTCHAR uni01CE
ENCODING 462
SWIDTH 561 0
DWIDTH 14 0
BBX 13 18 1 0
BITMAP
0C60
06C0
0380
0100
0000
0770
1CF0
3870
7870
70E0
F0E0
E0E0
E0E0
E1C0
E1C0
E3C8
65D0
38E0
ENDCHAR
STARTCHAR uni01CF
ENCODING 463
SWIDTH 345 0
DWIDTH 9 0
BBX 11 22 -1 0
BITMAP
18C0
0D80
0700
0200
0000
1FE0
0780
0700
0700
0700
0E00
0E00
0E00
0E00
0E00
0E00
1C00
1C00
1C00
1C00
3C00
FF00
ENDCHAR
STARTCHAR uni01D0
ENCODING 464
SWIDTH 317 0
DWIDTH 7 0
BBX 7 18 1 0
BITMAP
C6
6C
38
10
00
38
F8
38
38
70
70
70
70
E0
E0
E4
E8
70
ENDCHAR
STARTCHAR uni01D1
ENCODING 465
SWIDTH 753 0
DWIDTH 19 0
BBX 17 22 1 0
BITMAP
031800
01B000
00E000
004000
000000
03F800
0F0E00
1C0700
380700
700380
700380
700380
E00380
E00380
E00380
E00700
E00700
E00700
700E00
701C00
387800
0FE000
ENDCHAR
STARTCHAR uni01D2
ENCODING 466
SWIDTH 537 0
DWIDTH 14 0
BBX 12 18 1 0
BITMAP
18C0
0D80
0700
0200
0000
07C0
1CE0
3870
7870
7070
F070
E070
E0F0
E0E0
E1E0
E1C0
7380
3E00
ENDCHAR
STARTCHAR uni01D3
ENCODING 467
SWIDTH 794 0
DWIDTH 20 0
BBX 18 22 2 0
BITMAP
063000
036000
01C000
008000
000000
FF3FC0
3C0F00
380E00
380E00
380E00
700E00
701C00
701C00
701C00
701C00
E01C00
E03800
E03800
E03800
E07000
70E000
3FC000
ENDCHAR
STARTCHAR uni01D4
ENCODING 468
SWIDTH 618 0
DWIDTH 15 0
BBX 14 18 1 0
BITMAP
0C60
06C0
0380
0100
0000
3838
F838
3838
3838
7070
7070
7070
70F0
E170
E2E4
E4E4
E8E8
7070
ENDCHAR
STARTCHAR uni01D5
ENCODING 469
SWIDTH 794 0
DWIDTH 20 0
BBX 18 21 2 0
BITMAP
03F800
03F800
000000
019800
019800
000000
FF3FC0
3C0F00
380E00
380E00
700E00
701C00
701C00
701C00
701C00
E01C00
E03800
E03800
E07000
70E000
3FC000
ENDCHAR
STARTCHAR uni01D6
ENCODING 470
SWIDTH 618 0
DWIDTH 15 0
BBX 14 19 1 0
BITMAP
0FE0
0FE0
0000
0660
0660
0000
3838
F838
3838
3838
7070
7070
7070
70F0
E170
E2E4
E4E4
E8E8
7070
ENDCHAR
STARTCHAR uni01D7
ENCODING 471
SWIDTH 794 0
DWIDTH 20 0
BBX 18 24 2 0
BITMAP
001000
003800
007000
00C000
010000
000000
019800
019800
000000
FF3FC0
3C0F00
380E00
380E00
700E00
701C00
701C00
701C00
701C00
E01C00
E03800
E03800
E07000
70E000
3FC000
ENDCHAR
STARTCHAR uni01D8
ENCODING 472
SWIDTH 618 0
DWIDTH 15 0
BBX 14 22 1 0
BITMAP
0040
00E0
01C0
0300
0400
0000
0660
0660
0000
3838
F838
3838
3838
7070
7070
7070
70F0
E170
E2E4
E4E4
E8E8
7070
ENDCHAR
STARTCHAR uni01D9
ENCODING 473
SWIDTH 794 0
DWIDTH 20 0
BBX 18 23 2 0
BITMAP
031800
01B000
00E000
004000
000000
019800
019800
000000
FF3FC0
3C0F00
380E00
380E00
700E00
701C00
701C00
701C00
701C00
E01C00
E03800
E03800
E07000
70E000
3FC000
ENDCHAR
STARTCHAR uni01DA
ENCODING 474
SWIDTH 618 0
DWIDTH 15 0
BBX 14 21 1 0
BITMAP
0C60
06C0
0380
0100
0000
0660
0660
0000
3838
F838
3838
3838
7070
7070
7070
70F0
E170
E2E4
E4E4
E8E8
7070
ENDCHAR
STARTCHAR uni01DB
ENCODING 475
SWIDTH 794 0
DWIDTH 20 0
BBX 18 24 2 0
BITMAP
020000
070000
038000
00C000
002000
000000
019800
019800
000000
FF3FC0
3C0F00
380E00
380E00
700E00
701C00
701C00
701C00
701C00
E01C00
E03800
E03800
E07000
70E000
3FC000
ENDCHAR
STARTCHAR uni01DC
ENCODING 476
SWIDTH 618 0
DWIDTH 15 0
BBX 14 22 1 0
BITMAP
0800
1C00
0E00
0300
0080
0000
0660
0660
0000
3838
F838
3838
3838
7070
7070
7070
70F0
E170
E2E4
E4E4
E8E8
7070
ENDCHAR
STARTCHAR uni01DD
ENCODING 477
SWIDTH 453 0
DWIDTH 12 0
BBX 11 13 1 0
BITMAP
0F80
11C0
20E0
00E0
00E0
03E0
0CE0
31E0
71C0
E3C0
E380
E700
7C00
ENDCHAR
STARTCHAR uni01DE
ENCODING 478
SWIDTH 624 0
DWIDTH 16 0
BBX 17 21 -2 0
BITMAP
01FC00
01FC00
000000
006600
006600
000000
001800
001800
003800
007800
007800
009C00
011C00
011C00
021C00
07FC00
040E00
080E00
100E00
300E00
FC3F80
ENDCHAR
STARTCHAR uni01DF
ENCODING 479
SWIDTH 561 0
DWIDTH 14 0
BBX 13 19 1 0
BITMAP
0FE0
0FE0
0000
0660
0660
0000
0770
1CF0
3870
7870
70E0
F0E0
E0E0
E0E0
E1C0
E1C0
E3C8
65D0
38E0
ENDCHAR
STARTCHAR uni01E0
ENCODING 480
SWIDTH 624 0
DWIDTH 16 0
BBX 17 23 -2 0
BITMAP
01FC00
01FC00
000000
006000
006000
000000
001800
003800
003800
007800
007800
00B800
009C00
011C00
011C00
021C00
07FC00
041C00
080E00
080E00
100E00
300E00
FC3F80
ENDCHAR
STARTCHAR uni01E1
ENCODING 481
SWIDTH 561 0
DWIDTH 14 0
BBX 13 19 1 0
BITMAP
0FE0
0FE0
0000
0300
0300
0000
0770
1CF0
3870
7870
70E0
F0E0
E0E0
E0E0
E1C0
E1C0
E3C8
65D0
38E0
ENDCHAR
STARTCHAR uni01E2
ENCODING 482
SWIDTH 880 0
DWIDTH 22 0
BBX 23 20 -2 0
BITMAP
001FC0
001FC0
000000
003FFE
000F86
001704
003704
002700
004E00
00CE08
008E08
010FF8
030E10
03FE10
041C00
0C1C00
081C04
101C0C
303C18
FCFFF8
ENDCHAR
STARTCHAR uni01E3
ENCODING 483
SWIDTH 779 0
DWIDTH 20 0
BBX 19 17 1 0
BITMAP
01FC00
01FC00
000000
001000
0737C0
1CFCE0
3878E0
7878E0
70F1C0
F0F180
E0E600
E0F800
E1E000
E1E040
E2E080
647100
383E00
ENDCHAR
STARTCHAR uni01E4
ENCODING 484
SWIDTH 709 0
DWIDTH 18 0
BBX 20 17 1 0
BITMAP
03FE00
0F0700
1C0300
380200
700200
700000
700000
E00000
E00000
E00000
E03F80
E00E00
E07FF0
701C00
701C00
383C00
0FF000
ENDCHAR
STARTCHAR uni01E5
ENCODING 485
SWIDTH 499 0
DWIDTH 13 0
BBX 14 18 -1 -5
BITMAP
03EC
0678
0C38
1C38
1C38
1C30
0E60
07C0
0C00
1C00
1F00
1FE0
31F0
FFFC
E070
E060
F0C0
3F00
ENDCHAR
STARTCHAR Gcaron
ENCODING 486
SWIDTH 709 0
DWIDTH 18 0
BBX 17 22 1 0
BITMAP
063000
036000
01C000
008000
000000
03FE00
0F0700
1C0300
380200
700200
700000
700000
E00000
E00000
E00000
E03F80
E00E00
E00E00
701C00
701C00
383C00
0FF000
ENDCHAR
STARTCHAR gcaron
ENCODING 487
SWIDTH 499 0
DWIDTH 13 0
BBX 14 23 -1 -5
BITMAP
0630
0360
01C0
0080
0000
03EC
0678
0C38
1C38
1C38
1C30
0E60
07C0
0C00
1C00
1F00
1FE0
31F0
6070
E070
E060
F0C0
3F00
ENDCHAR
STARTCHAR uni01E8
ENCODING 488
SWIDTH 650 0
DWIDTH 16 0
BBX 18 22 -1 0
BITMAP
031800
01B000
00E000
004000
000000
1FE7C0
078300
070200
070400
070800
0E1000
0E2000
0E4000
0EC000
0FE000
0EF000
1C7800
1C3C00
1C1C00
1C1E00
3C0F00
FF07C0
ENDCHAR
STARTCHAR uni01E9
ENCODING 489
SWIDTH 545 0
DWIDTH 14 0
BBX 13 24 1 0
BITMAP
6300
3600
1C00
0800
0000
1C00
7C00
1C00
1C00
1C00
3800
3810
3838
3870
3880
7100
7300
7F00
7780
7380
E1C0
E1E8
E0F0
E060
ENDCHAR
STARTCHAR uni01EA
ENCODING 490
SWIDTH 753 0
DWIDTH 19 0
BBX 17 22 1 -5
BITMAP
03F800
0F0E00
1C0700
380700
700380
700380
700380
E00380
E00380
E00380
E00700
E00700
E00700
700E00
701C00
387800
0FE000
00C000
018000
030000
032000
01C000
ENDCHAR
STARTCHAR uni01EB
ENCODING 491
SWIDTH 537 0
DWIDTH 14 0
BBX 12 18 1 -5
BITMAP
07C0
1CE0
3870
7870
7070
F070
E070
E0F0
E0E0
E1E0
E1C0
7380
3E00
0600
0C00
1800
1900
0E00
ENDCHAR
STARTCHAR uni01EC
ENCODING 492
SWIDTH 753 0
DWIDTH 19 0
BBX 17 25 1 -5
BITMAP
07F000
07F000
000000
03F800
0F0E00
1C0700
380700
700380
700380
700380
E00380
E00380
E00380
E00700
E00700
E00700
700E00
701C00
387800
0FE000
00C000
018000
030000
032000
01C000
ENDCHAR
STARTCHAR uni01ED
ENCODING 493
SWIDTH 537 0
DWIDTH 14 0
BBX 12 21 1 -5
BITMAP
1FC0
1FC0
0000
07C0
1CE0
3870
7870
7070
F070
E070
E0F0
E0E0
E1E0
E1C0
7380
3E00
0600
0C00
1800
1900
0E00
ENDCHAR
STARTCHAR uni01F0
ENCODING 496
SWIDTH 309 0
DWIDTH 7 0
BBX 10 23 -3 -5
BITMAP
18C0
0D80
0700
0200
0000
0380
0F80
0380
0380
0380
0700
0700
0700
0700
0700
0E00
0E00
0E00
0E00
0E00
4C00
E800
7000
ENDCHAR
STARTCHAR uni01F4
ENCODING 500
SWIDTH 709 0
DWIDTH 18 0
BBX 17 23 1 0
BITMAP
001000
003800
007000
00C000
010000
000000
03FE00
0F0700
1C0300
380200
700200
700000
700000
E00000
E00000
E00000
E03F80
E00E00
E00E00
701C00
701C00
383C00
0FF000
ENDCHAR
STARTCHAR uni01F5
ENCODING 501
SWIDTH 499 0
DWIDTH 13 0
BBX 14 24 -1 -5
BITMAP
0020
0070
00E0
0180
0200
0000
03EC
0678
0C38
1C38
1C38
1C30
0E60
07C0
0C00
1C00
1F00
1FE0
31F0
6070
E070
E060
F0C0
3F00
ENDCHAR
STARTCHAR uni01F8
ENCODING 504
SWIDTH 763 0
DWIDTH 19 0
BBX 21 23 -1 0
BITMAP
008000
01C000
00E000
003000
000800
000000
1F81F8
078060
07C040
05C040
05E040
04E040
0CF0C0
087080
087880
083880
083C80
181D80
101F00
100F00
100F00
300700
FC0700
ENDCHAR
STARTCHAR uni01F9
ENCODING 505
SWIDTH 618 0
DWIDTH 15 0
BBX 14 19 1 0
BITMAP
0800
1C00
0E00
0300
0080
0000
3870
F8B8
3938
3A38
7438
7870
7070
7070
7070
E0E0
E0E4
E0E8
E070
ENDCHAR
STARTCHAR Aringacute
ENCODING 506
SWIDTH 624 0
DWIDTH 16 0
BBX 17 27 -2 0
BITMAP
000400
000E00
001C00
003000
004000
000000
001C00
003200
002200
002600
001C00
000000
001800
001800
003800
007800
007800
009C00
011C00
011C00
021C00
07FC00
040E00
080E00
100E00
300E00
FC3F80
ENDCHAR
STARTCHAR aringacute
ENCODING 507
SWIDTH 561 0
DWIDTH 14 0
BBX 13 25 1 0
BITMAP
0020
0070
00E0
0180
0200
0000
01C0
0320
0220
0260
01C0
0000
0770
1CF0
3870
7870
70E0
F0E0
E0E0
E0E0
E1C0
E1C0
E3C8
65D0
38E0
ENDCHAR
STARTCHAR AEacute
ENCODING 508
SWIDTH 880 0
DWIDTH 22 0
BBX 23 23 -2 0
BITMAP
000080
0001C0
000380
000600
000800
000000
003FFE
000F86
001704
003704
002700
004E00
00CE08
008E08
010FF8
030E10
03FE10
041C00
0C1C00
081C04
101C0C
303C18
FCFFF8
ENDCHAR
STARTCHAR aeacute
ENCODING 509
SWIDTH 779 0
DWIDTH 20 0
BBX 19 20 1 0
BITMAP
000400
000E00
001C00
003000
004000
000000
001000
0737C0
1CFCE0
3878E0
7878E0
70F1C0
F0F180
E0E600
E0F800
E1E000
E1E040
E2E080
647100
383E00
ENDCHAR
STARTCHAR Oslashacute
ENCODING 510
SWIDTH 753 0
DWIDTH 19 0
BBX 17 23 1 0
BITMAP
001000
003800
007000
00C000
010000
000000
03F900
0F0E00
1C0700
380F00
701380
702380
702380
E04380
E08380
E10380
E20700
E20700
E40700
780E00
701C00
387800
4FE000
ENDCHAR
STARTCHAR oslashacute
ENCODING 511
SWIDTH 537 0
DWIDTH 14 0
BBX 14 19 0 0
BITMAP
0020
0070
00E0
0180
0200
0000
03E4
0E78
1C38
3C78
38B8
7938
7238
7478
7870
70F0
70E0
79C0
9F00
ENDCHAR
STARTCHAR Scommaaccent
ENCODING 536
SWIDTH 533 0
DWIDTH 13 0
BBX 13 24 0 -7
BITMAP
07F0
1C38
1818
3810
3810
3800
3C00
1F00
0F80
03C0
01E0
00E0
40E0
40E0
C0C0
E1C0
7F00
0000
0600
0F00
0600
0400
0800
1000
ENDCHAR
STARTCHAR scommaaccent
ENCODING 537
SWIDTH 389 0
DWIDTH 10 0
BBX 10 20 0 -7
BITMAP
0F80
19C0
30C0
3000
3800
3C00
1E00
0F00
0700
0300
C300
E600
7C00
0000
0C00
1E00
0C00
0800
1000
2000
ENDCHAR
STARTCHAR Tcommaaccent
ENCODING 538
SWIDTH 606 0
DWIDTH 15 0
BBX 14 24 1 -7
BITMAP
FFFC
C78C
8704
0700
0700
0E00
0E00
0E00
0E00
0E00
0E00
1C00
1C00
1C00
1C00
3C00
FF00
0000
0C00
1E00
0C00
0800
1000
2000
ENDCHAR
STARTCHAR tcommaaccent
ENCODING 539
SWIDTH 341 0
DWIDTH 9 0
BBX 8 23 2 -7
BITMAP
08
18
38
FF
38
38
70
70
70
70
70
E0
E2
E4
E8
70
00
30
78
30
20
40
80
ENDCHAR
STARTCHAR uni021E
ENCODING 542
SWIDTH 775 0
DWIDTH 19 0
BBX 21 22 -1 0
BITMAP
00C600
006C00
003800
001000
000000
1FE7F8
0781E0
0701C0
0701C0
0701C0
0E0380
0E0380
0E0380
0FFF80
0E0380
0E0380
1C0700
1C0700
1C0700
1C0700
3C0F00
FE3FC0
ENDCHAR
STARTCHAR uni021F
ENCODING 543
SWIDTH 607 0
DWIDTH 15 0
BBX 14 24 1 0
BITMAP
3180
1B00
0E00
0400
0000
1C00
7C00
1C00
1C00
1C00
3800
3870
38B8
3938
3A38
7438
7870
7070
7070
7070
E0E0
E0E4
E0E8
E070
ENDCHAR
STARTCHAR uni0226
ENCODING 550
SWIDTH 624 0
DWIDTH 16 0
BBX 17 20 -2 0
BITMAP
006000
006000
000000
001800
003800
003800
007800
007800
00B800
009C00
011C00
011C00
021C00
07FC00
041C00
080E00
080E00
100E00
300E00
FC3F80
ENDCHAR
STARTCHAR uni0227
ENCODING 551
SWIDTH 561 0
DWIDTH 14 0
BBX 13 16 1 0
BITMAP
0300
0300
0000
0770
1CF0
3870
7870
70E0
F0E0
E0E0
E0E0
E1C0
E1C0
E3C8
65D0
38E0
ENDCHAR
STARTCHAR uni0228
ENCODING 552
SWIDTH 596 0
DWIDTH 15 0
BBX 15 22 -1 -5
BITMAP
1FFE
0786
0704
0704
0700
0E00
0E08
0E08
0FF8
0E10
0E10
1C00
1C00
1C04
1C0C
3C18
FFF8
0100
0300
0180
0180
0700
ENDCHAR
STARTCHAR uni0229
ENCODING 553
SWIDTH 453 0
DWIDTH 12 0
BBX 11 18 1 -5
BITMAP
07C0
1CE0
38E0
78E0
71C0
F180
E600
F800
E000
E000
E080
7100
3E00
0800
1800
0C00
0C00
3800
ENDCHAR
STARTCHAR uni022A
ENCODING 554
SWIDTH 753 0
DWIDTH 19 0
BBX 17 21 1 0
BITMAP
03F800
03F800
000000
019800
019800
000000
03F800
0F0E00
1C0700
380700
700380
700380
700380
E00380
E00700
E00700
E00700
700E00
701C00
387800
0FE000
ENDCHAR
STARTCHAR uni022B
ENCODING 555
SWIDTH 537 0
DWIDTH 14 0
BBX 12 19 1 0
BITMAP
0FE0
0FE0
0000
0660
0660
0000
07C0
1CE0
3870
7870
7070
F070
E070
E0F0
E0E0
E1E0
E1C0
7380
3E00
ENDCHAR
STARTCHAR uni022C
ENCODING 556
SWIDTH 753 0
DWIDTH 19 0
BBX 17 22 1 0
BITMAP
03F800
03F800
000000
018400
03F800
043000
000000
03F800
0F0E00
1C0700
380700
700380
700380
700380
E00380
E00700
E00700
E00700
700E00
701C00
387800
0FE000
ENDCHAR
STARTCHAR uni022D
ENCODING 557
SWIDTH 537 0
DWIDTH 14 0
BBX 12 20 1 0
BITMAP
0FE0
0FE0
0000
0610
0FE0
10C0
0000
07C0
1CE0
3870
7870
7070
F070
E070
E0F0
E0E0
E1E0
E1C0
7380
3E00
ENDCHAR
STARTCHAR uni022E
ENCODING 558
SWIDTH 753 0
DWIDTH 19 0
BBX 17 20 1 0
BITMAP
00C000
00C000
000000
03F800
0F0E00
1C0700
380700
700380
700380
700380
E00380
E00380
E00380
E00700
E00700
E00700
700E00
701C00
387800
0FE000
ENDCHAR
STARTCHAR uni022F
ENCODING 559
SWIDTH 537 0
DWIDTH 14 0
BBX 12 16 1 0
BITMAP
0300
0300
0000
07C0
1CE0
3870
7870
7070
F070
E070
E0F0
E0E0
E1E0
E1C0
7380
3E00
ENDCHAR
STARTCHAR uni0230
ENCODING 560
SWIDTH 753 0
DWIDTH 19 0
BBX 17 23 1 0
BITMAP
03F800
03F800
000000
00C000
00C000
000000
03F800
0F0E00
1C0700
380700
700380
700380
700380
E00380
E00380
E00380
E00700
E00700
E00700
700E00
701C00
387800
0FE000
ENDCHAR
STARTCHAR uni0231
ENCODING 561
SWIDTH 537 0
DWIDTH 14 0
BBX 12 19 1 0
BITMAP
1FC0
1FC0
0000
0300
0300
0000
07C0
1CE0
3870
7870
7070
F070
E070
E0F0
E0E0
E1E0
E1C0
7380
3E00
ENDCHAR
STARTCHAR uni0232
ENCODING 562
SWIDTH 591 0
DWIDTH 15 0
BBX 17 20 0 0
BITMAP
0FE000
0FE000
000000
FF1F80
3C0600
1C0C00
1C0800
1C1000
0E3000
0E6000
0E4000
0F8000
078000
070000
070000
0E0000
0E0000
0E0000
1E0000
7F8000
ENDCHAR
STARTCHAR uni0233
ENCODING 563
SWIDTH 468 0
DWIDTH 12 0
BBX 14 21 -2 -5
BITMAP
0FE0
0FE0
0000
0E0C
3E0C
0E08
0E10
0E10
0720
0720
0740
0740
0780
0780
0700
0700
0600
0600
4400
E800
7000
ENDCHAR
STARTCHAR uni0250
ENCODING 592
SWIDTH 561 0
DWIDTH 14 0
BBX 13 13 1 0
BITMAP
38E0
5D30
9E38
1C38
1C38
3838
3838
3878
3870
70F0
70E0
79C0
7700
ENDCHAR
STARTCHAR uni0259
ENCODING 601
SWIDTH 453 0
DWIDTH 12 0
BBX 11 13 1 0
BITMAP
0F80
11C0
20E0
00E0
00E0
03E0
0CE0
31E0
71C0
E3C0
E380
E700
7C00
ENDCHAR
STARTCHAR uni025F
ENCODING 607
SWIDTH 315 0
DWIDTH 8 0
BBX 14 24 -3 -12
BITMAP
0038
005C
00C8
01C0
01C0
01C0
01C0
01C0
0380
0380
0380
0380
0380
0700
0700
0700
0700
3F80
0E00
0E00
0E00
4C00
E800
7000
ENDCHAR
STARTCHAR uni0265
ENCODING 613
SWIDTH 607 0
DWIDTH 15 0
BBX 14 19 1 -7
BITMAP
381C
5C1C
9C1C
1C1C
3838
3838
3838
3878
70B8
7170
7270
7470
3870
0070
00E0
00E0
00E0
00F8
00E0
ENDCHAR
STARTCHAR uni0275
ENCODING 629
SWIDTH 537 0
DWIDTH 14 0
BBX 12 13 1 0
BITMAP
07C0
1CE0
3870
7870
7070
F070
FFF0
E0F0
E0E0
E1E0
E1C0
7380
3E00
ENDCHAR
STARTCHAR uni0279
ENCODING 633
SWIDTH 402 0
DWIDTH 10 0
BBX 10 13 1 0
BITMAP
01C0
01C0
01C0
01C0
0380
0380
0380
0380
0700
0700
7F00
F7C0
6700
ENDCHAR
STARTCHAR uni0287
ENCODING 647
SWIDTH 341 0
DWIDTH 9 0
BBX 8 16 2 0
BITMAP
0E
17
27
47
07
0E
0E
0E
0E
0E
1C
1C
FF
1C
18
10
ENDCHAR
STARTCHAR uni0289
ENCODING 649
SWIDTH 618 0
DWIDTH 15 0
BBX 14 13 1 0
BITMAP
3838
F838
3838
3838
7070
7070
FFFC
70F0
E170
E2E4
E4E4
E8E8
7070
ENDCHAR
STARTCHAR uni028C
ENCODING 652
SWIDTH 510 0
DWIDTH 13 0
BBX 12 13 1 0
BITMAP
01E0
0270
0470
0870
1070
30E0
60E0
60E0
60E0
C1C0
C1C0
E1F0
C1C0
ENDCHAR
STARTCHAR uni028D
ENCODING 653
SWIDTH 785 0
DWIDTH 20 0
BBX 19 13 1 0
BITMAP
01C3C0
0264E0
0468E0
0870E0
1060E0
30E1C0
60E1C0
60E1C0
60E1C0
C1C380
C1C380
E1C3E0
C1C380
ENDCHAR
STARTCHAR uni028E
ENCODING 654
SWIDTH 468 0
DWIDTH 12 0
BBX 14 18 -2 0
BITMAP
0038
005C
0088
0180
0180
0380
0380
0780
0780
0B80
0B80
1380
1380
21C0
21C0
41C0
C1F0
C1C0
ENDCHAR
STARTCHAR uni029E
ENCODING 670
SWIDTH 545 0
DWIDTH 14 0
BBX 13 19 1 -7
BITMAP
3038
7838
BC38
1C38
0E70
0F70
07F0
0670
0470
08E0
70E0
E0E0
40E0
00E0
01C0
01C0
01C0
01F0
01C0
ENDCHAR
STARTCHAR uni02BB
ENCODING 699
SWIDTH 216 0
DWIDTH 5 0
BBX 5 6 0 11
BITMAP
08
10
20
60
F0
60
ENDCHAR
STARTCHAR afii57929
ENCODING 700
SWIDTH 216 0
DWIDTH 5 0
BBX 5 6 0 11
BITMAP
30
78
30
20
40
80
ENDCHAR
STARTCHAR afii64937
ENCODING 701
SWIDTH 216 0
DWIDTH 5 0
BBX 5 6 0 11
BITMAP
60
F0
60
20
10
08
ENDCHAR
STARTCHAR circumflex
ENCODING 710
SWIDTH 400 0
DWIDTH 10 0
BBX 7 4 2 14
BITMAP
10
38
6C
C6
ENDCHAR
STARTCHAR caron
ENCODING 711
SWIDTH 400 0
DWIDTH 10 0
BBX 7 4 1 14
BITMAP
C6
6C
38
10
ENDCHAR
STARTCHAR uni02C8
ENCODING 712
SWIDTH 216 0
DWIDTH 5 0
BBX 3 7 1 10
BITMAP
60
60
60
C0
C0
80
80
ENDCHAR
STARTCHAR macron
ENCODING 713
SWIDTH 400 0
DWIDTH 10 0
BBX 7 2 1 14
BITMAP
FE
FE
ENDCHAR
STARTCHAR uni02CA
ENCODING 714
SWIDTH 400 0
DWIDTH 10 0
BBX 6 5 2 14
BITMAP
08
1C
38
60
80
ENDCHAR
STARTCHAR uni02CB
ENCODING 715
SWIDTH 400 0
DWIDTH 10 0
BBX 6 5 2 14
BITMAP
40
E0
70
18
04
ENDCHAR
STARTCHAR uni02CD
ENCODING 717
SWIDTH 400 0
DWIDTH 10 0
BBX 7 2 1 -3
BITMAP
FE
FE
ENDCHAR
STARTCHAR uni02CE
ENCODING 718
SWIDTH 400 0
DWIDTH 10 0
BBX 6 5 2 -6
BITMAP
40
E0
70
18
04
ENDCHAR
STARTCHAR uni02CF
ENCODING 719
SWIDTH 400 0
DWIDTH 10 0
BBX 6 5 2 -6
BITMAP
08
1C
38
60
80
ENDCHAR
STARTCHAR breve
ENCODING 728
SWIDTH 400 0
DWIDTH 10 0
BBX 7 3 1 14
BITMAP
82
FE
7C
ENDCHAR
STARTCHAR dotaccent
ENCODING 729
SWIDTH 402 0
DWIDTH 10 0
BBX 2 2 3 14
BITMAP
C0
C0
ENDCHAR
STARTCHAR ring
ENCODING 730
SWIDTH 400 0
DWIDTH 10 0
BBX 5 5 2 14
BITMAP
70
C8
88
98
70
ENDCHAR
STARTCHAR ogonek
ENCODING 731
SWIDTH 350 0
DWIDTH 9 0
BBX 5 5 2 -5
BITMAP
30
60
C0
C8
70
ENDCHAR
STARTCHAR tilde
ENCODING 732
SWIDTH 400 0
DWIDTH 10 0
BBX 9 3 0 14
BITMAP
3080
7F00
8600
ENDCHAR
STARTCHAR hungarumlaut
ENCODING 733
SWIDTH 400 0
DWIDTH 10 0
BBX 7 5 1 14
BITMAP
66
66
CC
CC
88
ENDCHAR
STARTCHAR uni02EE
ENCODING 750
SWIDTH 402 0
DWIDTH 9 0
BBX 9 6 0 11
BITMAP
3300
7F80
3300
2200
4400
8800
ENDCHAR
STARTCHAR uni037E
ENCODING 894
SWIDTH 265 0
DWIDTH 6 0
BBX 7 16 -1 -3
BITMAP
0C
1E
0C
00
00
00
00
00
00
00
30
78
30
20
40
80
ENDCHAR
STARTCHAR tonos
ENCODING 900
SWIDTH 400 0
DWIDTH 10 0
BBX 6 5 2 14
BITMAP
08
1C
38
60
80
ENDCHAR
STARTCHAR dieresistonos
ENCODING 901
SWIDTH 400 0
DWIDTH 10 0
BBX 7 8 2 14
BITMAP
04
0E
1C
30
40
00
CC
CC
ENDCHAR
STARTCHAR anoteleia
ENCODING 903
SWIDTH 265 0
DWIDTH 7 0
BBX 4 3 1 5
BITMAP
60
F0
60
ENDCHAR
STARTCHAR mu
ENCODING 956
SWIDTH 618 0
DWIDTH 15 0
BBX 15 18 0 -5
BITMAP
1C1C
7C1C
1C1C
1C1C
3838
3838
3838
3878
70B8
7172
7272
7474
7838
6000
E000
E000
E000
4000
ENDCHAR
STARTCHAR uni1E00
ENCODING 7680
SWIDTH 624 0
DWIDTH 16 0
BBX 17 23 -2 -6
BITMAP
001800
003800
003800
007800
007800
00B800
009C00
011C00
011C00
021C00
07FC00
041C00
080E00
080E00
100E00
300E00
FC3F80
000000
00E000
019000
011000
013000
00E000
ENDCHAR
STARTCHAR uni1E01
ENCODING 7681
SWIDTH 561 0
DWIDTH 14 0
BBX 13 19 1 -6
BITMAP
0770
1CF0
3870
7870
70E0
F0E0
E0E0
E0E0
E1C0
E1C0
E3C8
65D0
38E0
0000
0700
0C80
0880
0980
0700
ENDCHAR
STARTCHAR uni1E02
ENCODING 7682
SWIDTH 632 0
DWIDTH 16 0
BBX 16 20 -1 0
BITMAP
00C0
00C0
0000
1FFC
078E
0707
0707
0707
0E07
0E0E
0E1C
0FF0
0E1C
0E0E
1C0E
1C0E
1C0E
1C1E
3C3C
FFF0
ENDCHAR
STARTCHAR uni1E03
ENCODING 7683
SWIDTH 559 0
DWIDTH 14 0
BBX 12 22 1 0
BITMAP
0C00
0C00
0000
1C00
7C00
1C00
1C00
3800
3800
39C0
3A60
3C70
7870
7070
7070
7070
70F0
60E0
E1E0
E1C0
F380
EE00
ENDCHAR
STARTCHAR uni1E04
ENCODING 7684
SWIDTH 632 0
DWIDTH 16 0
BBX 16 20 -1 -3
BITMAP
1FFC
078E
0707
0707
0707
0E07
0E0E
0E1C
0FF0
0E1C
0E0E
1C0E
1C0E
1C0E
1C1E
3C3C
FFF0
0000
0180
0180
ENDCHAR
STARTCHAR uni1E05
ENCODING 7685
SWIDTH 559 0
DWIDTH 14 0
BBX 12 22 1 -3
BITMAP
1C00
7C00
1C00
1C00
3800
3800
39C0
3A60
3C70
7870
7070
7070
7070
70F0
60E0
E1E0
E1C0
F380
EE00
0000
0C00
0C00
ENDCHAR
STARTCHAR uni1E06
ENCODING 7686
SWIDTH 632 0
DWIDTH 16 0
BBX 16 20 -1 -3
BITMAP
1FFC
078E
0707
0707
0707
0E07
0E0E
0E1C
0FF0
0E1C
0E0E
1C0E
1C0E
1C0E
1C1E
3C3C
FFF0
0000
0FE0
0FE0
ENDCHAR
STARTCHAR uni1E07
ENCODING 7687
SWIDTH 559 0
DWIDTH 14 0
BBX 12 22 1 -3
BITMAP
1C00
7C00
1C00
1C00
3800
3800
39C0
3A60
3C70
7870
7070
7070
7070
70F0
60E0
E1E0
E1C0
F380
EE00
0000
3F80
3F80
ENDCHAR
STARTCHAR uni1E08
ENCODING 7688
SWIDTH 661 0
DWIDTH 17 0
BBX 16 28 1 -5
BITMAP
0020
0070
00E0
0180
0200
0000
03FE
0F07
1C03
3802
7002
7000
7000
E000
E000
E000
E000
E000
E002
7006
700C
381C
0FE0
0200
0600
0300
0300
0E00
ENDCHAR
STARTCHAR uni1E09
ENCODING 7689
SWIDTH 441 0
DWIDTH 12 0
BBX 11 24 1 -5
BITMAP
0080
01C0
0380
0600
0800
0000
07C0
1CE0
3860
7840
7000
F000
E000
E000
E000
E000
E080
7100
3E00
0800
1800
0C00
0C00
3800
ENDCHAR
STARTCHAR uni1E0A
ENCODING 7690
SWIDTH 763 0
DWIDTH 19 0
BBX 19 20 -1 0
BITMAP
006000
006000
000000
1FFE00
078380
0701C0
0701C0
0700E0
0E00E0
0E00E0
0E00E0
0E00E0
0E00E0
0E01C0
1C01C0
1C01C0
1C0380
1C0700
3C1E00
FFF800
ENDCHAR
STARTCHAR uni1E0B
ENCODING 7691
SWIDTH 587 0
DWIDTH 14 0
BBX 13 22 1 0
BITMAP
0060
0060
0000
0038
00F8
0038
0038
0038
0070
07F0
1C70
3870
7870
70E0
F0E0
E0E0
E0E0
E1C0
E1C0
E3C8
65D0
38E0
ENDCHAR
STARTCHAR uni1E0C
ENCODING 7692
SWIDTH 763 0
DWIDTH 19 0
BBX 19 20 -1 -3
BITMAP
1FFE00
078380
0701C0
0701C0
0700E0
0E00E0
0E00E0
0E00E0
0E00E0
0E00E0
0E01C0
1C01C0
1C01C0
1C0380
1C0700
3C1E00
FFF800
000000
00C000
00C000
ENDCHAR
STARTCHAR uni1E0D
ENCODING 7693
SWIDTH 587 0
DWIDTH 14 0
BBX 13 22 1 -3
BITMAP
0038
00F8
0038
0038
0038
0070
07F0
1C70
3870
7870
70E0
F0E0
E0E0
E0E0
E1C0
E1C0
E3C8
65D0
38E0
0000
0600
0600
ENDCHAR
STARTCHAR uni1E0E
ENCODING 7694
SWIDTH 763 0
DWIDTH 19 0
BBX 19 20 -1 -3
BITMAP
1FFE00
078380
0701C0
0701C0
0700E0
0E00E0
0E00E0
0E00E0
0E00E0
0E00E0
0E01C0
1C01C0
1C01C0
1C0380
1C0700
3C1E00
FFF800
000000
07F000
07F000
ENDCHAR
STARTCHAR uni1E0F
ENCODING 7695
SWIDTH 587 0
DWIDTH 14 0
BBX 13 22 1 -3
BITMAP
0038
00F8
0038
0038
0038
0070
07F0
1C70
3870
7870
70E0
F0E0
E0E0
E0E0
E1C0
E1C0
E3C8
65D0
38E0
0000
1FC0
1FC0
ENDCHAR
STARTCHAR uni1E10
ENCODING 7696
SWIDTH 763 0
DWIDTH 19 0
BBX 19 22 -1 -5
BITMAP
1FFE00
078380
0701C0
0701C0
0700E0
0E00E0
0E00E0
0E00E0
0E00E0
0E00E0
0E01C0
1C01C0
1C01C0
1C0380
1C0700
3C1E00
FFF800
004000
00C000
006000
006000
01C000
ENDCHAR
STARTCHAR uni1E11
ENCODING 7697
SWIDTH 587 0
DWIDTH 14 0
BBX 13 24 1 -5
BITMAP
0038
00F8
0038
0038
0038
0070
07F0
1C70
3870
7870
70E0
F0E0
E0E0
E0E0
E1C0
E1C0
E3C8
65D0
38E0
0200
0600
0300
0300
0E00
ENDCHAR
STARTCHAR uni1E12
ENCODING 7698
SWIDTH 763 0
DWIDTH 19 0
BBX 19 22 -1 -5
BITMAP
1FFE00
078380
0701C0
0701C0
0700E0
0E00E0
0E00E0
0E00E0
0E00E0
0E00E0
0E01C0
1C01C0
1C01C0
1C0380
1C0700
3C1E00
FFF800
000000
008000
01C000
036000
063000
ENDCHAR
STARTCHAR uni1E13
ENCODING 7699
SWIDTH 587 0
DWIDTH 14 0
BBX 13 24 1 -5
BITMAP
0038
00F8
0038
0038
0038
0070
07F0
1C70
3870
7870
70E0
F0E0
E0E0
E0E0
E1C0
E1C0
E3C8
65D0
38E0
0000
0200
0700
0D80
18C0
ENDCHAR
STARTCHAR uni1E14
ENCODING 7700
SWIDTH 596 0
DWIDTH 15 0
BBX 15 26 -1 0
BITMAP
0400
0E00
0700
0180
0040
0000
07F0
07F0
0000
1FFE
0786
0704
0704
0700
0E00
0E08
0E08
0FF8
0E10
0E10
1C00
1C00
1C04
1C0C
3C18
FFF8
ENDCHAR
STARTCHAR uni1E15
ENCODING 7701
SWIDTH 453 0
DWIDTH 12 0
BBX 11 22 1 0
BITMAP
1000
3800
1C00
0600
0100
0000
1FC0
1FC0
0000
07C0
1CE0
38E0
78E0
71C0
F180
E600
F800
E000
E000
E080
7100
3E00
ENDCHAR
STARTCHAR uni1E16
ENCODING 7702
SWIDTH 596 0
DWIDTH 15 0
BBX 15 26 -1 0
BITMAP
0020
0070
00E0
0180
0200
0000
07F0
07F0
0000
1FFE
0786
0704
0704
0700
0E00
0E08
0E08
0FF8
0E10
0E10
1C00
1C00
1C04
1C0C
3C18
FFF8
ENDCHAR
STARTCHAR uni1E17
ENCODING 7703
SWIDTH 453 0
DWIDTH 12 0
BBX 11 22 1 0
BITMAP
0080
01C0
0380
0600
0800
0000
1FC0
1FC0
0000
07C0
1CE0
38E0
78E0
71C0
F180
E600
F800
E000
E000
E080
7100
3E00
ENDCHAR
STARTCHAR uni1E18
ENCODING 7704
SWIDTH 596 0
DWIDTH 15 0
BBX 15 22 -1 -5
BITMAP
1FFE
0786
0704
0704
0700
0E00
0E08
0E08
0FF8
0E10
0E10
1C00
1C00
1C04
1C0C
3C18
FFF8
0000
0200
0700
0D80
18C0
ENDCHAR
STARTCHAR uni1E19
ENCODING 7705
SWIDTH 453 0
DWIDTH 12 0
BBX 11 18 1 -5
BITMAP
07C0
1CE0
38E0
78E0
71C0
F180
E600
F800
E000
E000
E080
7100
3E00
0000
0800
1C00
3600
6300
ENDCHAR
STARTCHAR uni1E1A
ENCODING 7706
SWIDTH 596 0
DWIDTH 15 0
BBX 15 21 -1 -4
BITMAP
1FFE
0786
0704
0704
0700
0E00
0E08
0E08
0FF8
0E10
0E10
1C00
1C00
1C04
1C0C
3C18
FFF8
0000
0C20
1FC0
2180
ENDCHAR
STARTCHAR uni1E1B
ENCODING 7707
SWIDTH 453 0
DWIDTH 12 0
BBX 12 17 0 -4
BITMAP
03E0
0E70
1C70
3C70
38E0
78C0
7300
7C00
7000
7000
7040
3880
1F00
0000
3080
7F00
8600
ENDCHAR
STARTCHAR uni1E1C
ENCODING 7708
SWIDTH 596 0
DWIDTH 15 0
BBX 15 26 -1 -5
BITMAP
0410
07F0
03E0
0000
1FFE
0786
0704
0704
0700
0E00
0E08
0E08
0FF8
0E10
0E10
1C00
1C00
1C04
1C0C
3C18
FFF8
0100
0300
0180
0180
0700
ENDCHAR
STARTCHAR uni1E1D
ENCODING 7709
SWIDTH 453 0
DWIDTH 12 0
BBX 11 22 1 -5
BITMAP
1040
1FC0
0F80
0000
07C0
1CE0
38E0
78E0
71C0
F180
E600
F800
E000
E000
E080
7100
3E00
0800
1800
0C00
0C00
3800
ENDCHAR
STARTCHAR uni1E1E
ENCODING 7710
SWIDTH 571 0
DWIDTH 14 0
BBX 15 20 -1 0
BITMAP
0180
0180
0000
1FFE
0786
0704
0704
0700
0E00
0E08
0E08
0FF8
0E10
0E10
1C00
1C00
1C00
1C00
3C00
FF00
ENDCHAR
STARTCHAR uni1E1F
ENCODING 7711
SWIDTH 315 0
DWIDTH 8 0
BBX 14 27 -3 -5
BITMAP
00C0
00C0
0000
0038
005C
00C8
01C0
01C0
01C0
07F0
0380
0380
0380
0380
0700
0700
0700
0700
0700
0E00
0E00
0E00
0E00
0E00
4C00
E800
7000
ENDCHAR
STARTCHAR uni1E20
ENCODING 7712
SWIDTH 709 0
DWIDTH 18 0
BBX 17 20 1 0
BITMAP
07F000
07F000
000000
03FE00
0F0700
1C0300
380200
700200
700000
700000
E00000
E00000
E00000
E03F80
E00E00
E00E00
701C00
701C00
383C00
0FF000
ENDCHAR
STARTCHAR uni1E21
ENCODING 7713
SWIDTH 499 0
DWIDTH 13 0
BBX 14 21 -1 -5
BITMAP
07F0
07F0
0000
03EC
0678
0C38
1C38
1C38
1C30
0E60
07C0
0C00
1C00
1F00
1FE0
31F0
6070
E070
E060
F0C0
3F00
ENDCHAR
STARTCHAR uni1E22
ENCODING 7714
SWIDTH 775 0
DWIDTH 19 0
BBX 21 20 -1 0
BITMAP
003000
003000
000000
1FE7F8
0781E0
0701C0
0701C0
0701C0
0E0380
0E0380
0E0380
0FFF80
0E0380
0E0380
1C0700
1C0700
1C0700
1C0700
3C0F00
FE3FC0
ENDCHAR
STARTCHAR uni1E23
ENCODING 7715
SWIDTH 607 0
DWIDTH 15 0
BBX 14 22 1 0
BITMAP
0C00
0C00
0000
1C00
7C00
1C00
1C00
1C00
3800
3870
38B8
3938
3A38
7438
7870
7070
7070
7070
E0E0
E0E4
E0E8
E070
ENDCHAR
STARTCHAR uni1E24
ENCODING 7716
SWIDTH 775 0
DWIDTH 19 0
BBX 21 20 -1 -3
BITMAP
1FE7F8
0781E0
0701C0
0701C0
0701C0
0E0380
0E0380
0E0380
0FFF80
0E0380
0E0380
1C0700
1C0700
1C0700
1C0700
3C0F00
FE3FC0
000000
006000
006000
ENDCHAR
STARTCHAR uni1E25
ENCODING 7717
SWIDTH 607 0
DWIDTH 15 0
BBX 14 22 1 -3
BITMAP
1C00
7C00
1C00
1C00
1C00
3800
3870
38B8
3938
3A38
7438
7870
7070
7070
7070
E0E0
E0E4
E0E8
E070
0000
0300
0300
ENDCHAR
STARTCHAR uni1E26
ENCODING 7718
SWIDTH 775 0
DWIDTH 19 0
BBX 21 20 -1 0
BITMAP
00CC00
00CC00
000000
1FE7F8
0781E0
0701C0
0701C0
0701C0
0E0380
0E0380
0E0380
0FFF80
0E0380
0E0380
1C0700
1C0700
1C0700
1C0700
3C0F00
FE3FC0
ENDCHAR
STARTCHAR uni1E27
ENCODING 7719
SWIDTH 607 0
DWIDTH 15 0
BBX 14 22 1 0
BITMAP
3300
3300
0000
1C00
7C00
1C00
1C00
1C00
3800
3870
38B8
3938
3A38
7438
7870
7070
7070
7070
E0E0
E0E4
E0E8
E070
ENDCHAR
STARTCHAR uni1E28
ENCODING 7720
SWIDTH 775 0
DWIDTH 19 0
BBX 21 22 -1 -5
BITMAP
1FE7F8
0781E0
0701C0
0701C0
0701C0
0E0380
0E0380
0E0380
0FFF80
0E0380
0E0380
1C0700
1C0700
1C0700
1C0700
3C0F00
FE3FC0
002000
006000
003000
003000
00E000
ENDCHAR
STARTCHAR uni1E29
ENCODING 7721
SWIDTH 607 0
DWIDTH 15 0
BBX 14 24 1 -5
BITMAP
1C00
7C00
1C00
1C00
1C00
3800
3870
38B8
3938
3A38
7438
7870
7070
7070
7070
E0E0
E0E4
E0E8
E070
0200
0600
0300
0300
0E00
ENDCHAR
STARTCHAR uni1E2A
ENCODING 7722
SWIDTH 775 0
DWIDTH 19 0
BBX 21 21 -1 -4
BITMAP
1FE7F8
0781E0
0701C0
0701C0
0701C0
0E0380
0E0380
0E0380
0FFF80
0E0380
0E0380
1C0700
1C0700
1C0700
1C0700
3C0F00
FE3FC0
000000
020800
03F800
01F000
ENDCHAR
STARTCHAR uni1E2B
ENCODING 7723
SWIDTH 607 0
DWIDTH 15 0
BBX 14 23 1 -4
BITMAP
1C00
7C00
1C00
1C00
1C00
3800
3870
38B8
3938
3A38
7438
7870
7070
7070
7070
E0E0
E0E4
E0E8
E070
0000
1040
1FC0
0F80
ENDCHAR
STARTCHAR uni1E2C
ENCODING 7724
SWIDTH 345 0
DWIDTH 9 0
BBX 11 21 -1 -4
BITMAP
1FE0
0780
0700
0700
0700
0E00
0E00
0E00
0E00
0E00
0E00
1C00
1C00
1C00
1C00
3C00
FF00
0000
3080
7F00
8600
ENDCHAR
STARTCHAR uni1E2D
ENCODING 7725
SWIDTH 317 0
DWIDTH 7 0
BBX 9 22 -1 -4
BITMAP
0600
0F00
0600
0000
0000
0E00
3E00
0E00
0E00
1C00
1C00
1C00
1C00
3800
3800
3900
3A00
1C00
0000
3080
7F00
8600
ENDCHAR
STARTCHAR uni1E2E
ENCODING 7726
SWIDTH 345 0
DWIDTH 9 0
BBX 11 24 -1 0
BITMAP
0040
00E0
01C0
0300
0400
0000
0660
0660
0000
1FE0
0780
0700
0700
0E00
0E00
0E00
0E00
0E00
0E00
1C00
1C00
1C00
3C00
FF00
ENDCHAR
STARTCHAR uni1E2F
ENCODING 7727
SWIDTH 317 0
DWIDTH 7 0
BBX 7 22 1 0
BITMAP
04
0E
1C
30
40
00
66
66
00
38
F8
38
38
70
70
70
70
E0
E0
E4
E8
70
ENDCHAR
STARTCHAR uni1E30
ENCODING 7728
SWIDTH 650 0
DWIDTH 16 0
BBX 18 23 -1 0
BITMAP
001000
003800
007000
00C000
010000
000000
1FE7C0
078300
070200
070400
070800
0E1000
0E2000
0E4000
0EC000
0FE000
0EF000
1C7800
1C3C00
1C1C00
1C1E00
3C0F00
FF07C0
ENDCHAR
STARTCHAR uni1E31
ENCODING 7729
SWIDTH 545 0
DWIDTH 14 0
BBX 13 25 1 0
BITMAP
0100
0380
0700
0C00
1000
0000
1C00
7C00
1C00
1C00
1C00
3800
3810
3838
3870
3880
7100
7300
7F00
7780
7380
E1C0
E1E8
E0F0
E060
ENDCHAR
STARTCHAR uni1E32
ENCODING 7730
SWIDTH 650 0
DWIDTH 16 0
BBX 18 20 -1 -3
BITMAP
1FE7C0
078300
070200
070400
070800
0E1000
0E2000
0E4000
0EC000
0FE000
0EF000
1C7800
1C3C00
1C1C00
1C1E00
3C0F00
FF07C0
000000
00C000
00C000
ENDCHAR
STARTCHAR uni1E33
ENCODING 7731
SWIDTH 545 0
DWIDTH 14 0
BBX 13 22 1 -3
BITMAP
1C00
7C00
1C00
1C00
1C00
3800
3810
3838
3870
3880
7100
7300
7F00
7780
7380
E1C0
E1E8
E0F0
E060
0000
0600
0600
ENDCHAR
STARTCHAR uni1E34
ENCODING 7732
SWIDTH 650 0
DWIDTH 16 0
BBX 18 20 -1 -3
BITMAP
1FE7C0
078300
070200
070400
070800
0E1000
0E2000
0E4000
0EC000
0FE000
0EF000
1C7800
1C3C00
1C1C00
1C1E00
3C0F00
FF07C0
000000
07F000
07F000
ENDCHAR
STARTCHAR uni1E35
ENCODING 7733
SWIDTH 545 0
DWIDTH 14 0
BBX 13 22 1 -3
BITMAP
1C00
7C00
1C00
1C00
1C00
3800
3810
3838
3870
3880
7100
7300
7F00
7780
7380
E1C0
E1E8
E0F0
E060
0000
3F80
3F80
ENDCHAR
STARTCHAR uni1E36
ENCODING 7734
SWIDTH 565 0
DWIDTH 14 0
BBX 14 20 -1 -3
BITMAP
1FE0
0780
0700
0700
0700
0E00
0E00
0E00
0E00
0E00
0E00
1C00
1C00
1C04
1C0C
3C18
FFF8
0000
0300
0300
ENDCHAR
STARTCHAR uni1E37
ENCODING 7735
SWIDTH 306 0
DWIDTH 7 0
BBX 6 22 1 -3
BITMAP
1C
7C
1C
1C
38
38
38
38
38
70
70
70
70
70
E0
E0
E4
E8
70
00
60
60
ENDCHAR
STARTCHAR uni1E38
ENCODING 7736
SWIDTH 565 0
DWIDTH 14 0
BBX 14 23 -1 -3
BITMAP
1FC0
1FC0
0000
1FE0
0780
0700
0700
0700
0E00
0E00
0E00
0E00
0E00
0E00
1C00
1C00
1C04
1C0C
3C18
FFF8
0000
0300
0300
ENDCHAR
STARTCHAR uni1E39
ENCODING 7737
SWIDTH 306 0
DWIDTH 7 0
BBX 7 25 1 -3
BITMAP
FE
FE
00
1C
7C
1C
1C
38
38
38
38
38
70
70
70
70
70
E0
E0
E4
E8
70
00
60
60
ENDCHAR
STARTCHAR uni1E3A
ENCODING 7738
SWIDTH 565 0
DWIDTH 14 0
BBX 14 20 -1 -3
BITMAP
1FE0
0780
0700
0700
0700
0E00
0E00
0E00
0E00
0E00
0E00
1C00
1C00
1C04
1C0C
3C18
FFF8
0000
1FC0
1FC0
ENDCHAR
STARTCHAR uni1E3B
ENCODING 7739
SWIDTH 306 0
DWIDTH 7 0
BBX 7 22 0 -3
BITMAP
0E
3E
0E
0E
1C
1C
1C
1C
1C
38
38
38
38
38
70
70
72
74
38
00
FE
FE
ENDCHAR
STARTCHAR uni1E3C
ENCODING 7740
SWIDTH 565 0
DWIDTH 14 0
BBX 14 22 -1 -5
BITMAP
1FE0
0780
0700
0700
0700
0E00
0E00
0E00
0E00
0E00
0E00
1C00
1C00
1C04
1C0C
3C18
FFF8
0000
0200
0700
0D80
18C0
ENDCHAR
STARTCHAR uni1E3D
ENCODING 7741
SWIDTH 306 0
DWIDTH 7 0
BBX 7 24 0 -5
BITMAP
0E
3E
0E
0E
1C
1C
1C
1C
1C
38
38
38
38
38
70
70
72
74
38
00
10
38
6C
C6
ENDCHAR
STARTCHAR uni1E3E
ENCODING 7742
SWIDTH 920 0
DWIDTH 23 0
BBX 25 23 -1 0
BITMAP
00010000
00038000
00070000
000C0000
00100000
00000000
1F800F80
07801E00
07801C00
07803C00
05C07C00
05C05C00
0DC09C00
09C1B800
08E13800
08E23800
08E63800
18E43800
10787000
10787000
10707000
3070F000
FC23FC00
ENDCHAR
STARTCHAR uni1E3F
ENCODING 7743
SWIDTH 912 0
DWIDTH 23 0
BBX 22 19 1 0
BITMAP
000400
000E00
001C00
003000
004000
000000
387070
F8B8B8
393938
3A3A38
743C38
783870
707070
707070
707070
E0E0E0
E0E0E4
E0E0E8
E0E070
ENDCHAR
STARTCHAR uni1E40
ENCODING 7744
SWIDTH 920 0
DWIDTH 23 0
BBX 25 20 -1 0
BITMAP
000C0000
000C0000
00000000
1F800F80
07801E00
07801C00
07803C00
05C07C00
05C05C00
0DC09C00
09C1B800
08E13800
08E23800
08E63800
18E43800
10787000
10787000
10707000
3070F000
FC23FC00
ENDCHAR
STARTCHAR uni1E41
ENCODING 7745
SWIDTH 912 0
DWIDTH 23 0
BBX 22 16 1 0
BITMAP
003000
003000
000000
387070
F8B8B8
393938
3A3A38
743C38
783870
707070
707070
707070
E0E0E0
E0E0E4
E0E0E8
E0E070
ENDCHAR
STARTCHAR uni1E42
ENCODING 7746
SWIDTH 920 0
DWIDTH 23 0
BBX 25 20 -1 -3
BITMAP
1F800F80
07801E00
07801C00
07803C00
05C07C00
05C05C00
0DC09C00
09C1B800
08E13800
08E23800
08E63800
18E43800
10787000
10787000
10707000
3070F000
FC23FC00
00000000
00180000
00180000
ENDCHAR
STARTCHAR uni1E43
ENCODING 7747
SWIDTH 912 0
DWIDTH 23 0
BBX 22 16 1 -3
BITMAP
387070
F8B8B8
393938
3A3A38
743C38
783870
707070
707070
707070
E0E0E0
E0E0E4
E0E0E8
E0E070
000000
006000
006000
ENDCHAR
STARTCHAR uni1E44
ENCODING 7748
SWIDTH 763 0
DWIDTH 19 0
BBX 21 20 -1 0
BITMAP
003000
003000
000000
1F81F8
078060
07C040
05C040
05E040
04E040
0CF0C0
087080
087880
083880
083C80
181D80
101F00
100F00
100F00
300700
FC0700
ENDCHAR
STARTCHAR uni1E45
ENCODING 7749
SWIDTH 618 0
DWIDTH 15 0
BBX 14 16 1 0
BITMAP
0300
0300
0000
3870
F8B8
3938
3A38
7438
7870
7070
7070
7070
E0E0
E0E4
E0E8
E070
ENDCHAR
STARTCHAR uni1E46
ENCODING 7750
SWIDTH 763 0
DWIDTH 19 0
BBX 21 20 -1 -3
BITMAP
1F81F8
078060
07C040
05C040
05E040
04E040
0CF0C0
087080
087880
083880
083C80
181D80
101F00
100F00
100F00
300700
FC0700
000000
006000
006000
ENDCHAR
STARTCHAR uni1E47
ENCODING 7751
SWIDTH 618 0
DWIDTH 15 0
BBX 14 16 1 -3
BITMAP
3870
F8B8
3938
3A38
7438
7870
7070
7070
7070
E0E0
E0E4
E0E8
E070
0000
0600
0600
ENDCHAR
STARTCHAR uni1E48
ENCODING 7752
SWIDTH 763 0
DWIDTH 19 0
BBX 21 20 -1 -3
BITMAP
1F81F8
078060
07C040
05C040
05E040
04E040
0CF0C0
087080
087880
083880
083C80
181D80
101F00
100F00
100F00
300700
FC0700
000000
01FC00
01FC00
ENDCHAR
STARTCHAR uni1E49
ENCODING 7753
SWIDTH 618 0
DWIDTH 15 0
BBX 14 16 1 -3
BITMAP
3870
F8B8
3938
3A38
7438
7870
7070
7070
7070
E0E0
E0E4
E0E8
E070
0000
1FC0
1FC0
ENDCHAR
STARTCHAR uni1E4A
ENCODING 7754
SWIDTH 763 0
DWIDTH 19 0
BBX 21 22 -1 -5
BITMAP
1F81F8
078060
07C040
05C040
05E040
04E040
0CF0C0
087080
087880
083880
083C80
181D80
101F00
100F00
100F00
300700
FC0700
000000
002000
007000
00D800
018C00
ENDCHAR
STARTCHAR uni1E4B
ENCODING 7755
SWIDTH 618 0
DWIDTH 15 0
BBX 14 18 1 -5
BITMAP
3870
F8B8
3938
3A38
7438
7870
7070
7070
7070
E0E0
E0E4
E0E8
E070
0000
0200
0700
0D80
18C0
ENDCHAR
STARTCHAR uni1E4C
ENCODING 7756
SWIDTH 753 0
DWIDTH 19 0
BBX 17 25 1 0
BITMAP
001000
003800
007000
00C000
010000
000000
018400
03F800
043000
000000
03F800
0F0E00
1C0700
380700
700380
700380
700380
E00380
E00700
E00700
E00700
700E00
701C00
387800
0FE000
ENDCHAR
STARTCHAR uni1E4D
ENCODING 7757
SWIDTH 537 0
DWIDTH 14 0
BBX 12 23 1 0
BITMAP
0040
00E0
01C0
0300
0400
0000
0610
0FE0
10C0
0000
07C0
1CE0
3870
7870
7070
F070
E070
E0F0
E0E0
E1E0
E1C0
7380
3E00
ENDCHAR
STARTCHAR uni1E4E
ENCODING 7758
SWIDTH 753 0
DWIDTH 19 0
BBX 17 22 1 0
BITMAP
033000
033000
000000
018400
03F800
043000
000000
03F800
0F0E00
1C0700
380700
700380
700380
700380
E00380
E00700
E00700
E00700
700E00
701C00
387800
0FE000
ENDCHAR
STARTCHAR uni1E4F
ENCODING 7759
SWIDTH 537 0
DWIDTH 14 0
BBX 12 20 1 0
BITMAP
0CC0
0CC0
0000
0610
0FE0
10C0
0000
07C0
1CE0
3870
7870
7070
F070
E070
E0F0
E0E0
E1E0
E1C0
7380
3E00
ENDCHAR
STARTCHAR uni1E50
ENCODING 7760
SWIDTH 753 0
DWIDTH 19 0
BBX 17 26 1 0
BITMAP
020000
070000
038000
00C000
002000
000000
03F800
03F800
000000
03F800
0F0E00
1C0700
380700
700380
700380
700380
E00380
E00380
E00380
E00700
E00700
E00700
700E00
701C00
387800
0FE000
ENDCHAR
STARTCHAR uni1E51
ENCODING 7761
SWIDTH 537 0
DWIDTH 14 0
BBX 12 22 1 0
BITMAP
0800
1C00
0E00
0300
0080
0000
1FC0
1FC0
0000
07C0
1CE0
3870
7870
7070
F070
E070
E0F0
E0E0
E1E0
E1C0
7380
3E00
ENDCHAR
STARTCHAR uni1E52
ENCODING 7762
SWIDTH 753 0
DWIDTH 19 0
BBX 17 26 1 0
BITMAP
001000
003800
007000
00C000
010000
000000
03F800
03F800
000000
03F800
0F0E00
1C0700
380700
700380
700380
700380
E00380
E00380
E00380
E00700
E00700
E00700
700E00
701C00
387800
0FE000
ENDCHAR
STARTCHAR uni1E53
ENCODING 7763
SWIDTH 537 0
DWIDTH 14 0
BBX 12 22 1 0
BITMAP
0040
00E0
01C0
0300
0400
0000
1FC0
1FC0
0000
07C0
1CE0
3870
7870
7070
F070
E070
E0F0
E0E0
E1E0
E1C0
7380
3E00
ENDCHAR
STARTCHAR uni1E54
ENCODING 7764
SWIDTH 614 0
DWIDTH 15 0
BBX 16 23 -1 0
BITMAP
0010
0038
0070
00C0
0100
0000
1FFC
078E
0707
0707
0707
0E07
0E0E
0E1C
0FF0
0E00
0E00
1C00
1C00
1C00
1C00
3C00
FF00
ENDCHAR
STARTCHAR uni1E55
ENCODING 7765
SWIDTH 590 0
DWIDTH 14 0
BBX 13 24 0 -5
BITMAP
0040
00E0
01C0
0300
0400
0000
1CE0
7D30
1E38
1C38
3838
3838
3838
3878
3870
70F0
70E0
79C0
7700
7000
E000
E000
E000
E000
ENDCHAR
STARTCHAR uni1E56
ENCODING 7766
SWIDTH 614 0
DWIDTH 15 0
BBX 16 20 -1 0
BITMAP
00C0
00C0
0000
1FFC
078E
0707
0707
0707
0E07
0E0E
0E1C
0FF0
0E00
0E00
1C00
1C00
1C00
1C00
3C00
FF00
ENDCHAR
STARTCHAR uni1E57
ENCODING 7767
SWIDTH 590 0
DWIDTH 14 0
BBX 13 21 0 -5
BITMAP
0300
0300
0000
1CE0
7D30
1E38
1C38
3838
3838
3838
3878
3870
70F0
70E0
79C0
7700
7000
E000
E000
E000
E000
ENDCHAR
STARTCHAR uni1E58
ENCODING 7768
SWIDTH 640 0
DWIDTH 16 0
BBX 17 20 -1 0
BITMAP
00C000
00C000
000000
1FFC00
078E00
070700
070700
070700
0E0700
0E0E00
0E1C00
0FF000
0E3800
0E3C00
1C1C00
1C1C00
1C1C00
1C1E00
3C0E00
FF0F80
ENDCHAR
STARTCHAR uni1E59
ENCODING 7769
SWIDTH 402 0
DWIDTH 10 0
BBX 10 16 1 0
BITMAP
0C00
0C00
0000
3980
FBC0
3F80
3800
3800
7000
7000
7000
7000
E000
E000
E000
E000
ENDCHAR
STARTCHAR uni1E5A
ENCODING 7770
SWIDTH 640 0
DWIDTH 16 0
BBX 17 20 -1 -3
BITMAP
1FFC00
078E00
070700
070700
070700
0E0700
0E0E00
0E1C00
0FF000
0E3800
0E3C00
1C1C00
1C1C00
1C1C00
1C1E00
3C0E00
FF0F80
000000
018000
018000
ENDCHAR
STARTCHAR uni1E5B
ENCODING 7771
SWIDTH 402 0
DWIDTH 10 0
BBX 10 16 1 -3
BITMAP
3980
FBC0
3F80
3800
3800
7000
7000
7000
7000
E000
E000
E000
E000
0000
3000
3000
ENDCHAR
STARTCHAR uni1E5C
ENCODING 7772
SWIDTH 640 0
DWIDTH 16 0
BBX 17 23 -1 -3
BITMAP
03F800
03F800
000000
1FFC00
078E00
070700
070700
070700
0E0700
0E0E00
0E1C00
0FF000
0E3800
0E3C00
1C1C00
1C1C00
1C1C00
1C1E00
3C0E00
FF0F80
000000
018000
018000
ENDCHAR
STARTCHAR uni1E5D
ENCODING 7773
SWIDTH 402 0
DWIDTH 10 0
BBX 10 19 1 -3
BITMAP
7F00
7F00
0000
3980
FBC0
3F80
3800
3800
7000
7000
7000
7000
E000
E000
E000
E000
0000
3000
3000
ENDCHAR
STARTCHAR uni1E5E
ENCODING 7774
SWIDTH 640 0
DWIDTH 16 0
BBX 17 20 -1 -3
BITMAP
1FFC00
078E00
070700
070700
070700
0E0700
0E0E00
0E1C00
0FF000
0E3800
0E3C00
1C1C00
1C1C00
1C1C00
1C1E00
3C0E00
FF0F80
000000
07F000
07F000
ENDCHAR
STARTCHAR uni1E5F
ENCODING 7775
SWIDTH 402 0
DWIDTH 10 0
BBX 11 16 0 -3
BITMAP
1CC0
7DE0
1FC0
1C00
1C00
3800
3800
3800
3800
7000
7000
7000
7000
0000
FE00
FE00
ENDCHAR
STARTCHAR uni1E60
ENCODING 7776
SWIDTH 533 0
DWIDTH 13 0
BBX 13 20 0 0
BITMAP
0300
0300
0000
07F0
1C38
1818
3810
3810
3800
3C00
1F00
0F80
03C0
01E0
00E0
40E0
40E0
C0C0
E1C0
7F00
ENDCHAR
STARTCHAR uni1E61
ENCODING 7777
SWIDTH 389 0
DWIDTH 10 0
BBX 10 16 0 0
BITMAP
0600
0600
0000
0F80
19C0
30C0
3000
3800
3C00
1E00
0F00
0700
0300
C300
E600
7C00
ENDCHAR
STARTCHAR uni1E62
ENCODING 7778
SWIDTH 533 0
DWIDTH 13 0
BBX 13 20 0 -3
BITMAP
07F0
1C38
1818
3810
3810
3800
3C00
1F00
0F80
03C0
01E0
00E0
40E0
40E0
C0C0
E1C0
7F00
0000
0600
0600
ENDCHAR
STARTCHAR uni1E63
ENCODING 7779
SWIDTH 389 0
DWIDTH 10 0
BBX 10 16 0 -3
BITMAP
0F80
19C0
30C0
3000
3800
3C00
1E00
0F00
0700
0300
C300
E600
7C00
0000
1800
1800
ENDCHAR
STARTCHAR uni1E64
ENCODING 7780
SWIDTH 533 0
DWIDTH 13 0
BBX 13 26 0 0
BITMAP
0180
0180
0000
0040
00E0
01C0
0300
0400
0000
07F0
1C38
1818
3810
3810
3800
3C00
1F00
0F80
03C0
01E0
00E0
40E0
40E0
C0C0
E1C0
7F00
ENDCHAR
STARTCHAR uni1E65
ENCODING 7781
SWIDTH 389 0
DWIDTH 10 0
BBX 10 22 0 0
BITMAP
0300
0300
0000
0080
01C0
0380
0600
0800
0000
0F80
19C0
30C0
3000
3800
3C00
1E00
0F00
0700
0300
C300
E600
7C00
ENDCHAR
STARTCHAR uni1E66
ENCODING 7782
SWIDTH 533 0
DWIDTH 13 0
BBX 13 23 0 0
BITMAP
0180
0180
0000
0630
0360
01C0
0080
0000
07F0
1C38
1818
3810
3810
3C00
1F00
0F80
03C0
01E0
40E0
40E0
C0C0
E1C0
7F00
ENDCHAR
STARTCHAR uni1E67
ENCODING 7783
SWIDTH 389 0
DWIDTH 10 0
BBX 10 21 0 0
BITMAP
0600
0600
0000
18C0
0D80
0700
0200
0000
0F80
19C0
30C0
3000
3800
3C00
1E00
0F00
0700
0300
C300
E600
7C00
ENDCHAR
STARTCHAR uni1E68
ENCODING 7784
SWIDTH 533 0
DWIDTH 13 0
BBX 13 23 0 -3
BITMAP
0300
0300
0000
07F0
1C38
1818
3810
3810
3800
3C00
1F00
0F80
03C0
01E0
00E0
40E0
40E0
C0C0
E1C0
7F00
0000
0600
0600
ENDCHAR
STARTCHAR uni1E69
ENCODING 7785
SWIDTH 389 0
DWIDTH 10 0
BBX 10 19 0 -3
BITMAP
0C00
0C00
0000
0F80
19C0
30C0
3000
3800
3C00
1E00
0F00
0700
0300
C300
E600
7C00
0000
1800
1800
ENDCHAR
STARTCHAR uni1E6A
ENCODING 7786
SWIDTH 606 0
DWIDTH 15 0
BBX 14 20 1 0
BITMAP
0300
0300
0000
FFFC
C78C
8704
0700
0700
0E00
0E00
0E00
0E00
0E00
0E00
1C00
1C00
1C00
1C00
3C00
FF00
ENDCHAR
STARTCHAR uni1E6B
ENCODING 7787
SWIDTH 341 0
DWIDTH 9 0
BBX 8 19 2 0
BITMAP
18
18
00
08
18
38
FF
38
38
70
70
70
70
70
E0
E2
E4
E8
70
ENDCHAR
STARTCHAR uni1E6C
ENCODING 7788
SWIDTH 606 0
DWIDTH 15 0
BBX 14 20 1 -3
BITMAP
FFFC
C78C
8704
0700
0700
0E00
0E00
0E00
0E00
0E00
0E00
1C00
1C00
1C00
1C00
3C00
FF00
0000
0C00
0C00
ENDCHAR
STARTCHAR uni1E6D
ENCODING 7789
SWIDTH 341 0
DWIDTH 9 0
BBX 8 19 2 -3
BITMAP
08
18
38
FF
38
38
70
70
70
70
70
E0
E2
E4
E8
70
00
30
30
ENDCHAR
STARTCHAR uni1E6E
ENCODING 7790
SWIDTH 606 0
DWIDTH 15 0
BBX 14 20 1 -3
BITMAP
FFFC
C78C
8704
0700
0700
0E00
0E00
0E00
0E00
0E00
0E00
1C00
1C00
1C00
1C00
3C00
FF00
0000
3F80
3F80
ENDCHAR
STARTCHAR uni1E6F
ENCODING 7791
SWIDTH 341 0
DWIDTH 9 0
BBX 9 19 1 -3
BITMAP
0400
0C00
1C00
7F80
1C00
1C00
3800
3800
3800
3800
3800
7000
7100
7200
7400
3800
0000
FE00
FE00
ENDCHAR
STARTCHAR uni1E70
ENCODING 7792
SWIDTH 606 0
DWIDTH 15 0
BBX 14 22 1 -5
BITMAP
FFFC
C78C
8704
0700
0700
0E00
0E00
0E00
0E00
0E00
0E00
1C00
1C00
1C00
1C00
3C00
FF00
0000
0400
0E00
1B00
3180
ENDCHAR
STARTCHAR uni1E71
ENCODING 7793
SWIDTH 341 0
DWIDTH 9 0
BBX 9 21 1 -5
BITMAP
0400
0C00
1C00
7F80
1C00
1C00
3800
3800
3800
3800
3800
7000
7100
7200
7400
3800
0000
1000
3800
6C00
C600
ENDCHAR
STARTCHAR uni1E72
ENCODING 7794
SWIDTH 794 0
DWIDTH 20 0
BBX 18 20 2 -3
BITMAP
FF3FC0
3C0F00
380E00
380E00
380E00
700E00
701C00
701C00
701C00
701C00
E01C00
E03800
E03800
E03800
E07000
70E000
3FC000
000000
0CC000
0CC000
ENDCHAR
STARTCHAR uni1E73
ENCODING 7795
SWIDTH 618 0
DWIDTH 15 0
BBX 14 16 1 -3
BITMAP
3838
F838
3838
3838
7070
7070
7070
70F0
E170
E2E4
E4E4
E8E8
7070
0000
0CC0
0CC0
ENDCHAR
STARTCHAR uni1E74
ENCODING 7796
SWIDTH 794 0
DWIDTH 20 0
BBX 18 21 2 -4
BITMAP
FF3FC0
3C0F00
380E00
380E00
380E00
700E00
701C00
701C00
701C00
701C00
E01C00
E03800
E03800
E03800
E07000
70E000
3FC000
000000
0C2000
1FC000
218000
ENDCHAR
STARTCHAR uni1E75
ENCODING 7797
SWIDTH 618 0
DWIDTH 15 0
BBX 14 17 1 -4
BITMAP
3838
F838
3838
3838
7070
7070
7070
70F0
E170
E2E4
E4E4
E8E8
7070
0000
0C20
1FC0
2180
ENDCHAR
STARTCHAR uni1E76
ENCODING 7798
SWIDTH 794 0
DWIDTH 20 0
BBX 18 22 2 -5
BITMAP
FF3FC0
3C0F00
380E00
380E00
380E00
700E00
701C00
701C00
701C00
701C00
E01C00
E03800
E03800
E03800
E07000
70E000
3FC000
000000
010000
038000
06C000
0C6000
ENDCHAR
STARTCHAR uni1E77
ENCODING 7799
SWIDTH 618 0
DWIDTH 15 0
BBX 14 18 1 -5
BITMAP
3838
F838
3838
3838
7070
7070
7070
70F0
E170
E2E4
E4E4
E8E8
7070
0000
0200
0700
0D80
18C0
ENDCHAR
STARTCHAR uni1E78
ENCODING 7800
SWIDTH 794 0
DWIDTH 20 0
BBX 18 27 2 0
BITMAP
001000
003800
007000
00C000
010000
000000
018400
03F800
043000
000000
FF3FC0
3C0F00
380E00
380E00
380E00
700E00
701C00
701C00
701C00
701C00
E01C00
E03800
E03800
E03800
E07000
70E000
3FC000
ENDCHAR
STARTCHAR uni1E79
ENCODING 7801
SWIDTH 618 0
DWIDTH 15 0
BBX 14 23 1 0
BITMAP
0040
00E0
01C0
0300
0400
0000
0610
0FE0
10C0
0000
3838
F838
3838
3838
7070
7070
7070
70F0
E170
E2E4
E4E4
E8E8
7070
ENDCHAR
STARTCHAR uni1E7A
ENCODING 7802
SWIDTH 794 0
DWIDTH 20 0
BBX 18 23 2 0
BITMAP
033000
033000
000000
07F000
07F000
000000
FF3FC0
3C0F00
380E00
380E00
380E00
700E00
701C00
701C00
701C00
701C00
E01C00
E03800
E03800
E03800
E07000
70E000
3FC000
ENDCHAR
STARTCHAR uni1E7B
ENCODING 7803
SWIDTH 618 0
DWIDTH 15 0
BBX 14 19 1 0
BITMAP
0CC0
0CC0
0000
0FE0
0FE0
0000
3838
F838
3838
3838
7070
7070
7070
70F0
E170
E2E4
E4E4
E8E8
7070
ENDCHAR
STARTCHAR uni1E7C
ENCODING 7804
SWIDTH 637 0
DWIDTH 16 0
BBX 17 21 1 0
BITMAP
061000
0FE000
10C000
000000
FE1F80
380600
380400
380800
380800
381000
1C1000
1C2000
1C4000
1C4000
1C8000
1C8000
0F0000
0F0000
0E0000
0E0000
0C0000
ENDCHAR
STARTCHAR uni1E7D
ENCODING 7805
SWIDTH 510 0
DWIDTH 13 0
BBX 12 17 1 0
BITMAP
0C20
1FC0
2180
0000
3830
F870
3830
3830
7060
7060
7060
70C0
E080
E100
E200
E400
7800
ENDCHAR
STARTCHAR uni1E7E
ENCODING 7806
SWIDTH 637 0
DWIDTH 16 0
BBX 17 20 1 -3
BITMAP
FE1F80
380600
380400
380800
380800
381000
1C1000
1C2000
1C4000
1C4000
1C8000
1C8000
0F0000
0F0000
0E0000
0E0000
0C0000
000000
030000
030000
ENDCHAR
STARTCHAR uni1E7F
ENCODING 7807
SWIDTH 510 0
DWIDTH 13 0
BBX 12 16 1 -3
BITMAP
3830
F870
3830
3830
7060
7060
7060
70C0
E080
E100
E200
E400
7800
0000
1800
1800
ENDCHAR
STARTCHAR Wgrave
ENCODING 7808
SWIDTH 946 0
DWIDTH 23 0
BBX 24 23 1 0
BITMAP
008000
01C000
00E000
003000
000800
000000
FE1C3F
381C0C
381C08
383C10
383C10
385C20
385C20
389C40
1C8E40
1D0E80
1D0E80
1E0F00
1E0F00
1C0E00
1C0E00
180C00
180C00
ENDCHAR
STARTCHAR wgrave
ENCODING 7809
SWIDTH 785 0
DWIDTH 20 0
BBX 19 19 1 0
BITMAP
020000
070000
038000
00C000
002000
000000
387060
F870E0
387060
387060
70E0C0
70E0C0
70E0C0
70E180
E0C100
E1C200
E2C400
E4C800
787000
ENDCHAR
STARTCHAR Wacute
ENCODING 7810
SWIDTH 946 0
DWIDTH 23 0
BBX 24 23 1 0
BITMAP
000400
000E00
001C00
003000
004000
000000
FE1C3F
381C0C
381C08
383C10
383C10
385C20
385C20
389C40
1C8E40
1D0E80
1D0E80
1E0F00
1E0F00
1C0E00
1C0E00
180C00
180C00
ENDCHAR
STARTCHAR wacute
ENCODING 7811
SWIDTH 785 0
DWIDTH 20 0
BBX 19 19 1 0
BITMAP
001000
003800
007000
00C000
010000
000000
387060
F870E0
387060
387060
70E0C0
70E0C0
70E0C0
70E180
E0C100
E1C200
E2C400
E4C800
787000
ENDCHAR
STARTCHAR Wdieresis
ENCODING 7812
SWIDTH 946 0
DWIDTH 23 0
BBX 24 20 1 0
BITMAP
00CC00
00CC00
000000
FE1C3F
381C0C
381C08
383C10
383C10
385C20
385C20
389C40
1C8E40
1D0E80
1D0E80
1E0F00
1E0F00
1C0E00
1C0E00
180C00
180C00
ENDCHAR
STARTCHAR wdieresis
ENCODING 7813
SWIDTH 785 0
DWIDTH 20 0
BBX 19 16 1 0
BITMAP
033000
033000
000000
387060
F870E0
387060
387060
70E0C0
70E0C0
70E0C0
70E180
E0C100
E1C200
E2C400
E4C800
787000
ENDCHAR
STARTCHAR uni1E86
ENCODING 7814
SWIDTH 946 0
DWIDTH 23 0
BBX 24 20 1 0
BITMAP
003000
003000
000000
FE1C3F
381C0C
381C08
383C10
383C10
385C20
385C20
389C40
1C8E40
1D0E80
1D0E80
1E0F00
1E0F00
1C0E00
1C0E00
180C00
180C00
ENDCHAR
STARTCHAR uni1E87
ENCODING 7815
SWIDTH 785 0
DWIDTH 20 0
BBX 19 16 1 0
BITMAP
00C000
00C000
000000
387060
F870E0
387060
387060
70E0C0
70E0C0
70E0C0
70E180
E0C100
E1C200
E2C400
E4C800
787000
ENDCHAR
STARTCHAR uni1E88
ENCODING 7816
SWIDTH 946 0
DWIDTH 23 0
BBX 24 20 1 -3
BITMAP
FE1C3F
381C0C
381C08
383C10
383C10
385C20
385C20
389C40
1C8E40
1D0E80
1D0E80
1E0F00
1E0F00
1C0E00
1C0E00
180C00
180C00
000000
006000
006000
ENDCHAR
STARTCHAR uni1E89
ENCODING 7817
SWIDTH 785 0
DWIDTH 20 0
BBX 19 16 1 -3
BITMAP
387060
F870E0
387060
387060
70E0C0
70E0C0
70E0C0
70E180
E0C100
E1C200
E2C400
E4C800
787000
000000
030000
030000
ENDCHAR
STARTCHAR uni1E8A
ENCODING 7818
SWIDTH 632 0
DWIDTH 16 0
BBX 18 20 -1 0
BITMAP
006000
006000
000000
1F8FC0
070700
070600
038C00
038800
01D800
01F000
00E000
00E000
01F000
037000
023800
043800
0C1C00
181C00
380E00
FC3F80
ENDCHAR
STARTCHAR uni1E8B
ENCODING 7819
SWIDTH 516 0
DWIDTH 13 0
BBX 13 16 0 0
BITMAP
0300
0300
0000
0E18
3E38
0E68
0EC0
0780
0700
0700
0700
0F00
1B80
B390
E3A0
C1C0
ENDCHAR
STARTCHAR uni1E8C
ENCODING 7820
SWIDTH 632 0
DWIDTH 16 0
BBX 18 20 -1 0
BITMAP
019800
019800
000000
1F8FC0
070700
070600
038C00
038800
01D800
01F000
00E000
00E000
01F000
037000
023800
043800
0C1C00
181C00
380E00
FC3F80
ENDCHAR
STARTCHAR uni1E8D
ENCODING 7821
SWIDTH 516 0
DWIDTH 13 0
BBX 13 16 0 0
BITMAP
0CC0
0CC0
0000
0E18
3E38
0E68
0EC0
0780
0700
0700
0700
0F00
1B80
B390
E3A0
C1C0
ENDCHAR
STARTCHAR uni1E8E
ENCODING 7822
SWIDTH 591 0
DWIDTH 15 0
BBX 17 20 0 0
BITMAP
018000
018000
000000
FF1F80
3C0600
1C0C00
1C0800
1C1000
0E3000
0E6000
0E4000
0F8000
078000
070000
070000
0E0000
0E0000
0E0000
1E0000
7F8000
ENDCHAR
STARTCHAR uni1E8F
ENCODING 7823
SWIDTH 468 0
DWIDTH 12 0
BBX 14 21 -2 -5
BITMAP
0300
0300
0000
0E0C
3E0C
0E08
0E10
0E10
0720
0720
0740
0740
0780
0780
0700
0700
0600
0600
4400
E800
7000
ENDCHAR
STARTCHAR uni1E90
ENCODING 7824
SWIDTH 622 0
DWIDTH 16 0
BBX 16 22 0 0
BITMAP
0040
00E0
01B0
0318
0000
1FFF
180F
101E
103C
0078
0070
00E0
01E0
03C0
0780
0700
0E00
1C00
3C04
780C
F018
FFF8
ENDCHAR
STARTCHAR uni1E91
ENCODING 7825
SWIDTH 468 0
DWIDTH 12 0
BBX 12 18 0 0
BITMAP
0200
0700
0D80
18C0
0000
1FF0
1FE0
3040
2080
0100
0200
0400
0800
1000
3C20
7F20
CFC0
C380
ENDCHAR
STARTCHAR uni1E92
ENCODING 7826
SWIDTH 622 0
DWIDTH 16 0
BBX 16 20 0 -3
BITMAP
1FFF
180F
101E
103C
0078
0070
00E0
01E0
03C0
0780
0700
0E00
1C00
3C04
780C
F018
FFF8
0000
0300
0300
ENDCHAR
STARTCHAR uni1E93
ENCODING 7827
SWIDTH 468 0
DWIDTH 12 0
BBX 12 16 0 -3
BITMAP
1FF0
1FE0
3040
2080
0100
0200
0400
0800
1000
3C20
7F20
CFC0
C380
0000
0600
0600
ENDCHAR
STARTCHAR uni1E94
ENCODING 7828
SWIDTH 622 0
DWIDTH 16 0
BBX 16 20 0 -3
BITMAP
1FFF
180F
101E
103C
0078
0070
00E0
01E0
03C0
0780
0700
0E00
1C00
3C04
780C
F018
FFF8
0000
1FC0
1FC0
ENDCHAR
STARTCHAR uni1E95
ENCODING 7829
SWIDTH 468 0
DWIDTH 12 0
BBX 12 16 0 -3
BITMAP
1FF0
1FE0
3040
2080
0100
0200
0400
0800
1000
3C20
7F20
CFC0
C380
0000
3F80
3F80
ENDCHAR
STARTCHAR uni1E96
ENCODING 7830
SWIDTH 607 0
DWIDTH 15 0
BBX 14 22 1 -3
BITMAP
1C00
7C00
1C00
1C00
1C00
3800
3870
38B8
3938
3A38
7438
7870
7070
7070
7070
E0E0
E0E4
E0E8
E070
0000
1FC0
1FC0
ENDCHAR
STARTCHAR uni1E97
ENCODING 7831
SWIDTH 341 0
DWIDTH 9 0
BBX 8 19 2 0
BITMAP
66
66
00
08
18
38
FF
38
38
70
70
70
70
70
E0
E2
E4
E8
70
ENDCHAR
STARTCHAR uni1E98
ENCODING 7832
SWIDTH 785 0
DWIDTH 20 0
BBX 19 19 1 0
BITMAP
00E000
019000
011000
013000
00E000
000000
387060
F870E0
387060
387060
70E0C0
70E0C0
70E0C0
70E180
E0C100
E1C200
E2C400
E4C800
787000
ENDCHAR
STARTCHAR uni1E99
ENCODING 7833
SWIDTH 468 0
DWIDTH 12 0
BBX 14 24 -2 -5
BITMAP
0380
0640
0440
04C0
0380
0000
0E0C
3E0C
0E08
0E10
0E10
0720
0720
0740
0740
0780
0780
0700
0700
0600
0600
4400
E800
7000
ENDCHAR
STARTCHAR uni1EA0
ENCODING 7840
SWIDTH 624 0
DWIDTH 16 0
BBX 17 20 -2 -3
BITMAP
001800
003800
003800
007800
007800
00B800
009C00
011C00
011C00
021C00
07FC00
041C00
080E00
080E00
100E00
300E00
FC3F80
000000
00C000
00C000
ENDCHAR
STARTCHAR uni1EA1
ENCODING 7841
SWIDTH 561 0
DWIDTH 14 0
BBX 13 16 1 -3
BITMAP
0770
1CF0
3870
7870
70E0
F0E0
E0E0
E0E0
E1C0
E1C0
E3C8
65D0
38E0
0000
0600
0600
ENDCHAR
STARTCHAR uni1EA4
ENCODING 7844
SWIDTH 624 0
DWIDTH 16 0
BBX 17 26 -2 0
BITMAP
000400
000E00
001C00
003000
004000
000000
001000
003800
006C00
00C600
000000
001800
001800
003800
007800
007800
009C00
011C00
011C00
021C00
07FC00
040E00
080E00
100E00
300E00
FC3F80
ENDCHAR
STARTCHAR uni1EA5
ENCODING 7845
SWIDTH 561 0
DWIDTH 14 0
BBX 13 24 1 0
BITMAP
0040
00E0
01C0
0300
0400
0000
0100
0380
06C0
0C60
0000
0770
1CF0
3870
7870
70E0
F0E0
E0E0
E0E0
E1C0
E1C0
E3C8
65D0
38E0
ENDCHAR
STARTCHAR uni1EA6
ENCODING 7846
SWIDTH 624 0
DWIDTH 16 0
BBX 17 26 -2 0
BITMAP
008000
01C000
00E000
003000
000800
000000
001000
003800
006C00
00C600
000000
001800
001800
003800
007800
007800
009C00
011C00
011C00
021C00
07FC00
040E00
080E00
100E00
300E00
FC3F80
ENDCHAR
STARTCHAR uni1EA7
ENCODING 7847
SWIDTH 561 0
DWIDTH 14 0
BBX 13 24 1 0
BITMAP
0800
1C00
0E00
0300
0080
0000
0100
0380
06C0
0C60
0000
0770
1CF0
3870
7870
70E0
F0E0
E0E0
E0E0
E1C0
E1C0
E3C8
65D0
38E0
ENDCHAR
STARTCHAR uni1EAA
ENCODING 7850
SWIDTH 624 0
DWIDTH 16 0
BBX 17 24 -2 0
BITMAP
00C200
01FC00
021800
000000
001000
003800
006C00
00C600
000000
001800
001800
003800
007800
007800
009C00
011C00
011C00
021C00
07FC00
040E00
080E00
100E00
300E00
FC3F80
ENDCHAR
STARTCHAR uni1EAB
ENCODING 7851
SWIDTH 561 0
DWIDTH 14 0
BBX 13 22 1 0
BITMAP
0610
0FE0
10C0
0000
0100
0380
06C0
0C60
0000
0770
1CF0
3870
7870
70E0
F0E0
E0E0
E0E0
E1C0
E1C0
E3C8
65D0
38E0
ENDCHAR
STARTCHAR uni1EAC
ENCODING 7852
SWIDTH 624 0
DWIDTH 16 0
BBX 17 25 -2 -3
BITMAP
002000
007000
00D800
018C00
000000
001800
003800
003800
007800
007800
00B800
009C00
011C00
011C00
021C00
07FC00
041C00
080E00
080E00
100E00
300E00
FC3F80
000000
00C000
00C000
ENDCHAR
STARTCHAR uni1EAD
ENCODING 7853
SWIDTH 561 0
DWIDTH 14 0
BBX 13 21 1 -3
BITMAP
0200
0700
0D80
18C0
0000
0770
1CF0
3870
7870
70E0
F0E0
E0E0
E0E0
E1C0
E1C0
E3C8
65D0
38E0
0000
0600
0600
ENDCHAR
STARTCHAR uni1EAE
ENCODING 7854
SWIDTH 624 0
DWIDTH 16 0
BBX 17 27 -2 0
BITMAP
000800
001C00
003800
006000
008000
000000
010400
01FC00
00F800
000000
001800
003800
003800
007800
007800
00B800
009C00
011C00
011C00
021C00
07FC00
041C00
080E00
080E00
100E00
300E00
FC3F80
ENDCHAR
STARTCHAR uni1EAF
ENCODING 7855
SWIDTH 561 0
DWIDTH 14 0
BBX 13 23 1 0
BITMAP
0040
00E0
01C0
0300
0400
0000
0820
0FE0
07C0
0000
0770
1CF0
3870
7870
70E0
F0E0
E0E0
E0E0
E1C0
E1C0
E3C8
65D0
38E0
ENDCHAR
STARTCHAR uni1EB0
ENCODING 7856
SWIDTH 624 0
DWIDTH 16 0
BBX 17 27 -2 0
BITMAP
010000
038000
01C000
006000
001000
000000
010400
01FC00
00F800
000000
001800
003800
003800
007800
007800
00B800
009C00
011C00
011C00
021C00
07FC00
041C00
080E00
080E00
100E00
300E00
FC3F80
ENDCHAR
STARTCHAR uni1EB1
ENCODING 7857
SWIDTH 561 0
DWIDTH 14 0
BBX 13 23 1 0
BITMAP
0800
1C00
0E00
0300
0080
0000
0820
0FE0
07C0
0000
0770
1CF0
3870
7870
70E0
F0E0
E0E0
E0E0
E1C0
E1C0
E3C8
65D0
38E0
ENDCHAR
STARTCHAR uni1EB4
ENCODING 7860
SWIDTH 624 0
DWIDTH 16 0
BBX 17 25 -2 0
BITMAP
00C200
01FC00
021800
000000
010400
01FC00
00F800
000000
001800
003800
003800
007800
007800
00B800
009C00
011C00
011C00
021C00
07FC00
041C00
080E00
080E00
100E00
300E00
FC3F80
ENDCHAR
STARTCHAR uni1EB5
ENCODING 7861
SWIDTH 561 0
DWIDTH 14 0
BBX 13 21 1 0
BITMAP
0610
0FE0
10C0
0000
0820
0FE0
07C0
0000
0770
1CF0
3870
7870
70E0
F0E0
E0E0
E0E0
E1C0
E1C0
E3C8
65D0
38E0
ENDCHAR
STARTCHAR uni1EB6
ENCODING 7862
SWIDTH 624 0
DWIDTH 16 0
BBX 17 24 -2 -3
BITMAP
010400
01FC00
00F800
000000
001800
003800
003800
007800
007800
00B800
009C00
011C00
011C00
021C00
07FC00
041C00
080E00
080E00
100E00
300E00
FC3F80
000000
00C000
00C000
ENDCHAR
STARTCHAR uni1EB7
ENCODING 7863
SWIDTH 561 0
DWIDTH 14 0
BBX 13 20 1 -3
BITMAP
1040
1FC0
0F80
0000
0770
1CF0
3870
7870
70E0
F0E0
E0E0
E0E0
E1C0
E1C0
E3C8
65D0
38E0
0000
0600
0600
ENDCHAR
STARTCHAR uni1EB8
ENCODING 7864
SWIDTH 596 0
DWIDTH 15 0
BBX 15 20 -1 -3
BITMAP
1FFE
0786
0704
0704
0700
0E00
0E08
0E08
0FF8
0E10
0E10
1C00
1C00
1C04
1C0C
3C18
FFF8
0000
0300
0300
ENDCHAR
STARTCHAR uni1EB9
ENCODING 7865
SWIDTH 453 0
DWIDTH 12 0
BBX 11 16 1 -3
BITMAP
07C0
1CE0
38E0
78E0
71C0
F180
E600
F800
E000
E000
E080
7100
3E00
0000
1800
1800
ENDCHAR
STARTCHAR uni1EBC
ENCODING 7868
SWIDTH 596 0
DWIDTH 15 0
BBX 15 21 -1 0
BITMAP
0308
07F0
0860
0000
1FFE
0786
0704
0704
0700
0E00
0E08
0E08
0FF8
0E10
0E10
1C00
1C00
1C04
1C0C
3C18
FFF8
ENDCHAR
STARTCHAR uni1EBD
ENCODING 7869
SWIDTH 453 0
DWIDTH 12 0
BBX 11 17 1 0
BITMAP
0C20
1FC0
2180
0000
07C0
1CE0
38E0
78E0
71C0
F180
E600
F800
E000
E000
E080
7100
3E00
ENDCHAR
STARTCHAR uni1EBE
ENCODING 7870
SWIDTH 596 0
DWIDTH 15 0
BBX 15 26 -1 0
BITMAP
0010
0038
0070
00C0
0100
0000
0040
00E0
01B0
0318
0000
1FFE
0786
0704
0704
0E00
0E08
0E08
0FF8
0E10
0E10
1C00
1C04
1C0C
3C18
FFF8
ENDCHAR
STARTCHAR uni1EBF
ENCODING 7871
SWIDTH 453 0
DWIDTH 12 0
BBX 11 24 1 0
BITMAP
0080
01C0
0380
0600
0800
0000
0200
0700
0D80
18C0
0000
07C0
1CE0
38E0
78E0
71C0
F180
E600
F800
E000
E000
E080
7100
3E00
ENDCHAR
STARTCHAR uni1EC0
ENCODING 7872
SWIDTH 596 0
DWIDTH 15 0
BBX 15 26 -1 0
BITMAP
0200
0700
0380
00C0
0020
0000
0040
00E0
01B0
0318
0000
1FFE
0786
0704
0704
0E00
0E08
0E08
0FF8
0E10
0E10
1C00
1C04
1C0C
3C18
FFF8
ENDCHAR
STARTCHAR uni1EC1
ENCODING 7873
SWIDTH 453 0
DWIDTH 12 0
BBX 11 24 1 0
BITMAP
1000
3800
1C00
0600
0100
0000
0200
0700
0D80
18C0
0000
07C0
1CE0
38E0
78E0
71C0
F180
E600
F800
E000
E000
E080
7100
3E00
ENDCHAR
STARTCHAR uni1EC4
ENCODING 7876
SWIDTH 596 0
DWIDTH 15 0
BBX 15 24 -1 0
BITMAP
0308
07F0
0860
0000
0040
00E0
01B0
0318
0000
1FFE
0786
0704
0704
0E00
0E08
0E08
0FF8
0E10
0E10
1C00
1C04
1C0C
3C18
FFF8
ENDCHAR
STARTCHAR uni1EC5
ENCODING 7877
SWIDTH 453 0
DWIDTH 12 0
BBX 11 22 1 0
BITMAP
0C20
1FC0
2180
0000
0200
0700
0D80
18C0
0000
07C0
1CE0
38E0
78E0
71C0
F180
E600
F800
E000
E000
E080
7100
3E00
ENDCHAR
STARTCHAR uni1EC6
ENCODING 7878
SWIDTH 596 0
DWIDTH 15 0
BBX 15 25 -1 -3
BITMAP
0080
01C0
0360
0630
0000
1FFE
0786
0704
0704
0700
0E00
0E08
0E08
0FF8
0E10
0E10
1C00
1C00
1C04
1C0C
3C18
FFF8
0000
0300
0300
ENDCHAR
STARTCHAR uni1EC7
ENCODING 7879
SWIDTH 453 0
DWIDTH 12 0
BBX 11 21 1 -3
BITMAP
0200
0700
0D80
18C0
0000
07C0
1CE0
38E0
78E0
71C0
F180
E600
F800
E000
E000
E080
7100
3E00
0000
1800
1800
ENDCHAR
STARTCHAR uni1ECA
ENCODING 7882
SWIDTH 345 0
DWIDTH 9 0
BBX 11 20 -1 -3
BITMAP
1FE0
0780
0700
0700
0700
0E00
0E00
0E00
0E00
0E00
0E00
1C00
1C00
1C00
1C00
3C00
FF00
0000
0C00
0C00
ENDCHAR
STARTCHAR uni1ECB
ENCODING 7883
SWIDTH 317 0
DWIDTH 7 0
BBX 6 21 1 -3
BITMAP
18
3C
18
00
00
38
F8
38
38
70
70
70
70
E0
E0
E4
E8
70
00
60
60
ENDCHAR
STARTCHAR uni1ECC
ENCODING 7884
SWIDTH 753 0
DWIDTH 19 0
BBX 17 20 1 -3
BITMAP
03F800
0F0E00
1C0700
380700
700380
700380
700380
E00380
E00380
E00380
E00700
E00700
E00700
700E00
701C00
387800
0FE000
000000
018000
018000
ENDCHAR
STARTCHAR uni1ECD
ENCODING 7885
SWIDTH 537 0
DWIDTH 14 0
BBX 12 16 1 -3
BITMAP
07C0
1CE0
3870
7870
7070
F070
E070
E0F0
E0E0
E1E0
E1C0
7380
3E00
0000
0C00
0C00
ENDCHAR
STARTCHAR uni1ED0
ENCODING 7888
SWIDTH 753 0
DWIDTH 19 0
BBX 17 26 1 0
BITMAP
001000
003800
007000
00C000
010000
000000
004000
00E000
01B000
031800
000000
03F800
0F0E00
1C0700
380700
700380
700380
700380
E00380
E00700
E00700
E00700
700E00
701C00
387800
0FE000
ENDCHAR
STARTCHAR uni1ED1
ENCODING 7889
SWIDTH 537 0
DWIDTH 14 0
BBX 12 24 1 0
BITMAP
0040
00E0
01C0
0300
0400
0000
0100
0380
06C0
0C60
0000
07C0
1CE0
3870
7870
7070
F070
E070
E0F0
E0E0
E1E0
E1C0
7380
3E00
ENDCHAR
STARTCHAR uni1ED2
ENCODING 7890
SWIDTH 753 0
DWIDTH 19 0
BBX 17 26 1 0
BITMAP
020000
070000
038000
00C000
002000
000000
004000
00E000
01B000
031800
000000
03F800
0F0E00
1C0700
380700
700380
700380
700380
E00380
E00700
E00700
E00700
700E00
701C00
387800
0FE000
ENDCHAR
STARTCHAR uni1ED3
ENCODING 7891
SWIDTH 537 0
DWIDTH 14 0
BBX 12 24 1 0
BITMAP
0800
1C00
0E00
0300
0080
0000
0100
0380
06C0
0C60
0000
07C0
1CE0
3870
7870
7070
F070
E070
E0F0
E0E0
E1E0
E1C0
7380
3E00
ENDCHAR
STARTCHAR uni1ED6
ENCODING 7894
SWIDTH 753 0
DWIDTH 19 0
BBX 17 24 1 0
BITMAP
018400
03F800
043000
000000
004000
00E000
01B000
031800
000000
03F800
0F0E00
1C0700
380700
700380
700380
700380
E00380
E00700
E00700
E00700
700E00
701C00
387800
0FE000
ENDCHAR
STARTCHAR uni1ED7
ENCODING 7895
SWIDTH 537 0
DWIDTH 14 0
BBX 12 22 1 0
BITMAP
0610
0FE0
10C0
0000
0100
0380
06C0
0C60
0000
07C0
1CE0
3870
7870
7070
F070
E070
E0F0
E0E0
E1E0
E1C0
7380
3E00
ENDCHAR
STARTCHAR uni1ED8
ENCODING 7896
SWIDTH 753 0
DWIDTH 19 0
BBX 17 25 1 -3
BITMAP
008000
01C000
036000
063000
000000
03F800
0F0E00
1C0700
380700
700380
700380
700380
E00380
E00380
E00380
E00700
E00700
E00700
700E00
701C00
387800
0FE000
000000
018000
018000
ENDCHAR
STARTCHAR uni1ED9
ENCODING 7897
SWIDTH 537 0
DWIDTH 14 0
BBX 12 21 1 -3
BITMAP
0200
0700
0D80
18C0
0000
07C0
1CE0
3870
7870
7070
F070
E070
E0F0
E0E0
E1E0
E1C0
7380
3E00
0000
0C00
0C00
ENDCHAR
STARTCHAR uni1EDA
ENCODING 7898
SWIDTH 753 0
DWIDTH 19 0
BBX 20 23 1 0
BITMAP
000400
000E00
001C00
003000
004000
000000
03F860
0F0EF0
1C0760
380740
700380
700380
700380
E00380
E00380
E00380
E00700
E00700
E00700
700E00
701C00
387800
0FE000
ENDCHAR
STARTCHAR uni1EDB
ENCODING 7899
SWIDTH 537 0
DWIDTH 14 0
BBX 16 19 1 0
BITMAP
0010
0038
0070
00C0
0100
0000
07C6
1CEF
3876
7874
7078
F070
E070
E0F0
E0E0
E1E0
E1C0
7380
3E00
ENDCHAR
STARTCHAR uni1EDC
ENCODING 7900
SWIDTH 753 0
DWIDTH 19 0
BBX 20 23 1 0
BITMAP
008000
01C000
00E000
003000
000800
000000
03F860
0F0EF0
1C0760
380740
700380
700380
700380
E00380
E00380
E00380
E00700
E00700
E00700
700E00
701C00
387800
0FE000
ENDCHAR
STARTCHAR uni1EDD
ENCODING 7901
SWIDTH 537 0
DWIDTH 14 0
BBX 16 19 1 0
BITMAP
0200
0700
0380
00C0
0020
0000
07C6
1CEF
3876
7874
7078
F070
E070
E0F0
E0E0
E1E0
E1C0
7380
3E00
ENDCHAR
STARTCHAR uni1EE0
ENCODING 7904
SWIDTH 753 0
DWIDTH 19 0
BBX 20 21 1 0
BITMAP
00C200
01FC00
021800
000000
03F860
0F0EF0
1C0760
380740
700380
700380
700380
E00380
E00380
E00380
E00700
E00700
E00700
700E00
701C00
387800
0FE000
ENDCHAR
STARTCHAR uni1EE1
ENCODING 7905
SWIDTH 537 0
DWIDTH 14 0
BBX 16 17 1 0
BITMAP
0308
07F0
0860
0000
07C6
1CEF
3876
7874
7078
F070
E070
E0F0
E0E0
E1E0
E1C0
7380
3E00
ENDCHAR
STARTCHAR uni1EE2
ENCODING 7906
SWIDTH 753 0
DWIDTH 19 0
BBX 20 20 1 -3
BITMAP
03F860
0F0EF0
1C0760
380740
700380
700380
700380
E00380
E00380
E00380
E00700
E00700
E00700
700E00
701C00
387800
0FE000
000000
00C000
00C000
ENDCHAR
STARTCHAR uni1EE3
ENCODING 7907
SWIDTH 537 0
DWIDTH 14 0
BBX 16 16 1 -3
BITMAP
07C6
1CEF
3876
7874
7078
F070
E070
E0F0
E0E0
E1E0
E1C0
7380
3E00
0000
0600
0600
ENDCHAR
STARTCHAR uni1EE4
ENCODING 7908
SWIDTH 794 0
DWIDTH 20 0
BBX 18 20 2 -3
BITMAP
FF3FC0
3C0F00
380E00
380E00
380E00
700E00
701C00
701C00
701C00
701C00
E01C00
E03800
E03800
E03800
E07000
70E000
3FC000
000000
030000
030000
ENDCHAR
STARTCHAR uni1EE5
ENCODING 7909
SWIDTH 618 0
DWIDTH 15 0
BBX 14 16 1 -3
BITMAP
3838
F838
3838
3838
7070
7070
7070
70F0
E170
E2E4
E4E4
E8E8
7070
0000
0300
0300
ENDCHAR
STARTCHAR uni1EE8
ENCODING 7912
SWIDTH 794 0
DWIDTH 20 0
BBX 21 23 2 0
BITMAP
000400
000E00
001C00
003000
004000
000000
FF3FF0
3C0F78
380E30
380E20
380E40
700E80
701C00
701C00
701C00
701C00
E01C00
E03800
E03800
E03800
E07000
70E000
3FC000
ENDCHAR
STARTCHAR uni1EE9
ENCODING 7913
SWIDTH 618 0
DWIDTH 15 0
BBX 18 19 1 0
BITMAP
001000
003800
007000
00C000
010000
000000
383980
F83BC0
383980
383900
707200
707400
707000
70F000
E17000
E2E400
E4E400
E8E800
707000
ENDCHAR
STARTCHAR uni1EEA
ENCODING 7914
SWIDTH 794 0
DWIDTH 20 0
BBX 21 23 2 0
BITMAP
008000
01C000
00E000
003000
000800
000000
FF3FF0
3C0F78
380E30
380E20
380E40
700E80
701C00
701C00
701C00
701C00
E01C00
E03800
E03800
E03800
E07000
70E000
3FC000
ENDCHAR
STARTCHAR uni1EEB
ENCODING 7915
SWIDTH 618 0
DWIDTH 15 0
BBX 18 19 1 0
BITMAP
020000
070000
038000
00C000
002000
000000
383980
F83BC0
383980
383900
707200
707400
707000
70F000
E17000
E2E400
E4E400
E8E800
707000
ENDCHAR
STARTCHAR uni1EEE
ENCODING 7918
SWIDTH 794 0
DWIDTH 20 0
BBX 21 21 2 0
BITMAP
00C200
01FC00
021800
000000
FF3FF0
3C0F78
380E30
380E20
380E40
700E80
701C00
701C00
701C00
701C00
E01C00
E03800
E03800
E03800
E07000
70E000
3FC000
ENDCHAR
STARTCHAR uni1EEF
ENCODING 7919
SWIDTH 618 0
DWIDTH 15 0
BBX 18 17 1 0
BITMAP
018400
03F800
043000
000000
383980
F83BC0
383980
383900
707200
707400
707000
70F000
E17000
E2E400
E4E400
E8E800
707000
ENDCHAR
STARTCHAR uni1EF0
ENCODING 7920
SWIDTH 794 0
DWIDTH 20 0
BBX 21 20 2 -3
BITMAP
FF3FF0
3C0F78
380E30
380E20
380E40
700E80
701C00
701C00
701C00
701C00
E01C00
E03800
E03800
E03800
E07000
70E000
3FC000
000000
018000
018000
ENDCHAR
STARTCHAR uni1EF1
ENCODING 7921
SWIDTH 618 0
DWIDTH 15 0
BBX 18 16 1 -3
BITMAP
383980
F83BC0
383980
383900
707200
707400
707000
70F000
E17000
E2E400
E4E400
E8E800
707000
000000
030000
030000
ENDCHAR
STARTCHAR Ygrave
ENCODING 7922
SWIDTH 591 0
DWIDTH 15 0
BBX 17 23 0 0
BITMAP
040000
0E0000
070000
018000
004000
000000
FF1F80
3C0600
1C0C00
1C0800
1C1000
0E3000
0E6000
0E4000
0F8000
078000
070000
070000
0E0000
0E0000
0E0000
1E0000
7F8000
ENDCHAR
STARTCHAR ygrave
ENCODING 7923
SWIDTH 468 0
DWIDTH 12 0
BBX 14 24 -2 -5
BITMAP
0800
1C00
0E00
0300
0080
0000
0E0C
3E0C
0E08
0E10
0E10
0720
0720
0740
0740
0780
0780
0700
0700
0600
0600
4400
E800
7000
ENDCHAR
STARTCHAR uni1EF4
ENCODING 7924
SWIDTH 591 0
DWIDTH 15 0
BBX 17 20 0 -3
BITMAP
FF1F80
3C0600
1C0C00
1C0800
1C1000
0E3000
0E6000
0E4000
0F8000
078000
070000
070000
0E0000
0E0000
0E0000
1E0000
7F8000
000000
060000
060000
ENDCHAR
STARTCHAR uni1EF5
ENCODING 7925
SWIDTH 468 0
DWIDTH 12 0
BBX 14 21 -2 -8
BITMAP
0E0C
3E0C
0E08
0E10
0E10
0720
0720
0740
0740
0780
0780
0700
0700
0600
0600
4400
E800
7000
0000
0C00
0C00
ENDCHAR
STARTCHAR uni1EF8
ENCODING 7928
SWIDTH 591 0
DWIDTH 15 0
BBX 17 21 0 0
BITMAP
030800
07F000
086000
000000
FF1F80
3C0600
1C0C00
1C0800
1C1000
0E3000
0E6000
0E4000
0F8000
078000
070000
070000
0E0000
0E0000
0E0000
1E0000
7F8000
ENDCHAR
STARTCHAR uni1EF9
ENCODING 7929
SWIDTH 468 0
DWIDTH 12 0
BBX 14 22 -2 -5
BITMAP
0610
0FE0
10C0
0000
0E0C
3E0C
0E08
0E10
0E10
0720
0720
0740
0740
0780
0780
0700
0700
0600
0600
4400
E800
7000
ENDCHAR
STARTCHAR uni2000
ENCODING 8192
SWIDTH 500 0
DWIDTH 13 0
BBX 1 1 0 0
BITMAP
00
ENDCHAR
STARTCHAR uni2001
ENCODING 8193
SWIDTH 1000 0
DWIDTH 25 0
BBX 1 1 0 0
BITMAP
00
ENDCHAR
STARTCHAR uni2002
ENCODING 8194
SWIDTH 500 0
DWIDTH 13 0
BBX 1 1 0 0
BITMAP
00
ENDCHAR
STARTCHAR uni2003
ENCODING 8195
SWIDTH 1000 0
DWIDTH 25 0
BBX 1 1 0 0
BITMAP
00
ENDCHAR
STARTCHAR uni2004
ENCODING 8196
SWIDTH 333 0
DWIDTH 8 0
BBX 1 1 0 0
BITMAP
00
ENDCHAR
STARTCHAR uni2005
ENCODING 8197
SWIDTH 250 0
DWIDTH 6 0
BBX 1 1 0 0
BITMAP
00
ENDCHAR
STARTCHAR uni2006
ENCODING 8198
SWIDTH 167 0
DWIDTH 4 0
BBX 1 1 0 0
BITMAP
00
ENDCHAR
STARTCHAR uni2007
ENCODING 8199
SWIDTH 530 0
DWIDTH 13 0
BBX 1 1 0 0
BITMAP
00
ENDCHAR
STARTCHAR uni2008
ENCODING 8200
SWIDTH 265 0
DWIDTH 6 0
BBX 1 1 0 0
BITMAP
00
ENDCHAR
STARTCHAR uni2009
ENCODING 8201
SWIDTH 200 0
DWIDTH 5 0
BBX 1 1 0 0
BITMAP
00
ENDCHAR
STARTCHAR uni200A
ENCODING 8202
SWIDTH 100 0
DWIDTH 3 0
BBX 1 1 0 0
BITMAP
00
ENDCHAR
STARTCHAR uni200B
ENCODING 8203
SWIDTH 0 0
DWIDTH 0 0
BBX 1 1 0 0
BITMAP
00
ENDCHAR
STARTCHAR uni2010
ENCODING 8208
SWIDTH 392 0
DWIDTH 10 0
BBX 7 2 1 5
BITMAP
7E
FC
ENDCHAR
STARTCHAR uni2011
ENCODING 8209
SWIDTH 392 0
DWIDTH 10 0
BBX 7 2 1 5
BITMAP
7E
FC
ENDCHAR
STARTCHAR figuredash
ENCODING 8210
SWIDTH 500 0
DWIDTH 12 0
BBX 12 2 0 5
BITMAP
FFF0
FFF0
ENDCHAR
STARTCHAR endash
ENCODING 8211
SWIDTH 500 0
DWIDTH 12 0
BBX 12 2 0 5
BITMAP
FFF0
FFF0
ENDCHAR
STARTCHAR emdash
ENCODING 8212
SWIDTH 1000 0
DWIDTH 25 0
BBX 25 2 0 5
BITMAP
FFFFFF80
FFFFFF80
ENDCHAR
STARTCHAR afii00208
ENCODING 8213
SWIDTH 1000 0
DWIDTH 25 0
BBX 25 2 0 5
BITMAP
FFFFFF80
FFFFFF80
ENDCHAR
STARTCHAR quoteleft
ENCODING 8216
SWIDTH 216 0
DWIDTH 5 0
BBX 5 6 0 11
BITMAP
08
10
20
60
F0
60
ENDCHAR
STARTCHAR quoteright
ENCODING 8217
SWIDTH 216 0
DWIDTH 5 0
BBX 5 6 0 11
BITMAP
30
78
30
20
40
80
ENDCHAR
STARTCHAR quotesinglbase
ENCODING 8218
SWIDTH 216 0
DWIDTH 6 0
BBX 5 6 -1 -3
BITMAP
30
78
30
20
40
80
ENDCHAR
STARTCHAR quotereversed
ENCODING 8219
SWIDTH 216 0
DWIDTH 5 0
BBX 5 6 0 11
BITMAP
60
F0
60
20
10
08
ENDCHAR
STARTCHAR quotedblleft
ENCODING 8220
SWIDTH 402 0
DWIDTH 9 0
BBX 9 6 0 11
BITMAP
0880
1100
2200
6600
FF00
6600
ENDCHAR
STARTCHAR quotedblright
ENCODING 8221
SWIDTH 402 0
DWIDTH 9 0
BBX 9 6 0 11
BITMAP
3300
7F80
3300
2200
4400
8800
ENDCHAR
STARTCHAR quotedblbase
ENCODING 8222
SWIDTH 402 0
DWIDTH 10 0
BBX 9 6 -1 -3
BITMAP
3300
7F80
3300
2200
4400
8800
ENDCHAR
STARTCHAR uni201F
ENCODING 8223
SWIDTH 402 0
DWIDTH 9 0
BBX 9 6 0 11
BITMAP
6600
FF00
6600
2200
1100
0880
ENDCHAR
STARTCHAR dagger
ENCODING 8224
SWIDTH 500 0
DWIDTH 12 0
BBX 11 22 0 -4
BITMAP
0700
0700
0700
0600
0600
FFE0
FFE0
0C00
0C00
1C00
1C00
1C00
1800
1800
1800
1000
1000
3000
3000
2000
2000
2000
ENDCHAR
STARTCHAR daggerdbl
ENCODING 8225
SWIDTH 490 0
DWIDTH 12 0
BBX 10 22 0 -4
BITMAP
0700
0700
0700
0600
0600
7FC0
7FC0
0C00
0C00
1C00
1C00
1C00
1800
1800
1800
FFC0
FFC0
3000
3000
7000
7000
7000
ENDCHAR
STARTCHAR bullet
ENCODING 8226
SWIDTH 500 0
DWIDTH 12 0
BBX 10 10 1 4
BITMAP
0C00
3F00
7F80
7F80
FFC0
FFC0
7F80
7F80
3F00
0C00
ENDCHAR
STARTCHAR ellipsis
ENCODING 8230
SWIDTH 1000 0
DWIDTH 24 0
BBX 20 3 1 0
BITMAP
606060
F0F0F0
606060
ENDCHAR
STARTCHAR perthousand
ENCODING 8240
SWIDTH 1200 0
DWIDTH 29 0
BBX 25 17 2 0
BITMAP
1E060000
23FC0000
63080000
43100000
C3300000
C2200000
C6400000
44800000
799E0F00
01221100
02633180
04432180
0CC36180
08C26100
10C66300
20442200
60783C00
ENDCHAR
STARTCHAR guilsinglleft
ENCODING 8249
SWIDTH 277 0
DWIDTH 6 0
BBX 5 9 0 2
BITMAP
08
18
30
60
C0
C0
60
30
10
ENDCHAR
STARTCHAR guilsinglright
ENCODING 8250
SWIDTH 277 0
DWIDTH 6 0
BBX 5 9 0 2
BITMAP
40
60
30
18
18
30
60
C0
80
ENDCHAR
STARTCHAR fraction
ENCODING 8260
SWIDTH 100 0
DWIDTH 2 0
BBX 14 17 -6 0
BITMAP
000C
0008
0010
0020
0060
0040
0080
0100
0300
0200
0400
0800
1800
1000
2000
4000
C000
ENDCHAR
STARTCHAR oneinferior
ENCODING 8321
SWIDTH 370 0
DWIDTH 10 0
BBX 6 10 2 -5
BITMAP
78
18
18
18
18
30
30
30
30
FC
ENDCHAR
STARTCHAR twoinferior
ENCODING 8322
SWIDTH 370 0
DWIDTH 10 0
BBX 8 10 1 -5
BITMAP
1E
33
63
03
06
1C
30
60
C2
FE
ENDCHAR
STARTCHAR threeinferior
ENCODING 8323
SWIDTH 370 0
DWIDTH 10 0
BBX 8 10 1 -5
BITMAP
1E
33
03
06
3C
06
06
86
CC
78
ENDCHAR
STARTCHAR uni20A5
ENCODING 8357
SWIDTH 912 0
DWIDTH 23 0
BBX 22 17 1 -2
BITMAP
000600
000600
387C70
F8BCB8
393D38
3A3A38
743C38
783870
707070
707070
707070
E0E0E0
E0E0E4
E0E0E8
E0E070
018000
018000
ENDCHAR
STARTCHAR uni20A6
ENCODING 8358
SWIDTH 763 0
DWIDTH 19 0
BBX 21 17 -1 0
BITMAP
1F81F8
078060
07C040
05C040
05E040
07FFC0
0FFFC0
087080
087880
083880
0FFF80
1FFF80
101F00
100F00
100F00
300700
FC0700
ENDCHAR
STARTCHAR uni20A9
ENCODING 8361
SWIDTH 946 0
DWIDTH 23 0
BBX 24 17 1 0
BITMAP
FE1C3F
381C0C
381C08
383C10
383C10
3BFFE0
3BFFE0
389C40
1C8E40
1D0E80
1FFFC0
1FFFC0
1E0F00
1C0E00
1C0E00
180C00
180C00
ENDCHAR
STARTCHAR Euro
ENCODING 8364
SWIDTH 661 0
DWIDTH 17 0
BBX 19 17 -2 0
BITMAP
007FC0
01E0E0
038060
070040
0E0040
FFF000
FFF000
1C0000
1C0000
1C0000
FFF000
FFF000
1C0040
0E00C0
0E0180
070380
01FC00
ENDCHAR
STARTCHAR uni20AD
ENCODING 8365
SWIDTH 650 0
DWIDTH 16 0
BBX 18 17 -1 0
BITMAP
1FE7C0
078300
070200
070400
070800
0E1000
0E2000
0E4000
FFFFC0
0FE000
0EF000
1C7800
1C3C00
1C1C00
1C1E00
3C0F00
FF07C0
ENDCHAR
STARTCHAR uni2103
ENCODING 8451
SWIDTH 1041 0
DWIDTH 27 0
BBX 25 17 2 0
BITMAP
7801FF00
CC078380
840E0180
841C0100
CC380100
78380000
00380000
00700000
00700000
00700000
00700000
00700000
00700100
00380300
00380600
001C0E00
0007F000
ENDCHAR
STARTCHAR uni2109
ENCODING 8457
SWIDTH 951 0
DWIDTH 24 0
BBX 22 17 2 0
BITMAP
783FFC
CC0F0C
840E08
840E08
CC0E00
781C00
001C10
001C10
001FF0
001C20
001C20
003800
003800
003800
003800
007800
01FE00
ENDCHAR
STARTCHAR trademark
ENCODING 8482
SWIDTH 1100 0
DWIDTH 27 0
BBX 25 10 1 7
BITMAP
FFDC0380
CCCE0700
8C4E0700
0C0B0B00
0C0B8B00
0C099300
0C08D300
0C08E300
0C086300
1E1C4780
ENDCHAR
STARTCHAR uni212A
ENCODING 8490
SWIDTH 650 0
DWIDTH 16 0
BBX 18 17 -1 0
BITMAP
1FE7C0
078300
070200
070400
070800
0E1000
0E2000
0E4000
0EC000
0FE000
0EF000
1C7800
1C3C00
1C1C00
1C1E00
3C0F00
FF07C0
ENDCHAR
STARTCHAR uni212B
ENCODING 8491
SWIDTH 624 0
DWIDTH 16 0
BBX 17 21 -2 0
BITMAP
001C00
003200
002200
002600
001C00
000000
001800
001800
003800
007800
007800
009C00
011C00
011C00
021C00
07FC00
040E00
080E00
100E00
300E00
FC3F80
ENDCHAR
STARTCHAR uni2132
ENCODING 8498
SWIDTH 571 0
DWIDTH 14 0
BBX 15 17 -1 0
BITMAP
01FE
0078
0070
0070
0070
0070
10E0
10E0
3FE0
20E0
20E0
00E0
01C0
41C0
41C0
C3C0
FFF0
ENDCHAR
STARTCHAR minus
ENCODING 8722
SWIDTH 570 0
DWIDTH 14 0
BBX 12 2 1 5
BITMAP
FFF0
FFF0
ENDCHAR
STARTCHAR fraction
ENCODING 8725
SWIDTH 100 0
DWIDTH 2 0
BBX 14 17 -6 0
BITMAP
000C
0008
0010
0020
0060
0040
0080
0100
0300
0200
0400
0800
1800
1000
2000
4000
C000
ENDCHAR
STARTCHAR periodcentered
ENCODING 8729
SWIDTH 265 0
DWIDTH 7 0
BBX 4 3 1 5
BITMAP
60
F0
60
ENDCHAR
STARTCHAR uni2236
ENCODING 8758
SWIDTH 265 0
DWIDTH 6 0
BBX 6 13 0 0
BITMAP
18
3C
18
00
00
00
00
00
00
00
60
F0
60
ENDCHAR
STARTCHAR uni2259
ENCODING 8793
SWIDTH 570 0
DWIDTH 14 0
BBX 12 12 1 2
BITMAP
0200
0700
0D80
18C0
0000
FFF0
FFF0
0000
0000
0000
FFF0
FFF0
ENDCHAR
STARTCHAR uni225A
ENCODING 8794
SWIDTH 570 0
DWIDTH 14 0
BBX 12 12 1 2
BITMAP
18C0
0D80
0700
0200
0000
FFF0
FFF0
0000
0000
0000
FFF0
FFF0
ENDCHAR
STARTCHAR notequal
ENCODING 8800
SWIDTH 570 0
DWIDTH 14 0
BBX 12 17 1 -3
BITMAP
00C0
00C0
0180
0180
0180
FFF0
FFF0
0600
0600
0600
FFF0
FFF0
1800
1800
1800
3000
3000
ENDCHAR
STARTCHAR equivalence
ENCODING 8801
SWIDTH 570 0
DWIDTH 14 0
BBX 12 5 0 3
BITMAP
FFF0
0000
FFF0
0000
FFF0
ENDCHAR
STARTCHAR uni2262
ENCODING 8802
SWIDTH 570 0
DWIDTH 14 0
BBX 12 17 0 -3
BITMAP
00C0
00C0
0180
0180
0180
0300
FFF0
0600
FFF0
0600
FFF0
0C00
1800
1800
1800
3000
3000
ENDCHAR
STARTCHAR lessequal
ENCODING 8804
SWIDTH 570 0
DWIDTH 14 0
BBX 12 14 1 -2
BITMAP
0030
00F0
03C0
0F00
3C00
F000
F000
3C00
0F00
03C0
00F0
0030
0000
FFF0
ENDCHAR
STARTCHAR greaterequal
ENCODING 8805
SWIDTH 570 0
DWIDTH 14 0
BBX 12 14 1 -2
BITMAP
C000
F000
3C00
0F00
03C0
00F0
00F0
03C0
0F00
3C00
F000
C000
0000
FFF0
ENDCHAR
STARTCHAR uni226E
ENCODING 8814
SWIDTH 570 0
DWIDTH 14 0
BBX 12 17 1 -2
BITMAP
00C0
00C0
0180
01B0
01F0
03C0
0F00
3E00
F600
F600
3C00
0F00
1BC0
18F0
1830
3000
3000
ENDCHAR
STARTCHAR uni226F
ENCODING 8815
SWIDTH 570 0
DWIDTH 14 0
BBX 12 17 1 -2
BITMAP
00C0
00C0
0180
C180
F180
3F00
0F00
07C0
06F0
06F0
0FC0
0F00
3C00
F800
D800
3000
3000
ENDCHAR
STARTCHAR uni2270
ENCODING 8816
SWIDTH 570 0
DWIDTH 14 0
BBX 12 17 1 -3
BITMAP
00C0
00C0
01B0
01F0
03C0
0F00
3F00
F600
F600
3E00
0F00
0FC0
18F0
1830
1800
FFF0
3000
ENDCHAR
STARTCHAR uni2271
ENCODING 8817
SWIDTH 570 0
DWIDTH 14 0
BBX 12 17 1 -3
BITMAP
00C0
00C0
C180
F180
3D80
0F00
03C0
06F0
06F0
07C0
0F00
3C00
F800
D800
1800
FFF0
3000
ENDCHAR
STARTCHAR fi
ENCODING -1
SWIDTH 607 0
DWIDTH 15 0
BBX 18 24 -3 -5
BITMAP
003F00
004380
00C1C0
01C180
01C000
01C000
07FF80
038380
038380
038380
038700
070700
070700
070700
070600
070E00
0E0E40
0E0E80
0E0700
0E0000
0E0000
4C0000
E80000
700000
ENDCHAR
STARTCHAR fl
ENCODING -1
SWIDTH 603 0
DWIDTH 15 0
BBX 18 24 -3 -5
BITMAP
003EC0
0047C0
00C3C0
01C1C0
01C380
01C380
07F380
038380
038380
038700
038700
070700
070700
070600
070E00
070E00
0E0E40
0E0E80
0E0700
0E0000
0E0000
4C0000
E80000
700000
ENDCHAR
ENDFONT
